<?xml version="1.0" encoding="utf-8" standalone="no"?>
<!DOCTYPE svg PUBLIC "-//W3C//DTD SVG 1.1//EN"
  "http://www.w3.org/Graphics/SVG/1.1/DTD/svg11.dtd">
<!-- Created with matplotlib (https://matplotlib.org/) -->
<svg height="248.957325pt" version="1.1" viewBox="0 0 415.416125 248.957325" width="415.416125pt" xmlns="http://www.w3.org/2000/svg" xmlns:xlink="http://www.w3.org/1999/xlink">
 <defs>
  <style type="text/css">
*{stroke-linecap:butt;stroke-linejoin:round;}
  </style>
 </defs>
 <g id="figure_1">
  <g id="patch_1">
   <path d="M 0 248.957325 
L 415.416125 248.957325 
L 415.416125 -0 
L 0 -0 
z
" style="fill:#ffffff;"/>
  </g>
  <g id="axes_1">
   <g id="patch_2">
    <path d="M 53.328125 225.0792 
L 408.216125 225.0792 
L 408.216125 7.2 
L 53.328125 7.2 
z
" style="fill:#ffffff;"/>
   </g>
   <g id="matplotlib.axis_1">
    <g id="xtick_1">
     <g id="line2d_1">
      <path clip-path="url(#p719610be54)" d="M 68.781584 225.0792 
L 68.781584 7.2 
" style="fill:none;stroke:#b0b0b0;stroke-linecap:square;stroke-opacity:0.3;stroke-width:0.8;"/>
     </g>
     <g id="line2d_2">
      <defs>
       <path d="M 0 0 
L 0 3.5 
" id="m8f8d777137" style="stroke:#000000;stroke-width:0.8;"/>
      </defs>
      <g>
       <use style="stroke:#000000;stroke-width:0.8;" x="68.781584" xlink:href="#m8f8d777137" y="225.0792"/>
      </g>
     </g>
     <g id="text_1">
      <!-- 06:00 -->
      <defs>
       <path d="M 31.78125 66.40625 
Q 24.171875 66.40625 20.328125 58.90625 
Q 16.5 51.421875 16.5 36.375 
Q 16.5 21.390625 20.328125 13.890625 
Q 24.171875 6.390625 31.78125 6.390625 
Q 39.453125 6.390625 43.28125 13.890625 
Q 47.125 21.390625 47.125 36.375 
Q 47.125 51.421875 43.28125 58.90625 
Q 39.453125 66.40625 31.78125 66.40625 
z
M 31.78125 74.21875 
Q 44.046875 74.21875 50.515625 64.515625 
Q 56.984375 54.828125 56.984375 36.375 
Q 56.984375 17.96875 50.515625 8.265625 
Q 44.046875 -1.421875 31.78125 -1.421875 
Q 19.53125 -1.421875 13.0625 8.265625 
Q 6.59375 17.96875 6.59375 36.375 
Q 6.59375 54.828125 13.0625 64.515625 
Q 19.53125 74.21875 31.78125 74.21875 
z
" id="DejaVuSans-48"/>
       <path d="M 33.015625 40.375 
Q 26.375 40.375 22.484375 35.828125 
Q 18.609375 31.296875 18.609375 23.390625 
Q 18.609375 15.53125 22.484375 10.953125 
Q 26.375 6.390625 33.015625 6.390625 
Q 39.65625 6.390625 43.53125 10.953125 
Q 47.40625 15.53125 47.40625 23.390625 
Q 47.40625 31.296875 43.53125 35.828125 
Q 39.65625 40.375 33.015625 40.375 
z
M 52.59375 71.296875 
L 52.59375 62.3125 
Q 48.875 64.0625 45.09375 64.984375 
Q 41.3125 65.921875 37.59375 65.921875 
Q 27.828125 65.921875 22.671875 59.328125 
Q 17.53125 52.734375 16.796875 39.40625 
Q 19.671875 43.65625 24.015625 45.921875 
Q 28.375 48.1875 33.59375 48.1875 
Q 44.578125 48.1875 50.953125 41.515625 
Q 57.328125 34.859375 57.328125 23.390625 
Q 57.328125 12.15625 50.6875 5.359375 
Q 44.046875 -1.421875 33.015625 -1.421875 
Q 20.359375 -1.421875 13.671875 8.265625 
Q 6.984375 17.96875 6.984375 36.375 
Q 6.984375 53.65625 15.1875 63.9375 
Q 23.390625 74.21875 37.203125 74.21875 
Q 40.921875 74.21875 44.703125 73.484375 
Q 48.484375 72.75 52.59375 71.296875 
z
" id="DejaVuSans-54"/>
       <path d="M 11.71875 12.40625 
L 22.015625 12.40625 
L 22.015625 0 
L 11.71875 0 
z
M 11.71875 51.703125 
L 22.015625 51.703125 
L 22.015625 39.3125 
L 11.71875 39.3125 
z
" id="DejaVuSans-58"/>
      </defs>
      <g transform="translate(54.372209 239.677638)scale(0.1 -0.1)">
       <use xlink:href="#DejaVuSans-48"/>
       <use x="63.623047" xlink:href="#DejaVuSans-54"/>
       <use x="127.246094" xlink:href="#DejaVuSans-58"/>
       <use x="160.9375" xlink:href="#DejaVuSans-48"/>
       <use x="224.560547" xlink:href="#DejaVuSans-48"/>
      </g>
     </g>
    </g>
    <g id="xtick_2">
     <g id="line2d_3">
      <path clip-path="url(#p719610be54)" d="M 122.739886 225.0792 
L 122.739886 7.2 
" style="fill:none;stroke:#b0b0b0;stroke-linecap:square;stroke-opacity:0.3;stroke-width:0.8;"/>
     </g>
     <g id="line2d_4">
      <g>
       <use style="stroke:#000000;stroke-width:0.8;" x="122.739886" xlink:href="#m8f8d777137" y="225.0792"/>
      </g>
     </g>
     <g id="text_2">
      <!-- 08:00 -->
      <defs>
       <path d="M 31.78125 34.625 
Q 24.75 34.625 20.71875 30.859375 
Q 16.703125 27.09375 16.703125 20.515625 
Q 16.703125 13.921875 20.71875 10.15625 
Q 24.75 6.390625 31.78125 6.390625 
Q 38.8125 6.390625 42.859375 10.171875 
Q 46.921875 13.96875 46.921875 20.515625 
Q 46.921875 27.09375 42.890625 30.859375 
Q 38.875 34.625 31.78125 34.625 
z
M 21.921875 38.8125 
Q 15.578125 40.375 12.03125 44.71875 
Q 8.5 49.078125 8.5 55.328125 
Q 8.5 64.0625 14.71875 69.140625 
Q 20.953125 74.21875 31.78125 74.21875 
Q 42.671875 74.21875 48.875 69.140625 
Q 55.078125 64.0625 55.078125 55.328125 
Q 55.078125 49.078125 51.53125 44.71875 
Q 48 40.375 41.703125 38.8125 
Q 48.828125 37.15625 52.796875 32.3125 
Q 56.78125 27.484375 56.78125 20.515625 
Q 56.78125 9.90625 50.3125 4.234375 
Q 43.84375 -1.421875 31.78125 -1.421875 
Q 19.734375 -1.421875 13.25 4.234375 
Q 6.78125 9.90625 6.78125 20.515625 
Q 6.78125 27.484375 10.78125 32.3125 
Q 14.796875 37.15625 21.921875 38.8125 
z
M 18.3125 54.390625 
Q 18.3125 48.734375 21.84375 45.5625 
Q 25.390625 42.390625 31.78125 42.390625 
Q 38.140625 42.390625 41.71875 45.5625 
Q 45.3125 48.734375 45.3125 54.390625 
Q 45.3125 60.0625 41.71875 63.234375 
Q 38.140625 66.40625 31.78125 66.40625 
Q 25.390625 66.40625 21.84375 63.234375 
Q 18.3125 60.0625 18.3125 54.390625 
z
" id="DejaVuSans-56"/>
      </defs>
      <g transform="translate(108.330511 239.677638)scale(0.1 -0.1)">
       <use xlink:href="#DejaVuSans-48"/>
       <use x="63.623047" xlink:href="#DejaVuSans-56"/>
       <use x="127.246094" xlink:href="#DejaVuSans-58"/>
       <use x="160.9375" xlink:href="#DejaVuSans-48"/>
       <use x="224.560547" xlink:href="#DejaVuSans-48"/>
      </g>
     </g>
    </g>
    <g id="xtick_3">
     <g id="line2d_5">
      <path clip-path="url(#p719610be54)" d="M 176.698187 225.0792 
L 176.698187 7.2 
" style="fill:none;stroke:#b0b0b0;stroke-linecap:square;stroke-opacity:0.3;stroke-width:0.8;"/>
     </g>
     <g id="line2d_6">
      <g>
       <use style="stroke:#000000;stroke-width:0.8;" x="176.698187" xlink:href="#m8f8d777137" y="225.0792"/>
      </g>
     </g>
     <g id="text_3">
      <!-- 10:00 -->
      <defs>
       <path d="M 12.40625 8.296875 
L 28.515625 8.296875 
L 28.515625 63.921875 
L 10.984375 60.40625 
L 10.984375 69.390625 
L 28.421875 72.90625 
L 38.28125 72.90625 
L 38.28125 8.296875 
L 54.390625 8.296875 
L 54.390625 0 
L 12.40625 0 
z
" id="DejaVuSans-49"/>
      </defs>
      <g transform="translate(162.288812 239.677638)scale(0.1 -0.1)">
       <use xlink:href="#DejaVuSans-49"/>
       <use x="63.623047" xlink:href="#DejaVuSans-48"/>
       <use x="127.246094" xlink:href="#DejaVuSans-58"/>
       <use x="160.9375" xlink:href="#DejaVuSans-48"/>
       <use x="224.560547" xlink:href="#DejaVuSans-48"/>
      </g>
     </g>
    </g>
    <g id="xtick_4">
     <g id="line2d_7">
      <path clip-path="url(#p719610be54)" d="M 230.656489 225.0792 
L 230.656489 7.2 
" style="fill:none;stroke:#b0b0b0;stroke-linecap:square;stroke-opacity:0.3;stroke-width:0.8;"/>
     </g>
     <g id="line2d_8">
      <g>
       <use style="stroke:#000000;stroke-width:0.8;" x="230.656489" xlink:href="#m8f8d777137" y="225.0792"/>
      </g>
     </g>
     <g id="text_4">
      <!-- 12:00 -->
      <defs>
       <path d="M 19.1875 8.296875 
L 53.609375 8.296875 
L 53.609375 0 
L 7.328125 0 
L 7.328125 8.296875 
Q 12.9375 14.109375 22.625 23.890625 
Q 32.328125 33.6875 34.8125 36.53125 
Q 39.546875 41.84375 41.421875 45.53125 
Q 43.3125 49.21875 43.3125 52.78125 
Q 43.3125 58.59375 39.234375 62.25 
Q 35.15625 65.921875 28.609375 65.921875 
Q 23.96875 65.921875 18.8125 64.3125 
Q 13.671875 62.703125 7.8125 59.421875 
L 7.8125 69.390625 
Q 13.765625 71.78125 18.9375 73 
Q 24.125 74.21875 28.421875 74.21875 
Q 39.75 74.21875 46.484375 68.546875 
Q 53.21875 62.890625 53.21875 53.421875 
Q 53.21875 48.921875 51.53125 44.890625 
Q 49.859375 40.875 45.40625 35.40625 
Q 44.1875 33.984375 37.640625 27.21875 
Q 31.109375 20.453125 19.1875 8.296875 
z
" id="DejaVuSans-50"/>
      </defs>
      <g transform="translate(216.247114 239.677638)scale(0.1 -0.1)">
       <use xlink:href="#DejaVuSans-49"/>
       <use x="63.623047" xlink:href="#DejaVuSans-50"/>
       <use x="127.246094" xlink:href="#DejaVuSans-58"/>
       <use x="160.9375" xlink:href="#DejaVuSans-48"/>
       <use x="224.560547" xlink:href="#DejaVuSans-48"/>
      </g>
     </g>
    </g>
    <g id="xtick_5">
     <g id="line2d_9">
      <path clip-path="url(#p719610be54)" d="M 284.614791 225.0792 
L 284.614791 7.2 
" style="fill:none;stroke:#b0b0b0;stroke-linecap:square;stroke-opacity:0.3;stroke-width:0.8;"/>
     </g>
     <g id="line2d_10">
      <g>
       <use style="stroke:#000000;stroke-width:0.8;" x="284.614791" xlink:href="#m8f8d777137" y="225.0792"/>
      </g>
     </g>
     <g id="text_5">
      <!-- 14:00 -->
      <defs>
       <path d="M 37.796875 64.3125 
L 12.890625 25.390625 
L 37.796875 25.390625 
z
M 35.203125 72.90625 
L 47.609375 72.90625 
L 47.609375 25.390625 
L 58.015625 25.390625 
L 58.015625 17.1875 
L 47.609375 17.1875 
L 47.609375 0 
L 37.796875 0 
L 37.796875 17.1875 
L 4.890625 17.1875 
L 4.890625 26.703125 
z
" id="DejaVuSans-52"/>
      </defs>
      <g transform="translate(270.205416 239.677638)scale(0.1 -0.1)">
       <use xlink:href="#DejaVuSans-49"/>
       <use x="63.623047" xlink:href="#DejaVuSans-52"/>
       <use x="127.246094" xlink:href="#DejaVuSans-58"/>
       <use x="160.9375" xlink:href="#DejaVuSans-48"/>
       <use x="224.560547" xlink:href="#DejaVuSans-48"/>
      </g>
     </g>
    </g>
    <g id="xtick_6">
     <g id="line2d_11">
      <path clip-path="url(#p719610be54)" d="M 338.573093 225.0792 
L 338.573093 7.2 
" style="fill:none;stroke:#b0b0b0;stroke-linecap:square;stroke-opacity:0.3;stroke-width:0.8;"/>
     </g>
     <g id="line2d_12">
      <g>
       <use style="stroke:#000000;stroke-width:0.8;" x="338.573093" xlink:href="#m8f8d777137" y="225.0792"/>
      </g>
     </g>
     <g id="text_6">
      <!-- 16:00 -->
      <g transform="translate(324.163718 239.677638)scale(0.1 -0.1)">
       <use xlink:href="#DejaVuSans-49"/>
       <use x="63.623047" xlink:href="#DejaVuSans-54"/>
       <use x="127.246094" xlink:href="#DejaVuSans-58"/>
       <use x="160.9375" xlink:href="#DejaVuSans-48"/>
       <use x="224.560547" xlink:href="#DejaVuSans-48"/>
      </g>
     </g>
    </g>
    <g id="xtick_7">
     <g id="line2d_13">
      <path clip-path="url(#p719610be54)" d="M 392.531395 225.0792 
L 392.531395 7.2 
" style="fill:none;stroke:#b0b0b0;stroke-linecap:square;stroke-opacity:0.3;stroke-width:0.8;"/>
     </g>
     <g id="line2d_14">
      <g>
       <use style="stroke:#000000;stroke-width:0.8;" x="392.531395" xlink:href="#m8f8d777137" y="225.0792"/>
      </g>
     </g>
     <g id="text_7">
      <!-- 18:00 -->
      <g transform="translate(378.12202 239.677638)scale(0.1 -0.1)">
       <use xlink:href="#DejaVuSans-49"/>
       <use x="63.623047" xlink:href="#DejaVuSans-56"/>
       <use x="127.246094" xlink:href="#DejaVuSans-58"/>
       <use x="160.9375" xlink:href="#DejaVuSans-48"/>
       <use x="224.560547" xlink:href="#DejaVuSans-48"/>
      </g>
     </g>
    </g>
   </g>
   <g id="matplotlib.axis_2">
    <g id="ytick_1">
     <g id="line2d_15">
      <path clip-path="url(#p719610be54)" d="M 53.328125 177.252059 
L 408.216125 177.252059 
" style="fill:none;stroke:#b0b0b0;stroke-linecap:square;stroke-opacity:0.3;stroke-width:0.8;"/>
     </g>
     <g id="line2d_16">
      <defs>
       <path d="M 0 0 
L -3.5 0 
" id="mbaadfca02b" style="stroke:#000000;stroke-width:0.8;"/>
      </defs>
      <g>
       <use style="stroke:#000000;stroke-width:0.8;" x="53.328125" xlink:href="#mbaadfca02b" y="177.252059"/>
      </g>
     </g>
     <g id="text_8">
      <!-- 800 -->
      <g transform="translate(27.240625 181.051277)scale(0.1 -0.1)">
       <use xlink:href="#DejaVuSans-56"/>
       <use x="63.623047" xlink:href="#DejaVuSans-48"/>
       <use x="127.246094" xlink:href="#DejaVuSans-48"/>
      </g>
     </g>
    </g>
    <g id="ytick_2">
     <g id="line2d_17">
      <path clip-path="url(#p719610be54)" d="M 53.328125 128.941815 
L 408.216125 128.941815 
" style="fill:none;stroke:#b0b0b0;stroke-linecap:square;stroke-opacity:0.3;stroke-width:0.8;"/>
     </g>
     <g id="line2d_18">
      <g>
       <use style="stroke:#000000;stroke-width:0.8;" x="53.328125" xlink:href="#mbaadfca02b" y="128.941815"/>
      </g>
     </g>
     <g id="text_9">
      <!-- 1000 -->
      <g transform="translate(20.878125 132.741033)scale(0.1 -0.1)">
       <use xlink:href="#DejaVuSans-49"/>
       <use x="63.623047" xlink:href="#DejaVuSans-48"/>
       <use x="127.246094" xlink:href="#DejaVuSans-48"/>
       <use x="190.869141" xlink:href="#DejaVuSans-48"/>
      </g>
     </g>
    </g>
    <g id="ytick_3">
     <g id="line2d_19">
      <path clip-path="url(#p719610be54)" d="M 53.328125 80.631571 
L 408.216125 80.631571 
" style="fill:none;stroke:#b0b0b0;stroke-linecap:square;stroke-opacity:0.3;stroke-width:0.8;"/>
     </g>
     <g id="line2d_20">
      <g>
       <use style="stroke:#000000;stroke-width:0.8;" x="53.328125" xlink:href="#mbaadfca02b" y="80.631571"/>
      </g>
     </g>
     <g id="text_10">
      <!-- 1200 -->
      <g transform="translate(20.878125 84.430789)scale(0.1 -0.1)">
       <use xlink:href="#DejaVuSans-49"/>
       <use x="63.623047" xlink:href="#DejaVuSans-50"/>
       <use x="127.246094" xlink:href="#DejaVuSans-48"/>
       <use x="190.869141" xlink:href="#DejaVuSans-48"/>
      </g>
     </g>
    </g>
    <g id="ytick_4">
     <g id="line2d_21">
      <path clip-path="url(#p719610be54)" d="M 53.328125 32.321327 
L 408.216125 32.321327 
" style="fill:none;stroke:#b0b0b0;stroke-linecap:square;stroke-opacity:0.3;stroke-width:0.8;"/>
     </g>
     <g id="line2d_22">
      <g>
       <use style="stroke:#000000;stroke-width:0.8;" x="53.328125" xlink:href="#mbaadfca02b" y="32.321327"/>
      </g>
     </g>
     <g id="text_11">
      <!-- 1400 -->
      <g transform="translate(20.878125 36.120546)scale(0.1 -0.1)">
       <use xlink:href="#DejaVuSans-49"/>
       <use x="63.623047" xlink:href="#DejaVuSans-52"/>
       <use x="127.246094" xlink:href="#DejaVuSans-48"/>
       <use x="190.869141" xlink:href="#DejaVuSans-48"/>
      </g>
     </g>
    </g>
    <g id="text_12">
     <!-- Air CO2 concentration -->
     <defs>
      <path d="M 34.1875 63.1875 
L 20.796875 26.90625 
L 47.609375 26.90625 
z
M 28.609375 72.90625 
L 39.796875 72.90625 
L 67.578125 0 
L 57.328125 0 
L 50.6875 18.703125 
L 17.828125 18.703125 
L 11.1875 0 
L 0.78125 0 
z
" id="DejaVuSans-65"/>
      <path d="M 9.421875 54.6875 
L 18.40625 54.6875 
L 18.40625 0 
L 9.421875 0 
z
M 9.421875 75.984375 
L 18.40625 75.984375 
L 18.40625 64.59375 
L 9.421875 64.59375 
z
" id="DejaVuSans-105"/>
      <path d="M 41.109375 46.296875 
Q 39.59375 47.171875 37.8125 47.578125 
Q 36.03125 48 33.890625 48 
Q 26.265625 48 22.1875 43.046875 
Q 18.109375 38.09375 18.109375 28.8125 
L 18.109375 0 
L 9.078125 0 
L 9.078125 54.6875 
L 18.109375 54.6875 
L 18.109375 46.1875 
Q 20.953125 51.171875 25.484375 53.578125 
Q 30.03125 56 36.53125 56 
Q 37.453125 56 38.578125 55.875 
Q 39.703125 55.765625 41.0625 55.515625 
z
" id="DejaVuSans-114"/>
      <path id="DejaVuSans-32"/>
      <path d="M 64.40625 67.28125 
L 64.40625 56.890625 
Q 59.421875 61.53125 53.78125 63.8125 
Q 48.140625 66.109375 41.796875 66.109375 
Q 29.296875 66.109375 22.65625 58.46875 
Q 16.015625 50.828125 16.015625 36.375 
Q 16.015625 21.96875 22.65625 14.328125 
Q 29.296875 6.6875 41.796875 6.6875 
Q 48.140625 6.6875 53.78125 8.984375 
Q 59.421875 11.28125 64.40625 15.921875 
L 64.40625 5.609375 
Q 59.234375 2.09375 53.4375 0.328125 
Q 47.65625 -1.421875 41.21875 -1.421875 
Q 24.65625 -1.421875 15.125 8.703125 
Q 5.609375 18.84375 5.609375 36.375 
Q 5.609375 53.953125 15.125 64.078125 
Q 24.65625 74.21875 41.21875 74.21875 
Q 47.75 74.21875 53.53125 72.484375 
Q 59.328125 70.75 64.40625 67.28125 
z
" id="DejaVuSans-67"/>
      <path d="M 39.40625 66.21875 
Q 28.65625 66.21875 22.328125 58.203125 
Q 16.015625 50.203125 16.015625 36.375 
Q 16.015625 22.609375 22.328125 14.59375 
Q 28.65625 6.59375 39.40625 6.59375 
Q 50.140625 6.59375 56.421875 14.59375 
Q 62.703125 22.609375 62.703125 36.375 
Q 62.703125 50.203125 56.421875 58.203125 
Q 50.140625 66.21875 39.40625 66.21875 
z
M 39.40625 74.21875 
Q 54.734375 74.21875 63.90625 63.9375 
Q 73.09375 53.65625 73.09375 36.375 
Q 73.09375 19.140625 63.90625 8.859375 
Q 54.734375 -1.421875 39.40625 -1.421875 
Q 24.03125 -1.421875 14.8125 8.828125 
Q 5.609375 19.09375 5.609375 36.375 
Q 5.609375 53.65625 14.8125 63.9375 
Q 24.03125 74.21875 39.40625 74.21875 
z
" id="DejaVuSans-79"/>
      <path d="M 48.78125 52.59375 
L 48.78125 44.1875 
Q 44.96875 46.296875 41.140625 47.34375 
Q 37.3125 48.390625 33.40625 48.390625 
Q 24.65625 48.390625 19.8125 42.84375 
Q 14.984375 37.3125 14.984375 27.296875 
Q 14.984375 17.28125 19.8125 11.734375 
Q 24.65625 6.203125 33.40625 6.203125 
Q 37.3125 6.203125 41.140625 7.25 
Q 44.96875 8.296875 48.78125 10.40625 
L 48.78125 2.09375 
Q 45.015625 0.34375 40.984375 -0.53125 
Q 36.96875 -1.421875 32.421875 -1.421875 
Q 20.0625 -1.421875 12.78125 6.34375 
Q 5.515625 14.109375 5.515625 27.296875 
Q 5.515625 40.671875 12.859375 48.328125 
Q 20.21875 56 33.015625 56 
Q 37.15625 56 41.109375 55.140625 
Q 45.0625 54.296875 48.78125 52.59375 
z
" id="DejaVuSans-99"/>
      <path d="M 30.609375 48.390625 
Q 23.390625 48.390625 19.1875 42.75 
Q 14.984375 37.109375 14.984375 27.296875 
Q 14.984375 17.484375 19.15625 11.84375 
Q 23.34375 6.203125 30.609375 6.203125 
Q 37.796875 6.203125 41.984375 11.859375 
Q 46.1875 17.53125 46.1875 27.296875 
Q 46.1875 37.015625 41.984375 42.703125 
Q 37.796875 48.390625 30.609375 48.390625 
z
M 30.609375 56 
Q 42.328125 56 49.015625 48.375 
Q 55.71875 40.765625 55.71875 27.296875 
Q 55.71875 13.875 49.015625 6.21875 
Q 42.328125 -1.421875 30.609375 -1.421875 
Q 18.84375 -1.421875 12.171875 6.21875 
Q 5.515625 13.875 5.515625 27.296875 
Q 5.515625 40.765625 12.171875 48.375 
Q 18.84375 56 30.609375 56 
z
" id="DejaVuSans-111"/>
      <path d="M 54.890625 33.015625 
L 54.890625 0 
L 45.90625 0 
L 45.90625 32.71875 
Q 45.90625 40.484375 42.875 44.328125 
Q 39.84375 48.1875 33.796875 48.1875 
Q 26.515625 48.1875 22.3125 43.546875 
Q 18.109375 38.921875 18.109375 30.90625 
L 18.109375 0 
L 9.078125 0 
L 9.078125 54.6875 
L 18.109375 54.6875 
L 18.109375 46.1875 
Q 21.34375 51.125 25.703125 53.5625 
Q 30.078125 56 35.796875 56 
Q 45.21875 56 50.046875 50.171875 
Q 54.890625 44.34375 54.890625 33.015625 
z
" id="DejaVuSans-110"/>
      <path d="M 56.203125 29.59375 
L 56.203125 25.203125 
L 14.890625 25.203125 
Q 15.484375 15.921875 20.484375 11.0625 
Q 25.484375 6.203125 34.421875 6.203125 
Q 39.59375 6.203125 44.453125 7.46875 
Q 49.3125 8.734375 54.109375 11.28125 
L 54.109375 2.78125 
Q 49.265625 0.734375 44.1875 -0.34375 
Q 39.109375 -1.421875 33.890625 -1.421875 
Q 20.796875 -1.421875 13.15625 6.1875 
Q 5.515625 13.8125 5.515625 26.8125 
Q 5.515625 40.234375 12.765625 48.109375 
Q 20.015625 56 32.328125 56 
Q 43.359375 56 49.78125 48.890625 
Q 56.203125 41.796875 56.203125 29.59375 
z
M 47.21875 32.234375 
Q 47.125 39.59375 43.09375 43.984375 
Q 39.0625 48.390625 32.421875 48.390625 
Q 24.90625 48.390625 20.390625 44.140625 
Q 15.875 39.890625 15.1875 32.171875 
z
" id="DejaVuSans-101"/>
      <path d="M 18.3125 70.21875 
L 18.3125 54.6875 
L 36.8125 54.6875 
L 36.8125 47.703125 
L 18.3125 47.703125 
L 18.3125 18.015625 
Q 18.3125 11.328125 20.140625 9.421875 
Q 21.96875 7.515625 27.59375 7.515625 
L 36.8125 7.515625 
L 36.8125 0 
L 27.59375 0 
Q 17.1875 0 13.234375 3.875 
Q 9.28125 7.765625 9.28125 18.015625 
L 9.28125 47.703125 
L 2.6875 47.703125 
L 2.6875 54.6875 
L 9.28125 54.6875 
L 9.28125 70.21875 
z
" id="DejaVuSans-116"/>
      <path d="M 34.28125 27.484375 
Q 23.390625 27.484375 19.1875 25 
Q 14.984375 22.515625 14.984375 16.5 
Q 14.984375 11.71875 18.140625 8.90625 
Q 21.296875 6.109375 26.703125 6.109375 
Q 34.1875 6.109375 38.703125 11.40625 
Q 43.21875 16.703125 43.21875 25.484375 
L 43.21875 27.484375 
z
M 52.203125 31.203125 
L 52.203125 0 
L 43.21875 0 
L 43.21875 8.296875 
Q 40.140625 3.328125 35.546875 0.953125 
Q 30.953125 -1.421875 24.3125 -1.421875 
Q 15.921875 -1.421875 10.953125 3.296875 
Q 6 8.015625 6 15.921875 
Q 6 25.140625 12.171875 29.828125 
Q 18.359375 34.515625 30.609375 34.515625 
L 43.21875 34.515625 
L 43.21875 35.40625 
Q 43.21875 41.609375 39.140625 45 
Q 35.0625 48.390625 27.6875 48.390625 
Q 23 48.390625 18.546875 47.265625 
Q 14.109375 46.140625 10.015625 43.890625 
L 10.015625 52.203125 
Q 14.9375 54.109375 19.578125 55.046875 
Q 24.21875 56 28.609375 56 
Q 40.484375 56 46.34375 49.84375 
Q 52.203125 43.703125 52.203125 31.203125 
z
" id="DejaVuSans-97"/>
     </defs>
     <g transform="translate(14.798438 171.420069)rotate(-90)scale(0.1 -0.1)">
      <use xlink:href="#DejaVuSans-65"/>
      <use x="68.408203" xlink:href="#DejaVuSans-105"/>
      <use x="96.191406" xlink:href="#DejaVuSans-114"/>
      <use x="137.304688" xlink:href="#DejaVuSans-32"/>
      <use x="169.091797" xlink:href="#DejaVuSans-67"/>
      <use x="238.916016" xlink:href="#DejaVuSans-79"/>
      <use x="317.626953" xlink:href="#DejaVuSans-50"/>
      <use x="381.25" xlink:href="#DejaVuSans-32"/>
      <use x="413.037109" xlink:href="#DejaVuSans-99"/>
      <use x="468.017578" xlink:href="#DejaVuSans-111"/>
      <use x="529.199219" xlink:href="#DejaVuSans-110"/>
      <use x="592.578125" xlink:href="#DejaVuSans-99"/>
      <use x="647.558594" xlink:href="#DejaVuSans-101"/>
      <use x="709.082031" xlink:href="#DejaVuSans-110"/>
      <use x="772.460938" xlink:href="#DejaVuSans-116"/>
      <use x="811.669922" xlink:href="#DejaVuSans-114"/>
      <use x="852.783203" xlink:href="#DejaVuSans-97"/>
      <use x="914.0625" xlink:href="#DejaVuSans-116"/>
      <use x="953.271484" xlink:href="#DejaVuSans-105"/>
      <use x="981.054688" xlink:href="#DejaVuSans-111"/>
      <use x="1042.236328" xlink:href="#DejaVuSans-110"/>
     </g>
    </g>
   </g>
   <g id="line2d_23">
    <path clip-path="url(#p719610be54)" d="M 69.459398 203.098039 
L 69.90884 203.098039 
L 69.90884 202.856488 
L 70.133697 202.856488 
L 70.133697 202.614937 
L 70.583439 202.614937 
L 70.583439 202.856488 
L 70.808063 202.856488 
L 70.808063 202.614937 
L 71.033077 202.614937 
L 71.033077 202.373385 
L 71.257648 202.373385 
L 71.257648 201.890283 
L 71.483366 201.890283 
L 71.483366 200.440976 
L 71.70775 200.440976 
L 71.70775 199.474771 
L 72.157927 199.474771 
L 72.157927 198.750117 
L 72.381779 198.750117 
L 72.381779 198.267015 
L 72.606576 198.267015 
L 72.606576 196.576156 
L 72.832024 196.576156 
L 72.832024 195.851502 
L 73.056281 195.851502 
L 73.056281 194.402195 
L 73.731179 194.402195 
L 73.731179 194.643746 
L 74.180614 194.643746 
L 74.180614 194.885298 
L 74.855138 194.885298 
L 74.855138 194.402195 
L 75.079589 194.402195 
L 75.079589 194.160644 
L 75.304843 194.160644 
L 75.304843 193.677541 
L 75.529324 193.677541 
L 75.529324 192.228234 
L 75.754405 192.228234 
L 75.754405 191.262029 
L 75.979367 191.262029 
L 75.979367 191.020478 
L 76.653703 191.020478 
L 76.653703 191.262029 
L 77.778329 191.262029 
L 77.778329 191.020478 
L 78.228041 191.020478 
L 78.228041 190.537376 
L 78.902902 190.537376 
L 78.902902 190.295824 
L 79.126889 190.295824 
L 79.126889 190.054273 
L 79.351993 190.054273 
L 79.351993 189.812722 
L 79.576767 189.812722 
L 79.576767 189.571171 
L 79.801578 189.571171 
L 79.801578 189.32962 
L 80.026449 189.32962 
L 80.026449 188.846517 
L 80.251275 188.846517 
L 80.251275 188.604966 
L 80.476784 188.604966 
L 80.476784 188.363415 
L 80.700381 188.363415 
L 80.700381 187.638761 
L 81.150206 187.638761 
L 81.150206 187.39721 
L 81.374672 187.39721 
L 81.374672 187.155659 
L 81.599821 187.155659 
L 81.599821 186.189454 
L 81.824894 186.189454 
L 81.824894 185.4648 
L 82.049481 185.4648 
L 82.049481 185.223249 
L 82.274269 185.223249 
L 82.274269 183.53239 
L 82.500205 183.53239 
L 82.500205 183.290839 
L 82.948613 183.290839 
L 82.948613 183.049288 
L 83.397959 183.049288 
L 83.397959 182.566185 
L 83.623489 182.566185 
L 83.623489 181.59998 
L 83.847888 181.59998 
L 83.847888 181.116878 
L 84.073179 181.116878 
L 84.073179 179.184468 
L 84.297796 179.184468 
L 84.297796 178.459815 
L 84.747441 178.459815 
L 84.747441 177.976712 
L 84.97184 177.976712 
L 84.97184 176.044302 
L 85.196898 176.044302 
L 85.196898 172.421034 
L 85.421657 172.421034 
L 85.421657 171.69638 
L 85.646671 171.69638 
L 85.646671 170.730176 
L 85.871497 170.730176 
L 85.871497 167.348459 
L 86.096196 167.348459 
L 86.096196 167.106907 
L 86.321569 167.106907 
L 86.321569 166.623805 
L 86.547235 166.623805 
L 86.547235 165.174498 
L 86.770682 165.174498 
L 86.770682 164.449844 
L 86.995733 164.449844 
L 86.995733 163.966741 
L 87.220177 163.966741 
L 87.220177 163.72519 
L 87.445356 163.72519 
L 87.445356 162.275883 
L 87.670047 162.275883 
L 87.670047 161.79278 
L 88.120022 161.79278 
L 88.120022 161.551229 
L 88.569247 161.551229 
L 88.569247 161.068127 
L 88.794486 161.068127 
L 88.794486 160.826576 
L 89.01905 160.826576 
L 89.01905 159.377268 
L 89.244018 159.377268 
L 89.244018 158.894166 
L 89.468702 158.894166 
L 89.468702 158.652615 
L 89.693019 158.652615 
L 89.693019 157.203307 
L 89.919352 157.203307 
L 89.919352 156.961756 
L 90.143241 156.961756 
L 90.143241 156.478654 
L 90.369409 156.478654 
L 90.369409 155.512449 
L 90.593216 155.512449 
L 90.593216 151.88918 
L 91.492221 151.88918 
L 91.492221 151.647629 
L 93.515373 151.647629 
L 93.515373 151.164527 
L 93.96561 151.164527 
L 93.96561 150.922976 
L 94.189941 150.922976 
L 94.189941 150.681424 
L 94.639699 150.681424 
L 94.639699 150.922976 
L 94.865079 150.922976 
L 94.865079 150.681424 
L 95.089688 150.681424 
L 95.089688 150.439873 
L 95.314867 150.439873 
L 95.314867 149.956771 
L 95.539468 149.956771 
L 95.539468 148.749015 
L 95.988604 148.749015 
L 95.988604 148.265912 
L 96.214149 148.265912 
L 96.214149 146.575054 
L 96.887991 146.575054 
L 96.887991 146.816605 
L 97.113552 146.816605 
L 97.113552 148.265912 
L 97.338595 148.265912 
L 97.338595 148.507463 
L 97.562845 148.507463 
L 97.562845 148.749015 
L 97.787056 148.749015 
L 97.787056 148.990566 
L 98.686901 148.990566 
L 98.686901 148.749015 
L 98.911308 148.749015 
L 98.911308 148.990566 
L 99.3609 148.990566 
L 99.3609 149.232117 
L 100.035416 149.232117 
L 100.035416 149.473668 
L 100.260123 149.473668 
L 100.260123 149.71522 
L 100.485241 149.71522 
L 100.485241 150.198322 
L 100.710397 150.198322 
L 100.710397 150.681424 
L 100.934789 150.681424 
L 100.934789 152.372283 
L 101.15972 152.372283 
L 101.15972 153.096937 
L 101.384899 153.096937 
L 101.384899 155.754 
L 101.609822 155.754 
L 101.609822 156.720205 
L 102.284758 156.720205 
L 102.284758 156.961756 
L 102.509 156.961756 
L 102.509 157.203307 
L 102.733421 157.203307 
L 102.733421 157.444859 
L 102.958345 157.444859 
L 102.958345 158.652615 
L 103.408447 158.652615 
L 103.408447 158.894166 
L 103.632779 158.894166 
L 103.632779 159.860371 
L 104.082791 159.860371 
L 104.082791 160.101922 
L 104.308217 160.101922 
L 104.308217 160.343473 
L 104.532002 160.343473 
L 104.532002 160.585024 
L 104.757165 160.585024 
L 104.757165 162.275883 
L 105.207612 162.275883 
L 105.207612 162.517434 
L 105.881004 162.517434 
L 105.881004 162.275883 
L 106.105905 162.275883 
L 106.105905 161.068127 
L 106.330619 161.068127 
L 106.330619 160.826576 
L 106.557559 160.826576 
L 106.557559 160.585024 
L 107.00533 160.585024 
L 107.00533 160.343473 
L 107.23164 160.343473 
L 107.23164 160.101922 
L 107.456691 160.101922 
L 107.456691 159.377268 
L 108.35401 159.377268 
L 108.35401 160.101922 
L 108.579744 160.101922 
L 108.579744 161.79278 
L 108.804023 161.79278 
L 108.804023 162.275883 
L 109.029921 162.275883 
L 109.029921 162.517434 
L 109.253713 162.517434 
L 109.253713 163.72519 
L 109.478486 163.72519 
L 109.478486 164.208293 
L 109.702946 164.208293 
L 109.702946 164.932946 
L 109.929256 164.932946 
L 109.929256 166.140702 
L 110.602648 166.140702 
L 110.602648 166.382254 
L 110.828516 166.382254 
L 110.828516 166.623805 
L 111.052697 166.623805 
L 111.052697 166.865356 
L 111.502155 166.865356 
L 111.502155 167.831561 
L 111.951538 167.831561 
L 111.951538 168.073112 
L 112.40119 168.073112 
L 112.40119 169.039317 
L 113.075886 169.039317 
L 113.075886 169.280868 
L 113.749946 169.280868 
L 113.749946 170.247073 
L 115.09909 170.247073 
L 115.09909 170.005522 
L 115.325153 170.005522 
L 115.325153 168.797766 
L 115.773847 168.797766 
L 115.773847 168.556215 
L 115.998898 168.556215 
L 115.998898 167.59001 
L 116.449592 167.59001 
L 116.449592 166.865356 
L 116.672822 166.865356 
L 116.672822 166.140702 
L 116.897446 166.140702 
L 116.897446 165.899151 
L 117.122564 165.899151 
L 117.122564 165.416049 
L 117.347353 165.416049 
L 117.347353 165.174498 
L 117.572142 165.174498 
L 117.572142 164.932946 
L 119.145971 164.932946 
L 119.145971 165.174498 
L 120.045785 165.174498 
L 120.045785 165.416049 
L 120.494478 165.416049 
L 120.494478 165.6576 
L 120.720781 165.6576 
L 120.720781 165.899151 
L 120.945255 165.899151 
L 120.945255 166.140702 
L 121.84447 166.140702 
L 121.84447 165.899151 
L 122.0683 165.899151 
L 122.0683 166.140702 
L 122.293448 166.140702 
L 122.293448 165.899151 
L 122.968879 165.899151 
L 122.968879 166.140702 
L 123.192274 166.140702 
L 123.192274 165.899151 
L 123.86715 165.899151 
L 123.86715 165.416049 
L 124.091624 165.416049 
L 124.091624 165.174498 
L 124.766492 165.174498 
L 124.766492 165.416049 
L 124.991318 165.416049 
L 124.991318 165.6576 
L 125.440903 165.6576 
L 125.440903 165.899151 
L 126.56523 165.899151 
L 126.56523 166.382254 
L 126.792244 166.382254 
L 126.792244 166.865356 
L 127.01408 166.865356 
L 127.01408 168.556215 
L 127.240593 168.556215 
L 127.240593 169.039317 
L 127.464025 169.039317 
L 127.464025 170.247073 
L 127.689496 170.247073 
L 127.689496 170.488624 
L 127.914922 170.488624 
L 127.914922 170.971727 
L 128.138998 170.971727 
L 128.138998 172.421034 
L 128.363472 172.421034 
L 128.363472 172.662585 
L 128.589693 172.662585 
L 128.589693 173.870341 
L 128.81338 173.870341 
L 128.81338 174.111893 
L 129.488106 174.111893 
L 129.488106 174.836546 
L 129.713831 174.836546 
L 129.713831 175.078098 
L 129.937444 175.078098 
L 129.937444 175.802751 
L 130.16248 175.802751 
L 130.16248 176.285854 
L 130.387748 176.285854 
L 130.387748 177.49361 
L 130.614036 177.49361 
L 130.614036 178.218263 
L 130.837438 178.218263 
L 130.837438 178.459815 
L 131.062647 178.459815 
L 131.062647 178.942917 
L 131.286948 178.942917 
L 131.286948 179.184468 
L 131.512809 179.184468 
L 131.512809 179.42602 
L 131.736233 179.42602 
L 131.736233 179.909122 
L 131.962161 179.909122 
L 131.962161 181.116878 
L 132.187535 181.116878 
L 132.187535 181.841532 
L 132.412084 181.841532 
L 132.412084 182.807737 
L 132.63637 182.807737 
L 132.63637 184.015493 
L 133.085461 184.015493 
L 133.085461 184.257044 
L 133.309688 184.257044 
L 133.309688 184.740146 
L 133.535391 184.740146 
L 133.535391 185.223249 
L 133.760936 185.223249 
L 133.760936 185.4648 
L 133.986205 185.4648 
L 133.986205 185.947902 
L 134.210252 185.947902 
L 134.210252 186.189454 
L 134.434216 186.189454 
L 134.434216 186.431005 
L 134.660151 186.431005 
L 134.660151 186.672556 
L 134.883988 186.672556 
L 134.883988 187.880312 
L 135.108575 187.880312 
L 135.108575 188.121863 
L 135.333596 188.121863 
L 135.333596 188.604966 
L 135.558437 188.604966 
L 135.558437 188.846517 
L 136.232212 188.846517 
L 136.232212 188.604966 
L 136.682531 188.604966 
L 136.682531 188.121863 
L 136.908204 188.121863 
L 136.908204 187.880312 
L 137.35629 187.880312 
L 137.35629 187.638761 
L 138.031653 187.638761 
L 138.031653 187.39721 
L 138.930854 187.39721 
L 138.930854 186.914107 
L 139.15511 186.914107 
L 139.15511 186.431005 
L 139.380304 186.431005 
L 139.380304 184.257044 
L 139.604733 184.257044 
L 139.604733 183.290839 
L 139.829971 183.290839 
L 139.829971 177.49361 
L 140.055659 177.49361 
L 140.055659 177.252059 
L 140.504188 177.252059 
L 140.504188 176.768956 
L 140.730355 176.768956 
L 140.730355 173.62879 
L 140.954275 173.62879 
L 140.954275 173.387239 
L 141.180435 173.387239 
L 141.180435 171.937932 
L 141.4038 171.937932 
L 141.4038 170.730176 
L 141.629735 170.730176 
L 141.629735 167.106907 
L 141.854172 167.106907 
L 141.854172 165.174498 
L 142.077747 165.174498 
L 142.077747 162.758985 
L 142.304012 162.758985 
L 142.304012 162.517434 
L 142.753717 162.517434 
L 142.753717 161.79278 
L 142.977779 161.79278 
L 142.977779 161.551229 
L 143.203144 161.551229 
L 143.203144 160.343473 
L 143.428023 160.343473 
L 143.428023 159.860371 
L 143.652033 159.860371 
L 143.652033 157.203307 
L 143.876949 157.203307 
L 143.876949 156.961756 
L 144.326009 156.961756 
L 144.326009 156.478654 
L 144.776651 156.478654 
L 144.776651 156.237102 
L 145.002579 156.237102 
L 145.002579 155.995551 
L 145.226378 155.995551 
L 145.226378 155.270898 
L 145.451722 155.270898 
L 145.451722 154.546244 
L 145.675372 154.546244 
L 145.675372 152.613834 
L 145.900917 152.613834 
L 145.900917 151.88918 
L 146.126036 151.88918 
L 146.126036 151.647629 
L 146.576835 151.647629 
L 146.576835 151.88918 
L 146.799136 151.88918 
L 146.799136 152.130732 
L 147.024352 152.130732 
L 147.024352 152.613834 
L 147.925035 152.613834 
L 147.925035 152.372283 
L 148.148992 152.372283 
L 148.148992 151.647629 
L 148.372927 151.647629 
L 148.372927 151.164527 
L 148.599687 151.164527 
L 148.599687 150.681424 
L 148.824101 150.681424 
L 148.824101 148.749015 
L 149.047848 148.749015 
L 149.047848 148.507463 
L 149.272779 148.507463 
L 149.272779 148.265912 
L 149.497815 148.265912 
L 149.497815 146.091951 
L 149.723353 146.091951 
L 149.723353 145.608849 
L 149.948142 145.608849 
L 149.948142 143.193337 
L 150.172953 143.193337 
L 150.172953 142.951785 
L 150.396618 142.951785 
L 150.396618 142.710234 
L 150.622321 142.710234 
L 150.622321 142.468683 
L 150.846398 142.468683 
L 150.846398 140.536273 
L 151.295923 140.536273 
L 151.295923 140.294722 
L 151.747756 140.294722 
L 151.747756 139.81162 
L 151.971316 139.81162 
L 151.971316 139.328517 
L 152.195685 139.328517 
L 152.195685 138.845415 
L 152.420324 138.845415 
L 152.420324 138.603863 
L 152.645937 138.603863 
L 152.645937 138.362312 
L 152.86943 138.362312 
L 152.86943 138.120761 
L 153.096137 138.120761 
L 153.096137 137.87921 
L 153.320289 137.87921 
L 153.320289 137.637659 
L 153.545242 137.637659 
L 153.545242 136.913005 
L 153.995637 136.913005 
L 153.995637 136.671454 
L 154.218724 136.671454 
L 154.218724 135.9468 
L 154.443685 135.9468 
L 154.443685 134.497493 
L 154.668032 134.497493 
L 154.668032 134.255941 
L 154.895759 134.255941 
L 154.895759 132.806634 
L 155.342893 132.806634 
L 155.342893 131.840429 
L 155.56972 131.840429 
L 155.56972 131.598878 
L 155.793048 131.598878 
L 155.793048 130.391122 
L 156.018309 130.391122 
L 156.018309 129.666468 
L 156.243839 129.666468 
L 156.243839 128.458712 
L 156.467624 128.458712 
L 156.467624 127.97561 
L 156.69203 127.97561 
L 156.69203 127.492507 
L 157.141196 127.492507 
L 157.141196 127.250956 
L 157.366914 127.250956 
L 157.366914 126.526302 
L 157.815929 126.526302 
L 157.815929 126.284751 
L 158.489824 126.284751 
L 158.489824 126.0432 
L 158.716966 126.0432 
L 158.716966 125.801649 
L 159.165524 125.801649 
L 159.165524 124.593893 
L 159.390103 124.593893 
L 159.390103 123.869239 
L 159.614824 123.869239 
L 159.614824 123.386137 
L 159.840018 123.386137 
L 159.840018 123.144585 
L 160.064184 123.144585 
L 160.064184 122.661483 
L 160.29015 122.661483 
L 160.29015 121.453727 
L 160.513762 121.453727 
L 160.513762 120.970624 
L 160.73972 120.970624 
L 160.73972 120.729073 
L 160.963879 120.729073 
L 160.963879 119.521317 
L 161.414708 119.521317 
L 161.414708 119.279766 
L 161.863222 119.279766 
L 161.863222 119.521317 
L 162.312402 119.521317 
L 162.312402 119.279766 
L 162.763606 119.279766 
L 162.763606 119.038215 
L 162.986791 119.038215 
L 162.986791 118.313561 
L 163.212224 118.313561 
L 163.212224 117.830459 
L 163.437598 117.830459 
L 163.437598 117.347356 
L 163.663818 117.347356 
L 163.663818 117.105805 
L 163.887835 117.105805 
L 163.887835 116.622702 
L 164.111784 116.622702 
L 164.111784 116.381151 
L 164.336311 116.381151 
L 164.336311 116.1396 
L 164.561272 116.1396 
L 164.561272 115.656498 
L 164.785993 115.656498 
L 164.785993 114.448741 
L 165.011202 114.448741 
L 165.011202 114.20719 
L 165.235428 114.20719 
L 165.235428 113.965639 
L 165.460412 113.965639 
L 165.460412 113.724088 
L 166.585165 113.724088 
L 166.585165 113.965639 
L 166.809047 113.965639 
L 166.809047 114.448741 
L 167.034585 114.448741 
L 167.034585 116.1396 
L 167.258797 116.1396 
L 167.258797 118.796663 
L 167.483151 118.796663 
L 167.483151 120.00442 
L 167.708922 120.00442 
L 167.708922 120.487522 
L 167.933246 120.487522 
L 167.933246 120.729073 
L 168.159743 120.729073 
L 168.159743 120.487522 
L 168.608219 120.487522 
L 168.608219 120.245971 
L 168.83411 120.245971 
L 168.83411 119.521317 
L 169.058202 119.521317 
L 169.058202 118.796663 
L 169.282998 118.796663 
L 169.282998 118.07201 
L 169.508326 118.07201 
L 169.508326 115.173395 
L 169.731826 115.173395 
L 169.731826 113.482537 
L 169.956989 113.482537 
L 169.956989 113.240985 
L 170.406155 113.240985 
L 170.406155 112.999434 
L 170.631551 112.999434 
L 170.631551 112.516332 
L 170.856257 112.516332 
L 170.856257 111.308576 
L 171.080971 111.308576 
L 171.080971 110.10082 
L 171.305737 110.10082 
L 171.305737 109.376166 
L 171.530953 109.376166 
L 171.530953 109.134615 
L 171.98182 109.134615 
L 171.98182 108.893063 
L 172.205754 108.893063 
L 172.205754 108.409961 
L 172.432514 108.409961 
L 172.432514 107.926859 
L 172.65474 107.926859 
L 172.65474 107.685307 
L 172.880668 107.685307 
L 172.880668 106.477551 
L 173.554674 106.477551 
L 173.554674 106.236 
L 174.903699 106.236 
L 174.903699 105.511346 
L 175.127911 105.511346 
L 175.127911 104.786693 
L 175.354206 104.786693 
L 175.354206 100.680322 
L 176.252934 100.680322 
L 176.252934 100.19722 
L 176.702804 100.19722 
L 176.702804 99.472566 
L 176.927128 99.472566 
L 176.927128 97.781707 
L 177.151317 97.781707 
L 177.151317 97.540156 
L 179.175331 97.540156 
L 179.175331 97.781707 
L 179.400397 97.781707 
L 179.400397 98.747912 
L 179.623949 98.747912 
L 179.623949 100.921873 
L 179.850424 100.921873 
L 179.850424 101.888078 
L 180.073841 101.888078 
L 180.073841 102.37118 
L 180.299327 102.37118 
L 180.299327 102.612732 
L 180.524993 102.612732 
L 180.524993 103.337385 
L 180.749699 103.337385 
L 180.749699 103.820488 
L 180.974848 103.820488 
L 180.974848 105.994449 
L 181.42501 105.994449 
L 181.42501 108.651512 
L 181.648457 108.651512 
L 181.648457 109.134615 
L 181.874168 109.134615 
L 181.874168 109.617717 
L 182.098529 109.617717 
L 182.098529 111.067024 
L 182.32436 111.067024 
L 182.32436 111.308576 
L 182.548054 111.308576 
L 182.548054 112.27478 
L 182.772768 112.27478 
L 182.772768 114.20719 
L 182.997722 114.20719 
L 182.997722 114.448741 
L 183.222398 114.448741 
L 183.222398 114.690293 
L 183.44706 114.690293 
L 183.44706 115.414946 
L 183.671856 115.414946 
L 183.671856 115.656498 
L 183.897004 115.656498 
L 183.897004 116.864254 
L 184.121381 116.864254 
L 184.121381 117.347356 
L 184.347286 117.347356 
L 184.347286 118.07201 
L 184.570194 118.07201 
L 184.570194 121.453727 
L 184.79586 121.453727 
L 184.79586 121.695278 
L 185.246337 121.695278 
L 185.246337 122.17838 
L 185.469874 122.17838 
L 185.469874 123.386137 
L 185.696499 123.386137 
L 185.696499 124.593893 
L 185.919729 124.593893 
L 185.919729 124.835444 
L 186.144195 124.835444 
L 186.144195 126.284751 
L 186.368789 126.284751 
L 186.368789 126.767854 
L 186.595527 126.767854 
L 186.595527 128.941815 
L 186.818164 128.941815 
L 186.818164 129.183366 
L 187.045374 129.183366 
L 187.045374 129.424917 
L 187.269398 129.424917 
L 187.269398 130.632673 
L 187.493962 130.632673 
L 187.493962 131.115776 
L 187.717657 131.115776 
L 187.717657 131.357327 
L 187.945218 131.357327 
L 187.945218 132.565083 
L 188.168621 132.565083 
L 188.168621 134.01439 
L 188.84313 134.01439 
L 188.84313 134.497493 
L 189.067446 134.497493 
L 189.067446 135.222146 
L 189.293277 135.222146 
L 189.293277 138.120761 
L 189.517758 138.120761 
L 189.517758 139.086966 
L 189.742929 139.086966 
L 189.742929 139.570068 
L 189.966504 139.570068 
L 189.966504 139.81162 
L 190.191982 139.81162 
L 190.191982 141.502478 
L 190.416846 141.502478 
L 190.416846 142.710234 
L 190.642144 142.710234 
L 190.642144 142.951785 
L 191.090058 142.951785 
L 191.090058 143.434888 
L 191.316383 143.434888 
L 191.316383 144.401093 
L 191.542581 144.401093 
L 191.542581 145.367298 
L 191.765354 145.367298 
L 191.765354 145.8504 
L 191.99084 145.8504 
L 191.99084 146.575054 
L 192.214886 146.575054 
L 192.214886 149.232117 
L 192.665056 149.232117 
L 192.665056 150.439873 
L 192.888736 150.439873 
L 192.888736 151.164527 
L 193.114079 151.164527 
L 193.114079 152.130732 
L 193.339093 152.130732 
L 193.339093 154.787795 
L 193.56281 154.787795 
L 193.56281 155.029346 
L 194.238735 155.029346 
L 194.238735 154.546244 
L 194.463231 154.546244 
L 194.463231 153.82159 
L 194.687773 153.82159 
L 194.687773 152.613834 
L 195.137643 152.613834 
L 195.137643 152.130732 
L 195.362012 152.130732 
L 195.362012 151.647629 
L 195.586673 151.647629 
L 195.586673 148.749015 
L 197.385351 148.749015 
L 197.385351 148.507463 
L 197.610777 148.507463 
L 197.610777 148.265912 
L 198.060354 148.265912 
L 198.060354 148.024361 
L 198.50922 148.024361 
L 198.50922 148.265912 
L 198.734698 148.265912 
L 198.734698 149.473668 
L 198.958895 149.473668 
L 198.958895 151.164527 
L 199.183976 151.164527 
L 199.183976 157.927961 
L 199.409769 157.927961 
L 199.409769 159.135717 
L 199.633846 159.135717 
L 199.633846 159.61882 
L 200.082944 159.61882 
L 200.082944 160.101922 
L 200.308324 160.101922 
L 200.308324 159.860371 
L 200.533495 159.860371 
L 200.533495 158.169512 
L 200.757715 158.169512 
L 200.757715 152.130732 
L 200.982616 152.130732 
L 200.982616 148.265912 
L 201.207367 148.265912 
L 201.207367 147.78281 
L 201.432943 147.78281 
L 201.432943 145.367298 
L 201.65702 145.367298 
L 201.65702 144.884195 
L 201.882101 144.884195 
L 201.882101 143.676439 
L 203.006412 143.676439 
L 203.006412 143.193337 
L 203.231598 143.193337 
L 203.231598 142.951785 
L 203.680801 142.951785 
L 203.680801 141.502478 
L 203.905762 141.502478 
L 203.905762 141.019376 
L 204.130596 141.019376 
L 204.130596 140.777824 
L 204.354957 140.777824 
L 204.354957 140.536273 
L 205.479905 140.536273 
L 205.479905 140.294722 
L 205.704619 140.294722 
L 205.704619 140.053171 
L 205.930547 140.053171 
L 205.930547 139.086966 
L 206.378394 139.086966 
L 206.378394 139.328517 
L 206.829223 139.328517 
L 206.829223 139.81162 
L 207.277586 139.81162 
L 207.277586 140.294722 
L 207.727568 140.294722 
L 207.727568 140.053171 
L 207.9525 140.053171 
L 207.9525 139.81162 
L 208.177026 139.81162 
L 208.177026 139.328517 
L 208.402002 139.328517 
L 208.402002 138.120761 
L 208.628582 138.120761 
L 208.628582 137.87921 
L 209.076451 137.87921 
L 209.076451 137.637659 
L 209.975441 137.637659 
L 209.975441 137.87921 
L 210.200462 137.87921 
L 210.200462 138.120761 
L 211.099565 138.120761 
L 211.099565 138.362312 
L 211.325456 138.362312 
L 211.325456 138.120761 
L 211.999057 138.120761 
L 211.999057 137.87921 
L 212.448635 137.87921 
L 212.448635 137.396107 
L 212.674031 137.396107 
L 212.674031 135.222146 
L 214.69755 135.222146 
L 214.69755 135.463698 
L 214.922458 135.463698 
L 214.922458 135.705249 
L 215.14673 135.705249 
L 215.14673 135.9468 
L 216.046567 135.9468 
L 216.046567 136.188351 
L 216.720701 136.188351 
L 216.720701 135.9468 
L 217.619444 135.9468 
L 217.619444 136.188351 
L 217.844832 136.188351 
L 217.844832 136.429902 
L 218.968379 136.429902 
L 218.968379 136.188351 
L 219.418714 136.188351 
L 219.418714 135.9468 
L 220.542688 135.9468 
L 220.542688 135.705249 
L 220.767229 135.705249 
L 220.767229 135.222146 
L 220.99261 135.222146 
L 220.99261 134.980595 
L 222.116606 134.980595 
L 222.116606 135.222146 
L 222.341005 135.222146 
L 222.341005 135.463698 
L 222.565989 135.463698 
L 222.565989 135.705249 
L 222.790913 135.705249 
L 222.790913 135.463698 
L 223.015582 135.463698 
L 223.015582 135.705249 
L 224.139675 135.705249 
L 224.139675 135.9468 
L 224.364644 135.9468 
L 224.364644 136.188351 
L 224.58983 136.188351 
L 224.58983 136.429902 
L 224.814334 136.429902 
L 224.814334 136.913005 
L 225.038935 136.913005 
L 225.038935 137.154556 
L 225.263882 137.154556 
L 225.263882 137.396107 
L 225.938083 137.396107 
L 225.938083 137.154556 
L 226.388238 137.154556 
L 226.388238 136.913005 
L 226.612577 136.913005 
L 226.612577 136.671454 
L 226.83771 136.671454 
L 226.83771 136.429902 
L 227.287992 136.429902 
L 227.287992 135.705249 
L 229.085913 135.705249 
L 229.085913 135.9468 
L 229.760602 135.9468 
L 229.760602 136.188351 
L 229.98548 136.188351 
L 229.98548 136.671454 
L 230.210561 136.671454 
L 230.210561 137.154556 
L 230.884636 137.154556 
L 230.884636 136.913005 
L 231.559129 136.913005 
L 231.559129 137.154556 
L 232.458801 137.154556 
L 232.458801 137.396107 
L 232.68359 137.396107 
L 232.68359 137.87921 
L 233.807519 137.87921 
L 233.807519 137.637659 
L 234.03317 137.637659 
L 234.03317 137.396107 
L 234.481803 137.396107 
L 234.481803 137.154556 
L 235.381116 137.154556 
L 235.381116 137.396107 
L 235.605837 137.396107 
L 235.605837 137.154556 
L 235.830791 137.154556 
L 235.830791 136.913005 
L 236.055475 136.913005 
L 236.055475 136.429902 
L 236.280226 136.429902 
L 236.280226 134.255941 
L 236.505554 134.255941 
L 236.505554 133.289737 
L 236.954667 133.289737 
L 236.954667 132.08198 
L 237.179343 132.08198 
L 237.179343 124.593893 
L 237.404747 124.593893 
L 237.404747 117.105805 
L 237.629858 117.105805 
L 237.629858 111.067024 
L 237.854085 111.067024 
L 237.854085 109.859268 
L 238.07978 109.859268 
L 238.07978 106.960654 
L 238.305236 106.960654 
L 238.305236 99.231015 
L 238.528706 99.231015 
L 238.528706 96.3324 
L 238.753922 96.3324 
L 238.753922 79.423815 
L 238.979362 79.423815 
L 238.979362 76.766751 
L 239.20272 76.766751 
L 239.20272 62.75678 
L 239.427778 62.75678 
L 239.427778 62.273678 
L 239.653526 62.273678 
L 239.653526 60.58282 
L 239.877191 60.58282 
L 239.877191 59.858166 
L 240.102355 59.858166 
L 240.102355 55.751795 
L 240.551985 55.751795 
L 240.551985 44.640439 
L 241.226471 44.640439 
L 241.226471 44.88199 
L 241.451552 44.88199 
L 241.451552 46.089746 
L 241.676356 46.089746 
L 241.676356 47.780605 
L 241.901279 47.780605 
L 241.901279 54.302488 
L 242.126795 54.302488 
L 242.126795 56.476449 
L 242.350752 56.476449 
L 242.350752 59.133512 
L 242.575136 59.133512 
L 242.575136 59.858166 
L 242.800397 59.858166 
L 242.800397 61.790576 
L 243.026625 61.790576 
L 243.026625 64.447639 
L 243.249405 64.447639 
L 243.249405 68.795561 
L 243.475438 68.795561 
L 243.475438 81.597776 
L 243.69938 81.597776 
L 243.69938 83.047083 
L 243.924566 83.047083 
L 243.924566 82.805532 
L 244.374293 82.805532 
L 244.374293 82.080878 
L 244.598842 82.080878 
L 244.598842 81.597776 
L 245.049012 81.597776 
L 245.049012 82.322429 
L 245.273246 82.322429 
L 245.273246 85.704146 
L 245.498132 85.704146 
L 245.498132 90.052068 
L 245.723663 90.052068 
L 245.723663 91.259824 
L 245.947935 91.259824 
L 245.947935 92.226029 
L 246.172918 92.226029 
L 246.172918 93.433785 
L 246.397865 93.433785 
L 246.397865 94.39999 
L 246.622841 94.39999 
L 246.622841 96.573951 
L 246.847704 96.573951 
L 246.847704 99.714117 
L 247.073153 99.714117 
L 247.073153 103.095834 
L 247.297327 103.095834 
L 247.297327 107.202205 
L 247.521531 107.202205 
L 247.521531 107.685307 
L 247.747309 107.685307 
L 247.747309 107.926859 
L 248.195763 107.926859 
L 248.195763 108.16841 
L 248.420844 108.16841 
L 248.420844 108.893063 
L 248.64624 108.893063 
L 248.64624 109.376166 
L 248.870466 109.376166 
L 248.870466 110.10082 
L 249.095555 110.10082 
L 249.095555 109.617717 
L 249.320209 109.617717 
L 249.320209 110.10082 
L 249.545237 110.10082 
L 249.545237 113.724088 
L 249.770483 113.724088 
L 249.770483 117.105805 
L 249.9945 117.105805 
L 249.9945 120.00442 
L 250.219881 120.00442 
L 250.219881 132.323532 
L 250.444437 132.323532 
L 250.444437 138.362312 
L 250.669863 138.362312 
L 250.669863 142.468683 
L 250.894307 142.468683 
L 250.894307 143.193337 
L 251.343623 143.193337 
L 251.343623 142.951785 
L 251.79347 142.951785 
L 251.79347 141.019376 
L 252.018738 141.019376 
L 252.018738 131.357327 
L 252.243145 131.357327 
L 252.243145 130.874224 
L 252.468009 130.874224 
L 252.468009 129.424917 
L 252.69279 129.424917 
L 252.69279 129.183366 
L 252.917616 129.183366 
L 252.917616 128.941815 
L 253.143027 128.941815 
L 253.143027 126.526302 
L 253.367246 126.526302 
L 253.367246 125.801649 
L 253.591833 125.801649 
L 253.591833 124.593893 
L 253.817446 124.593893 
L 253.817446 121.212176 
L 254.042242 121.212176 
L 254.042242 119.279766 
L 254.265989 119.279766 
L 254.265989 117.105805 
L 254.491123 117.105805 
L 254.491123 106.236 
L 254.941517 106.236 
L 254.941517 105.994449 
L 255.840238 105.994449 
L 255.840238 106.477551 
L 256.065274 106.477551 
L 256.065274 106.960654 
L 256.514956 106.960654 
L 256.514956 107.202205 
L 257.413991 107.202205 
L 257.413991 106.719102 
L 257.638788 106.719102 
L 257.638788 104.30359 
L 257.864873 104.30359 
L 257.864873 103.820488 
L 258.088605 103.820488 
L 258.088605 103.095834 
L 258.313214 103.095834 
L 258.313214 101.404976 
L 258.538123 101.404976 
L 258.538123 100.921873 
L 258.763166 100.921873 
L 258.763166 100.19722 
L 258.987948 100.19722 
L 258.987948 98.747912 
L 259.43733 98.747912 
L 259.43733 97.298605 
L 259.661902 97.298605 
L 259.661902 96.815502 
L 259.887155 96.815502 
L 259.887155 96.3324 
L 260.337205 96.3324 
L 260.337205 96.090849 
L 260.562009 96.090849 
L 260.562009 95.607746 
L 260.786445 95.607746 
L 260.786445 94.883093 
L 261.011564 94.883093 
L 261.011564 93.916888 
L 261.236323 93.916888 
L 261.236323 89.810517 
L 261.460879 89.810517 
L 261.460879 87.395005 
L 261.685346 87.395005 
L 261.685346 86.4288 
L 261.910412 86.4288 
L 261.910412 85.221044 
L 262.13547 85.221044 
L 262.13547 83.047083 
L 262.360409 83.047083 
L 262.360409 82.322429 
L 262.584928 82.322429 
L 262.584928 81.114673 
L 263.034798 81.114673 
L 263.034798 78.699161 
L 263.259489 78.699161 
L 263.259489 76.5252 
L 263.484233 76.5252 
L 263.484233 71.935727 
L 263.708939 71.935727 
L 263.708939 70.969522 
L 263.934028 70.969522 
L 263.934028 70.727971 
L 264.158554 70.727971 
L 264.158554 70.244868 
L 264.384063 70.244868 
L 264.384063 68.070907 
L 264.608739 68.070907 
L 264.608739 65.413844 
L 264.833153 65.413844 
L 264.833153 62.032127 
L 265.058234 62.032127 
L 265.058234 60.824371 
L 265.282498 60.824371 
L 265.282498 56.234898 
L 265.507647 56.234898 
L 265.507647 54.060937 
L 265.732488 54.060937 
L 265.732488 50.196117 
L 265.957622 50.196117 
L 265.957622 48.988361 
L 266.182088 48.988361 
L 266.182088 43.432683 
L 266.407229 43.432683 
L 266.407229 43.191132 
L 266.85626 43.191132 
L 266.85626 42.94958 
L 267.08173 42.94958 
L 267.08173 43.191132 
L 267.307066 43.191132 
L 267.307066 43.915785 
L 267.530948 43.915785 
L 267.530948 45.123541 
L 267.756584 45.123541 
L 267.756584 46.089746 
L 267.980856 46.089746 
L 267.980856 46.331298 
L 268.206124 46.331298 
L 268.206124 46.089746 
L 268.430695 46.089746 
L 268.430695 45.848195 
L 268.655297 45.848195 
L 268.655297 44.398888 
L 268.880026 44.398888 
L 268.880026 43.432683 
L 269.104927 43.432683 
L 269.104927 40.050966 
L 269.329895 40.050966 
L 269.329895 38.601659 
L 269.555007 38.601659 
L 269.555007 37.877005 
L 269.778903 37.877005 
L 269.778903 32.321327 
L 270.005416 32.321327 
L 270.005416 31.838224 
L 270.228594 31.838224 
L 270.228594 29.905815 
L 270.678508 29.905815 
L 270.678508 28.456507 
L 270.903559 28.456507 
L 270.903559 24.591688 
L 271.128895 24.591688 
L 271.128895 23.14238 
L 272.702619 23.14238 
L 272.702619 22.900829 
L 272.926951 22.900829 
L 272.926951 21.934624 
L 273.151747 21.934624 
L 273.151747 21.209971 
L 273.376483 21.209971 
L 273.376483 19.277561 
L 273.602112 19.277561 
L 273.602112 17.345151 
L 274.275683 17.345151 
L 274.275683 17.1036 
L 274.500607 17.1036 
L 274.500607 18.311356 
L 274.725463 18.311356 
L 274.725463 23.625483 
L 274.9502 23.625483 
L 274.9502 25.557893 
L 275.175603 25.557893 
L 275.175603 26.524098 
L 275.400047 26.524098 
L 275.400047 30.147366 
L 275.625218 30.147366 
L 275.625218 30.388917 
L 275.850434 30.388917 
L 275.850434 30.630468 
L 276.07526 30.630468 
L 276.07526 31.838224 
L 276.299652 31.838224 
L 276.299652 32.804429 
L 276.524568 32.804429 
L 276.524568 33.04598 
L 276.749409 33.04598 
L 276.749409 34.736839 
L 276.974513 34.736839 
L 276.974513 35.219941 
L 277.199122 35.219941 
L 277.199122 37.635454 
L 277.423753 37.635454 
L 277.423753 38.118556 
L 277.649014 38.118556 
L 277.649014 38.360107 
L 278.098876 38.360107 
L 278.098876 38.84321 
L 278.322639 38.84321 
L 278.322639 39.326312 
L 278.54772 39.326312 
L 278.54772 40.77562 
L 278.772179 40.77562 
L 278.772179 41.741824 
L 278.997395 41.741824 
L 278.997395 42.466478 
L 279.222888 42.466478 
L 279.222888 43.432683 
L 279.446425 43.432683 
L 279.446425 47.297502 
L 279.671349 47.297502 
L 279.671349 48.988361 
L 279.89625 48.988361 
L 279.89625 49.471463 
L 280.121466 49.471463 
L 280.121466 49.954566 
L 280.346067 49.954566 
L 280.346067 50.196117 
L 280.570669 50.196117 
L 280.570669 50.437668 
L 280.79578 50.437668 
L 280.79578 50.67922 
L 281.021445 50.67922 
L 281.021445 50.920771 
L 281.245807 50.920771 
L 281.245807 50.67922 
L 281.470393 50.67922 
L 281.470393 50.196117 
L 281.920263 50.196117 
L 281.920263 48.74681 
L 282.144752 48.74681 
L 282.144752 46.572849 
L 282.369594 46.572849 
L 282.369594 45.365093 
L 282.595049 45.365093 
L 282.595049 44.640439 
L 282.819516 44.640439 
L 282.819516 44.157337 
L 283.04369 44.157337 
L 283.04369 43.674234 
L 283.269558 43.674234 
L 283.269558 42.466478 
L 283.493987 42.466478 
L 283.493987 41.500273 
L 283.718701 41.500273 
L 283.718701 37.152351 
L 283.943048 37.152351 
L 283.943048 34.736839 
L 284.168706 34.736839 
L 284.168706 32.562878 
L 284.393435 32.562878 
L 284.393435 30.630468 
L 284.618718 30.630468 
L 284.618718 28.214956 
L 284.842353 28.214956 
L 284.842353 27.490302 
L 285.067644 27.490302 
L 285.067644 27.0072 
L 285.517071 27.0072 
L 285.517071 26.282546 
L 285.741673 26.282546 
L 285.741673 25.799444 
L 285.966784 25.799444 
L 285.966784 25.316341 
L 286.416496 25.316341 
L 286.416496 25.557893 
L 286.866981 25.557893 
L 286.866981 25.316341 
L 287.091447 25.316341 
L 287.091447 24.591688 
L 287.316933 24.591688 
L 287.316933 24.350137 
L 287.541744 24.350137 
L 287.541744 23.14238 
L 287.765394 23.14238 
L 287.765394 22.659278 
L 287.990422 22.659278 
L 287.990422 21.934624 
L 288.214859 21.934624 
L 288.214859 20.485317 
L 288.440337 20.485317 
L 288.440337 20.243766 
L 288.664564 20.243766 
L 288.664564 19.760663 
L 289.114157 19.760663 
L 289.114157 19.519112 
L 289.563794 19.519112 
L 289.563794 19.277561 
L 291.138552 19.277561 
L 291.138552 19.519112 
L 291.362929 19.519112 
L 291.362929 19.760663 
L 291.587598 19.760663 
L 291.587598 20.485317 
L 291.812761 20.485317 
L 291.812761 20.96842 
L 292.037198 20.96842 
L 292.037198 22.417727 
L 292.262758 22.417727 
L 292.262758 27.0072 
L 292.487045 27.0072 
L 292.487045 28.214956 
L 293.38632 28.214956 
L 293.38632 27.973405 
L 293.611551 27.973405 
L 293.611551 27.731854 
L 293.835643 27.731854 
L 293.835643 26.765649 
L 294.060387 26.765649 
L 294.060387 25.07479 
L 294.2854 25.07479 
L 294.2854 24.833239 
L 295.185005 24.833239 
L 295.185005 25.07479 
L 295.858907 25.07479 
L 295.858907 24.833239 
L 296.084692 24.833239 
L 296.084692 24.591688 
L 297.434212 24.591688 
L 297.434212 25.07479 
L 297.657367 25.07479 
L 297.657367 25.799444 
L 297.883257 25.799444 
L 297.883257 29.905815 
L 298.107312 29.905815 
L 298.107312 30.630468 
L 298.333285 30.630468 
L 298.333285 31.596673 
L 298.558516 31.596673 
L 298.558516 33.770634 
L 298.781933 33.770634 
L 298.781933 38.118556 
L 299.006744 38.118556 
L 299.006744 43.915785 
L 299.231668 43.915785 
L 299.231668 44.640439 
L 299.457079 44.640439 
L 299.457079 46.089746 
L 299.6815 46.089746 
L 299.6815 47.055951 
L 299.906596 47.055951 
L 299.906596 48.988361 
L 300.580408 48.988361 
L 300.580408 49.229912 
L 300.805414 49.229912 
L 300.805414 51.162322 
L 301.03054 51.162322 
L 301.03054 52.85318 
L 301.255516 52.85318 
L 301.255516 60.824371 
L 301.479698 60.824371 
L 301.479698 61.307473 
L 302.154274 61.307473 
L 302.154274 61.549024 
L 302.604309 61.549024 
L 302.604309 62.032127 
L 302.82897 62.032127 
L 302.82897 63.481434 
L 303.053617 63.481434 
L 303.053617 69.520215 
L 303.278511 69.520215 
L 303.278511 70.969522 
L 303.503779 70.969522 
L 303.503779 71.935727 
L 303.952959 71.935727 
L 303.952959 75.558995 
L 304.17792 75.558995 
L 304.17792 77.249854 
L 304.402724 77.249854 
L 304.402724 84.254839 
L 304.627333 84.254839 
L 304.627333 84.49639 
L 305.077233 84.49639 
L 305.077233 84.737941 
L 305.751352 84.737941 
L 305.751352 84.49639 
L 306.201207 84.49639 
L 306.201207 84.254839 
L 306.650717 84.254839 
L 306.650717 84.013288 
L 306.876135 84.013288 
L 306.876135 84.254839 
L 307.101621 84.254839 
L 307.101621 84.49639 
L 307.325578 84.49639 
L 307.325578 85.221044 
L 307.775695 85.221044 
L 307.775695 87.878107 
L 308.000072 87.878107 
L 308.000072 89.810517 
L 308.224973 89.810517 
L 308.224973 90.29362 
L 308.450024 90.29362 
L 308.450024 90.535171 
L 308.674888 90.535171 
L 308.674888 91.742927 
L 308.899332 91.742927 
L 308.899332 91.984478 
L 309.123693 91.984478 
L 309.123693 93.433785 
L 309.349704 93.433785 
L 309.349704 93.916888 
L 309.573436 93.916888 
L 309.573436 95.849298 
L 309.798614 95.849298 
L 309.798614 96.3324 
L 310.023935 96.3324 
L 310.023935 96.573951 
L 310.248649 96.573951 
L 310.248649 97.781707 
L 310.473018 97.781707 
L 310.473018 98.506361 
L 310.922371 98.506361 
L 310.922371 98.747912 
L 311.372743 98.747912 
L 311.372743 98.989463 
L 311.597389 98.989463 
L 311.597389 99.955668 
L 311.822141 99.955668 
L 311.822141 100.19722 
L 312.047641 100.19722 
L 312.047641 101.404976 
L 312.271883 101.404976 
L 312.271883 103.337385 
L 312.496387 103.337385 
L 312.496387 103.578937 
L 312.721138 103.578937 
L 312.721138 104.545141 
L 312.946759 104.545141 
L 312.946759 104.786693 
L 313.171158 104.786693 
L 313.171158 105.269795 
L 313.39555 105.269795 
L 313.39555 105.994449 
L 313.620518 105.994449 
L 313.620518 106.236 
L 314.070635 106.236 
L 314.070635 106.477551 
L 314.295484 106.477551 
L 314.295484 107.202205 
L 314.519853 107.202205 
L 314.519853 108.893063 
L 314.745586 108.893063 
L 314.745586 109.859268 
L 315.194669 109.859268 
L 315.194669 110.10082 
L 315.419983 110.10082 
L 315.419983 110.583922 
L 315.644697 110.583922 
L 315.644697 110.825473 
L 315.868683 110.825473 
L 315.868683 111.067024 
L 316.094289 111.067024 
L 316.094289 112.757883 
L 316.319085 112.757883 
L 316.319085 113.240985 
L 316.544047 113.240985 
L 316.544047 114.931844 
L 316.768071 114.931844 
L 316.768071 115.898049 
L 316.993437 115.898049 
L 316.993437 118.313561 
L 317.443247 118.313561 
L 317.443247 118.555112 
L 318.117636 118.555112 
L 318.117636 119.038215 
L 318.342784 119.038215 
L 318.342784 119.521317 
L 318.791462 119.521317 
L 318.791462 121.212176 
L 319.241377 121.212176 
L 319.241377 121.453727 
L 319.466473 121.453727 
L 319.466473 121.695278 
L 319.69079 121.695278 
L 319.69079 122.17838 
L 319.915256 122.17838 
L 319.915256 123.386137 
L 320.140757 123.386137 
L 320.140757 123.627688 
L 320.365666 123.627688 
L 320.365666 123.869239 
L 320.815168 123.869239 
L 320.815168 124.835444 
L 321.040384 124.835444 
L 321.040384 125.076995 
L 321.939157 125.076995 
L 321.939157 124.835444 
L 322.164531 124.835444 
L 322.164531 124.352341 
L 322.613426 124.352341 
L 322.613426 124.11079 
L 323.063116 124.11079 
L 323.063116 124.593893 
L 323.288197 124.593893 
L 323.288197 125.801649 
L 323.512611 125.801649 
L 323.512611 126.0432 
L 323.738157 126.0432 
L 323.738157 127.009405 
L 324.186903 127.009405 
L 324.186903 127.734059 
L 324.412598 127.734059 
L 324.412598 128.941815 
L 324.637612 128.941815 
L 324.637612 129.666468 
L 324.861816 129.666468 
L 324.861816 131.115776 
L 325.086583 131.115776 
L 325.086583 133.048185 
L 325.311469 133.048185 
L 325.311469 133.289737 
L 325.53646 133.289737 
L 325.53646 133.772839 
L 325.761324 133.772839 
L 325.761324 134.01439 
L 325.987214 134.01439 
L 325.987214 134.255941 
L 326.436035 134.255941 
L 326.436035 134.497493 
L 326.660486 134.497493 
L 326.660486 134.739044 
L 327.335212 134.739044 
L 327.335212 134.980595 
L 327.559986 134.980595 
L 327.559986 135.222146 
L 327.784722 135.222146 
L 327.784722 135.705249 
L 328.010028 135.705249 
L 328.010028 137.637659 
L 328.234735 137.637659 
L 328.234735 138.120761 
L 328.459156 138.120761 
L 328.459156 139.086966 
L 328.683983 139.086966 
L 328.683983 139.81162 
L 328.908696 139.81162 
L 328.908696 140.053171 
L 329.134407 140.053171 
L 329.134407 140.294722 
L 329.582883 140.294722 
L 329.582883 140.536273 
L 330.257579 140.536273 
L 330.257579 140.777824 
L 330.482608 140.777824 
L 330.482608 141.260927 
L 330.707839 141.260927 
L 330.707839 142.468683 
L 330.933002 142.468683 
L 330.933002 143.193337 
L 331.606304 143.193337 
L 331.606304 143.434888 
L 332.056242 143.434888 
L 332.056242 143.676439 
L 332.281412 143.676439 
L 332.281412 144.642644 
L 332.506186 144.642644 
L 332.506186 144.884195 
L 333.854379 144.884195 
L 333.854379 145.125746 
L 334.07967 145.125746 
L 334.07967 145.608849 
L 334.304422 145.608849 
L 334.304422 145.8504 
L 334.530185 145.8504 
L 334.530185 146.091951 
L 334.755108 146.091951 
L 334.755108 146.333502 
L 335.203749 146.333502 
L 335.203749 146.575054 
L 335.429265 146.575054 
L 335.429265 147.299707 
L 335.654398 147.299707 
L 335.654398 148.024361 
L 336.103998 148.024361 
L 336.103998 148.265912 
L 336.553329 148.265912 
L 336.553329 148.507463 
L 337.002367 148.507463 
L 337.002367 148.990566 
L 337.452821 148.990566 
L 337.452821 149.956771 
L 339.250862 149.956771 
L 339.250862 150.198322 
L 339.47634 150.198322 
L 339.47634 150.439873 
L 339.700199 150.439873 
L 339.700199 150.681424 
L 339.926577 150.681424 
L 339.926577 151.164527 
L 340.374963 151.164527 
L 340.374963 151.406078 
L 341.274882 151.406078 
L 341.274882 151.647629 
L 341.724003 151.647629 
L 341.724003 151.88918 
L 341.948327 151.88918 
L 341.948327 152.372283 
L 342.173146 152.372283 
L 342.173146 152.855385 
L 342.623757 152.855385 
L 342.623757 153.096937 
L 342.849033 153.096937 
L 342.849033 154.063141 
L 343.297389 154.063141 
L 343.297389 154.304693 
L 343.523662 154.304693 
L 343.523662 155.029346 
L 343.747064 155.029346 
L 343.747064 155.270898 
L 343.972453 155.270898 
L 343.972453 155.995551 
L 344.197586 155.995551 
L 344.197586 156.237102 
L 345.996579 156.237102 
L 345.996579 156.478654 
L 346.67069 156.478654 
L 346.67069 156.720205 
L 346.894917 156.720205 
L 346.894917 156.961756 
L 347.34427 156.961756 
L 347.34427 157.68641 
L 347.569268 157.68641 
L 347.569268 157.927961 
L 348.019348 157.927961 
L 348.019348 157.68641 
L 350.042192 157.68641 
L 350.042192 157.927961 
L 351.167208 157.927961 
L 351.167208 158.169512 
L 351.616553 158.169512 
L 351.616553 158.411063 
L 351.84063 158.411063 
L 351.84063 158.652615 
L 352.066588 158.652615 
L 352.066588 158.894166 
L 352.740122 158.894166 
L 352.740122 159.135717 
L 354.763828 159.135717 
L 354.763828 159.377268 
L 354.988999 159.377268 
L 354.988999 160.101922 
L 355.438375 160.101922 
L 355.438375 160.826576 
L 355.664018 160.826576 
L 355.664018 161.068127 
L 356.112441 161.068127 
L 356.112441 161.551229 
L 356.337477 161.551229 
L 356.337477 161.79278 
L 356.562266 161.79278 
L 356.562266 163.242088 
L 356.78713 163.242088 
L 356.78713 164.691395 
L 357.012548 164.691395 
L 357.012548 165.174498 
L 357.237135 165.174498 
L 357.237135 166.623805 
L 357.461848 166.623805 
L 357.461848 166.865356 
L 357.686697 166.865356 
L 357.686697 167.106907 
L 357.911606 167.106907 
L 357.911606 167.348459 
L 358.136095 167.348459 
L 358.136095 167.831561 
L 358.361341 167.831561 
L 358.361341 170.005522 
L 358.586152 170.005522 
L 358.586152 170.247073 
L 358.810649 170.247073 
L 358.810649 171.213278 
L 359.035003 171.213278 
L 359.035003 171.454829 
L 359.260443 171.454829 
L 359.260443 172.904137 
L 359.485989 172.904137 
L 359.485989 173.145688 
L 359.935477 173.145688 
L 359.935477 174.836546 
L 360.159059 174.836546 
L 360.159059 175.078098 
L 360.384949 175.078098 
L 360.384949 176.044302 
L 360.609386 176.044302 
L 360.609386 176.285854 
L 361.284906 176.285854 
L 361.284906 176.768956 
L 361.508751 176.768956 
L 361.508751 177.010507 
L 361.733802 177.010507 
L 361.733802 178.459815 
L 361.958523 178.459815 
L 361.958523 178.701366 
L 362.182548 178.701366 
L 362.182548 179.184468 
L 362.407531 179.184468 
L 362.407531 180.633776 
L 362.632665 180.633776 
L 362.632665 181.116878 
L 363.082093 181.116878 
L 363.082093 181.358429 
L 363.756639 181.358429 
L 363.756639 181.59998 
L 363.981675 181.59998 
L 363.981675 181.841532 
L 364.20776 181.841532 
L 364.20776 182.324634 
L 364.431672 182.324634 
L 364.431672 183.049288 
L 364.656483 183.049288 
L 364.656483 183.290839 
L 364.88137 183.290839 
L 364.88137 183.53239 
L 365.106188 183.53239 
L 365.106188 184.015493 
L 365.33091 184.015493 
L 365.33091 184.981698 
L 365.556261 184.981698 
L 365.556261 187.155659 
L 365.78054 187.155659 
L 365.78054 188.121863 
L 366.229833 188.121863 
L 366.229833 188.363415 
L 366.454629 188.363415 
L 366.454629 189.32962 
L 366.67929 189.32962 
L 366.67929 189.571171 
L 366.904724 189.571171 
L 366.904724 189.812722 
L 367.354946 189.812722 
L 367.354946 190.778927 
L 367.579112 190.778927 
L 367.579112 191.020478 
L 367.803511 191.020478 
L 367.803511 191.262029 
L 368.028637 191.262029 
L 368.028637 192.469785 
L 368.253651 192.469785 
L 368.253651 192.711337 
L 368.478335 192.711337 
L 368.478335 192.952888 
L 368.703176 192.952888 
L 368.703176 193.43599 
L 368.928609 193.43599 
L 368.928609 193.677541 
L 369.152664 193.677541 
L 369.152664 194.160644 
L 369.37767 194.160644 
L 369.37767 194.402195 
L 369.602519 194.402195 
L 369.602519 196.093054 
L 370.051954 196.093054 
L 370.051954 196.817707 
L 370.501531 196.817707 
L 370.501531 197.059259 
L 370.72605 197.059259 
L 370.72605 197.542361 
L 371.176033 197.542361 
L 371.176033 198.025463 
L 371.400372 198.025463 
L 371.400372 199.474771 
L 371.62552 199.474771 
L 371.62552 199.716322 
L 373.199776 199.716322 
L 373.199776 199.957873 
L 374.099224 199.957873 
L 374.099224 199.716322 
L 374.323975 199.716322 
L 374.323975 198.508566 
L 374.774632 198.508566 
L 374.774632 194.402195 
L 374.997742 194.402195 
L 374.997742 191.986683 
L 375.224007 191.986683 
L 375.224007 188.363415 
L 375.897024 188.363415 
L 375.897024 188.121863 
L 376.347374 188.121863 
L 376.347374 187.39721 
L 376.572747 187.39721 
L 376.572747 184.498595 
L 376.796322 184.498595 
L 376.796322 184.257044 
L 377.021201 184.257044 
L 377.021201 183.773941 
L 377.246289 183.773941 
L 377.246289 182.083083 
L 377.696032 182.083083 
L 377.696032 182.566185 
L 377.920731 182.566185 
L 377.920731 183.290839 
L 378.146479 183.290839 
L 378.146479 186.431005 
L 378.595089 186.431005 
L 378.595089 190.054273 
L 378.820088 190.054273 
L 378.820088 191.020478 
L 379.045214 191.020478 
L 379.045214 191.986683 
L 379.270467 191.986683 
L 379.270467 192.228234 
L 379.944369 192.228234 
L 379.944369 192.469785 
L 380.169008 192.469785 
L 380.169008 193.194439 
L 380.618601 193.194439 
L 380.618601 193.43599 
L 381.068845 193.43599 
L 381.068845 192.952888 
L 381.293739 192.952888 
L 381.293739 192.228234 
L 381.518093 192.228234 
L 381.518093 191.50358 
L 381.742702 191.50358 
L 381.742702 191.020478 
L 382.192902 191.020478 
L 382.192902 191.262029 
L 382.417338 191.262029 
L 382.417338 192.711337 
L 382.642074 192.711337 
L 382.642074 195.126849 
L 382.866901 195.126849 
L 382.866901 196.093054 
L 383.091839 196.093054 
L 383.091839 196.576156 
L 383.316628 196.576156 
L 383.316628 198.025463 
L 383.541447 198.025463 
L 383.541447 198.267015 
L 383.76664 198.267015 
L 383.76664 198.750117 
L 383.991497 198.750117 
L 383.991497 198.991668 
L 384.216053 198.991668 
L 384.216053 199.474771 
L 384.440917 199.474771 
L 384.440917 199.716322 
L 384.890682 199.716322 
L 384.890682 199.957873 
L 385.11631 199.957873 
L 385.11631 200.199424 
L 385.340896 200.199424 
L 385.340896 200.440976 
L 385.790182 200.440976 
L 385.790182 201.165629 
L 386.015023 201.165629 
L 386.015023 202.856488 
L 386.239227 202.856488 
L 386.239227 203.581141 
L 386.464458 203.581141 
L 386.464458 203.822693 
L 386.690041 203.822693 
L 386.690041 204.064244 
L 386.914013 204.064244 
L 386.914013 205.272 
L 387.138922 205.272 
L 387.138922 205.755102 
L 387.363628 205.755102 
L 387.363628 206.962859 
L 387.588305 206.962859 
L 387.588305 207.20441 
L 387.813296 207.20441 
L 387.813296 206.962859 
L 388.038759 206.962859 
L 388.038759 206.721307 
L 388.712346 206.721307 
L 388.712346 206.962859 
L 388.937442 206.962859 
L 388.937442 208.653717 
L 389.162253 208.653717 
L 389.162253 208.895268 
L 389.611359 208.895268 
L 389.611359 209.13682 
L 389.836537 209.13682 
L 389.836537 210.827678 
L 390.061378 210.827678 
L 390.061378 212.276985 
L 390.286152 212.276985 
L 390.286152 212.760088 
L 390.511968 212.760088 
L 390.511968 213.001639 
L 390.73582 213.001639 
L 390.73582 213.24319 
L 390.961163 213.24319 
L 390.961163 213.484741 
L 391.185675 213.484741 
L 391.185675 214.692498 
L 391.410913 214.692498 
L 391.410913 214.934049 
L 392.084852 214.934049 
L 392.084852 215.1756 
L 392.084852 215.1756 
" style="fill:none;stroke:#1f77b4;stroke-linecap:square;stroke-width:1.5;"/>
   </g>
   <g id="patch_3">
    <path d="M 53.328125 225.0792 
L 53.328125 7.2 
" style="fill:none;stroke:#000000;stroke-linecap:square;stroke-linejoin:miter;stroke-width:0.8;"/>
   </g>
   <g id="patch_4">
    <path d="M 408.216125 225.0792 
L 408.216125 7.2 
" style="fill:none;stroke:#000000;stroke-linecap:square;stroke-linejoin:miter;stroke-width:0.8;"/>
   </g>
   <g id="patch_5">
    <path d="M 53.328125 225.0792 
L 408.216125 225.0792 
" style="fill:none;stroke:#000000;stroke-linecap:square;stroke-linejoin:miter;stroke-width:0.8;"/>
   </g>
   <g id="patch_6">
    <path d="M 53.328125 7.2 
L 408.216125 7.2 
" style="fill:none;stroke:#000000;stroke-linecap:square;stroke-linejoin:miter;stroke-width:0.8;"/>
   </g>
  </g>
 </g>
 <defs>
  <clipPath id="p719610be54">
   <rect height="217.8792" width="354.888" x="53.328125" y="7.2"/>
  </clipPath>
 </defs>
</svg>
