<?xml version="1.0" encoding="utf-8" standalone="no"?>
<!DOCTYPE svg PUBLIC "-//W3C//DTD SVG 1.1//EN"
  "http://www.w3.org/Graphics/SVG/1.1/DTD/svg11.dtd">
<!-- Created with matplotlib (https://matplotlib.org/) -->
<svg height="248.957325pt" version="1.1" viewBox="0 0 402.691125 248.957325" width="402.691125pt" xmlns="http://www.w3.org/2000/svg" xmlns:xlink="http://www.w3.org/1999/xlink">
 <defs>
  <style type="text/css">
*{stroke-linecap:butt;stroke-linejoin:round;}
  </style>
 </defs>
 <g id="figure_1">
  <g id="patch_1">
   <path d="M 0 248.957325 
L 402.691125 248.957325 
L 402.691125 0 
L 0 0 
z
" style="fill:#ffffff;"/>
  </g>
  <g id="axes_1">
   <g id="patch_2">
    <path d="M 40.603125 225.0792 
L 395.491125 225.0792 
L 395.491125 7.2 
L 40.603125 7.2 
z
" style="fill:#ffffff;"/>
   </g>
   <g id="matplotlib.axis_1">
    <g id="xtick_1">
     <g id="line2d_1">
      <path clip-path="url(#pbbf8738e54)" d="M 56.660116 225.0792 
L 56.660116 7.2 
" style="fill:none;stroke:#b0b0b0;stroke-linecap:square;stroke-opacity:0.3;stroke-width:0.8;"/>
     </g>
     <g id="line2d_2">
      <defs>
       <path d="M 0 0 
L 0 3.5 
" id="md1ab255476" style="stroke:#000000;stroke-width:0.8;"/>
      </defs>
      <g>
       <use style="stroke:#000000;stroke-width:0.8;" x="56.660116" xlink:href="#md1ab255476" y="225.0792"/>
      </g>
     </g>
     <g id="text_1">
      <!-- 19. Nov -->
      <defs>
       <path d="M 12.40625 8.296875 
L 28.515625 8.296875 
L 28.515625 63.921875 
L 10.984375 60.40625 
L 10.984375 69.390625 
L 28.421875 72.90625 
L 38.28125 72.90625 
L 38.28125 8.296875 
L 54.390625 8.296875 
L 54.390625 0 
L 12.40625 0 
z
" id="DejaVuSans-49"/>
       <path d="M 10.984375 1.515625 
L 10.984375 10.5 
Q 14.703125 8.734375 18.5 7.8125 
Q 22.3125 6.890625 25.984375 6.890625 
Q 35.75 6.890625 40.890625 13.453125 
Q 46.046875 20.015625 46.78125 33.40625 
Q 43.953125 29.203125 39.59375 26.953125 
Q 35.25 24.703125 29.984375 24.703125 
Q 19.046875 24.703125 12.671875 31.3125 
Q 6.296875 37.9375 6.296875 49.421875 
Q 6.296875 60.640625 12.9375 67.421875 
Q 19.578125 74.21875 30.609375 74.21875 
Q 43.265625 74.21875 49.921875 64.515625 
Q 56.59375 54.828125 56.59375 36.375 
Q 56.59375 19.140625 48.40625 8.859375 
Q 40.234375 -1.421875 26.421875 -1.421875 
Q 22.703125 -1.421875 18.890625 -0.6875 
Q 15.09375 0.046875 10.984375 1.515625 
z
M 30.609375 32.421875 
Q 37.25 32.421875 41.125 36.953125 
Q 45.015625 41.5 45.015625 49.421875 
Q 45.015625 57.28125 41.125 61.84375 
Q 37.25 66.40625 30.609375 66.40625 
Q 23.96875 66.40625 20.09375 61.84375 
Q 16.21875 57.28125 16.21875 49.421875 
Q 16.21875 41.5 20.09375 36.953125 
Q 23.96875 32.421875 30.609375 32.421875 
z
" id="DejaVuSans-57"/>
       <path d="M 10.6875 12.40625 
L 21 12.40625 
L 21 0 
L 10.6875 0 
z
" id="DejaVuSans-46"/>
       <path id="DejaVuSans-32"/>
       <path d="M 9.8125 72.90625 
L 23.09375 72.90625 
L 55.421875 11.921875 
L 55.421875 72.90625 
L 64.984375 72.90625 
L 64.984375 0 
L 51.703125 0 
L 19.390625 60.984375 
L 19.390625 0 
L 9.8125 0 
z
" id="DejaVuSans-78"/>
       <path d="M 30.609375 48.390625 
Q 23.390625 48.390625 19.1875 42.75 
Q 14.984375 37.109375 14.984375 27.296875 
Q 14.984375 17.484375 19.15625 11.84375 
Q 23.34375 6.203125 30.609375 6.203125 
Q 37.796875 6.203125 41.984375 11.859375 
Q 46.1875 17.53125 46.1875 27.296875 
Q 46.1875 37.015625 41.984375 42.703125 
Q 37.796875 48.390625 30.609375 48.390625 
z
M 30.609375 56 
Q 42.328125 56 49.015625 48.375 
Q 55.71875 40.765625 55.71875 27.296875 
Q 55.71875 13.875 49.015625 6.21875 
Q 42.328125 -1.421875 30.609375 -1.421875 
Q 18.84375 -1.421875 12.171875 6.21875 
Q 5.515625 13.875 5.515625 27.296875 
Q 5.515625 40.765625 12.171875 48.375 
Q 18.84375 56 30.609375 56 
z
" id="DejaVuSans-111"/>
       <path d="M 2.984375 54.6875 
L 12.5 54.6875 
L 29.59375 8.796875 
L 46.6875 54.6875 
L 56.203125 54.6875 
L 35.6875 0 
L 23.484375 0 
z
" id="DejaVuSans-118"/>
      </defs>
      <g transform="translate(37.360116 239.677638)scale(0.1 -0.1)">
       <use xlink:href="#DejaVuSans-49"/>
       <use x="63.623047" xlink:href="#DejaVuSans-57"/>
       <use x="127.246094" xlink:href="#DejaVuSans-46"/>
       <use x="159.033203" xlink:href="#DejaVuSans-32"/>
       <use x="190.820312" xlink:href="#DejaVuSans-78"/>
       <use x="265.625" xlink:href="#DejaVuSans-111"/>
       <use x="326.806641" xlink:href="#DejaVuSans-118"/>
      </g>
     </g>
    </g>
    <g id="xtick_2">
     <g id="line2d_3">
      <path clip-path="url(#pbbf8738e54)" d="M 92.573701 225.0792 
L 92.573701 7.2 
" style="fill:none;stroke:#b0b0b0;stroke-linecap:square;stroke-opacity:0.3;stroke-width:0.8;"/>
     </g>
     <g id="line2d_4">
      <g>
       <use style="stroke:#000000;stroke-width:0.8;" x="92.573701" xlink:href="#md1ab255476" y="225.0792"/>
      </g>
     </g>
     <g id="text_2">
      <!-- 04:00 -->
      <defs>
       <path d="M 31.78125 66.40625 
Q 24.171875 66.40625 20.328125 58.90625 
Q 16.5 51.421875 16.5 36.375 
Q 16.5 21.390625 20.328125 13.890625 
Q 24.171875 6.390625 31.78125 6.390625 
Q 39.453125 6.390625 43.28125 13.890625 
Q 47.125 21.390625 47.125 36.375 
Q 47.125 51.421875 43.28125 58.90625 
Q 39.453125 66.40625 31.78125 66.40625 
z
M 31.78125 74.21875 
Q 44.046875 74.21875 50.515625 64.515625 
Q 56.984375 54.828125 56.984375 36.375 
Q 56.984375 17.96875 50.515625 8.265625 
Q 44.046875 -1.421875 31.78125 -1.421875 
Q 19.53125 -1.421875 13.0625 8.265625 
Q 6.59375 17.96875 6.59375 36.375 
Q 6.59375 54.828125 13.0625 64.515625 
Q 19.53125 74.21875 31.78125 74.21875 
z
" id="DejaVuSans-48"/>
       <path d="M 37.796875 64.3125 
L 12.890625 25.390625 
L 37.796875 25.390625 
z
M 35.203125 72.90625 
L 47.609375 72.90625 
L 47.609375 25.390625 
L 58.015625 25.390625 
L 58.015625 17.1875 
L 47.609375 17.1875 
L 47.609375 0 
L 37.796875 0 
L 37.796875 17.1875 
L 4.890625 17.1875 
L 4.890625 26.703125 
z
" id="DejaVuSans-52"/>
       <path d="M 11.71875 12.40625 
L 22.015625 12.40625 
L 22.015625 0 
L 11.71875 0 
z
M 11.71875 51.703125 
L 22.015625 51.703125 
L 22.015625 39.3125 
L 11.71875 39.3125 
z
" id="DejaVuSans-58"/>
      </defs>
      <g transform="translate(78.164326 239.677638)scale(0.1 -0.1)">
       <use xlink:href="#DejaVuSans-48"/>
       <use x="63.623047" xlink:href="#DejaVuSans-52"/>
       <use x="127.246094" xlink:href="#DejaVuSans-58"/>
       <use x="160.9375" xlink:href="#DejaVuSans-48"/>
       <use x="224.560547" xlink:href="#DejaVuSans-48"/>
      </g>
     </g>
    </g>
    <g id="xtick_3">
     <g id="line2d_5">
      <path clip-path="url(#pbbf8738e54)" d="M 128.487286 225.0792 
L 128.487286 7.2 
" style="fill:none;stroke:#b0b0b0;stroke-linecap:square;stroke-opacity:0.3;stroke-width:0.8;"/>
     </g>
     <g id="line2d_6">
      <g>
       <use style="stroke:#000000;stroke-width:0.8;" x="128.487286" xlink:href="#md1ab255476" y="225.0792"/>
      </g>
     </g>
     <g id="text_3">
      <!-- 08:00 -->
      <defs>
       <path d="M 31.78125 34.625 
Q 24.75 34.625 20.71875 30.859375 
Q 16.703125 27.09375 16.703125 20.515625 
Q 16.703125 13.921875 20.71875 10.15625 
Q 24.75 6.390625 31.78125 6.390625 
Q 38.8125 6.390625 42.859375 10.171875 
Q 46.921875 13.96875 46.921875 20.515625 
Q 46.921875 27.09375 42.890625 30.859375 
Q 38.875 34.625 31.78125 34.625 
z
M 21.921875 38.8125 
Q 15.578125 40.375 12.03125 44.71875 
Q 8.5 49.078125 8.5 55.328125 
Q 8.5 64.0625 14.71875 69.140625 
Q 20.953125 74.21875 31.78125 74.21875 
Q 42.671875 74.21875 48.875 69.140625 
Q 55.078125 64.0625 55.078125 55.328125 
Q 55.078125 49.078125 51.53125 44.71875 
Q 48 40.375 41.703125 38.8125 
Q 48.828125 37.15625 52.796875 32.3125 
Q 56.78125 27.484375 56.78125 20.515625 
Q 56.78125 9.90625 50.3125 4.234375 
Q 43.84375 -1.421875 31.78125 -1.421875 
Q 19.734375 -1.421875 13.25 4.234375 
Q 6.78125 9.90625 6.78125 20.515625 
Q 6.78125 27.484375 10.78125 32.3125 
Q 14.796875 37.15625 21.921875 38.8125 
z
M 18.3125 54.390625 
Q 18.3125 48.734375 21.84375 45.5625 
Q 25.390625 42.390625 31.78125 42.390625 
Q 38.140625 42.390625 41.71875 45.5625 
Q 45.3125 48.734375 45.3125 54.390625 
Q 45.3125 60.0625 41.71875 63.234375 
Q 38.140625 66.40625 31.78125 66.40625 
Q 25.390625 66.40625 21.84375 63.234375 
Q 18.3125 60.0625 18.3125 54.390625 
z
" id="DejaVuSans-56"/>
      </defs>
      <g transform="translate(114.077911 239.677638)scale(0.1 -0.1)">
       <use xlink:href="#DejaVuSans-48"/>
       <use x="63.623047" xlink:href="#DejaVuSans-56"/>
       <use x="127.246094" xlink:href="#DejaVuSans-58"/>
       <use x="160.9375" xlink:href="#DejaVuSans-48"/>
       <use x="224.560547" xlink:href="#DejaVuSans-48"/>
      </g>
     </g>
    </g>
    <g id="xtick_4">
     <g id="line2d_7">
      <path clip-path="url(#pbbf8738e54)" d="M 164.400871 225.0792 
L 164.400871 7.2 
" style="fill:none;stroke:#b0b0b0;stroke-linecap:square;stroke-opacity:0.3;stroke-width:0.8;"/>
     </g>
     <g id="line2d_8">
      <g>
       <use style="stroke:#000000;stroke-width:0.8;" x="164.400871" xlink:href="#md1ab255476" y="225.0792"/>
      </g>
     </g>
     <g id="text_4">
      <!-- 12:00 -->
      <defs>
       <path d="M 19.1875 8.296875 
L 53.609375 8.296875 
L 53.609375 0 
L 7.328125 0 
L 7.328125 8.296875 
Q 12.9375 14.109375 22.625 23.890625 
Q 32.328125 33.6875 34.8125 36.53125 
Q 39.546875 41.84375 41.421875 45.53125 
Q 43.3125 49.21875 43.3125 52.78125 
Q 43.3125 58.59375 39.234375 62.25 
Q 35.15625 65.921875 28.609375 65.921875 
Q 23.96875 65.921875 18.8125 64.3125 
Q 13.671875 62.703125 7.8125 59.421875 
L 7.8125 69.390625 
Q 13.765625 71.78125 18.9375 73 
Q 24.125 74.21875 28.421875 74.21875 
Q 39.75 74.21875 46.484375 68.546875 
Q 53.21875 62.890625 53.21875 53.421875 
Q 53.21875 48.921875 51.53125 44.890625 
Q 49.859375 40.875 45.40625 35.40625 
Q 44.1875 33.984375 37.640625 27.21875 
Q 31.109375 20.453125 19.1875 8.296875 
z
" id="DejaVuSans-50"/>
      </defs>
      <g transform="translate(149.991496 239.677638)scale(0.1 -0.1)">
       <use xlink:href="#DejaVuSans-49"/>
       <use x="63.623047" xlink:href="#DejaVuSans-50"/>
       <use x="127.246094" xlink:href="#DejaVuSans-58"/>
       <use x="160.9375" xlink:href="#DejaVuSans-48"/>
       <use x="224.560547" xlink:href="#DejaVuSans-48"/>
      </g>
     </g>
    </g>
    <g id="xtick_5">
     <g id="line2d_9">
      <path clip-path="url(#pbbf8738e54)" d="M 200.314456 225.0792 
L 200.314456 7.2 
" style="fill:none;stroke:#b0b0b0;stroke-linecap:square;stroke-opacity:0.3;stroke-width:0.8;"/>
     </g>
     <g id="line2d_10">
      <g>
       <use style="stroke:#000000;stroke-width:0.8;" x="200.314456" xlink:href="#md1ab255476" y="225.0792"/>
      </g>
     </g>
     <g id="text_5">
      <!-- 16:00 -->
      <defs>
       <path d="M 33.015625 40.375 
Q 26.375 40.375 22.484375 35.828125 
Q 18.609375 31.296875 18.609375 23.390625 
Q 18.609375 15.53125 22.484375 10.953125 
Q 26.375 6.390625 33.015625 6.390625 
Q 39.65625 6.390625 43.53125 10.953125 
Q 47.40625 15.53125 47.40625 23.390625 
Q 47.40625 31.296875 43.53125 35.828125 
Q 39.65625 40.375 33.015625 40.375 
z
M 52.59375 71.296875 
L 52.59375 62.3125 
Q 48.875 64.0625 45.09375 64.984375 
Q 41.3125 65.921875 37.59375 65.921875 
Q 27.828125 65.921875 22.671875 59.328125 
Q 17.53125 52.734375 16.796875 39.40625 
Q 19.671875 43.65625 24.015625 45.921875 
Q 28.375 48.1875 33.59375 48.1875 
Q 44.578125 48.1875 50.953125 41.515625 
Q 57.328125 34.859375 57.328125 23.390625 
Q 57.328125 12.15625 50.6875 5.359375 
Q 44.046875 -1.421875 33.015625 -1.421875 
Q 20.359375 -1.421875 13.671875 8.265625 
Q 6.984375 17.96875 6.984375 36.375 
Q 6.984375 53.65625 15.1875 63.9375 
Q 23.390625 74.21875 37.203125 74.21875 
Q 40.921875 74.21875 44.703125 73.484375 
Q 48.484375 72.75 52.59375 71.296875 
z
" id="DejaVuSans-54"/>
      </defs>
      <g transform="translate(185.905081 239.677638)scale(0.1 -0.1)">
       <use xlink:href="#DejaVuSans-49"/>
       <use x="63.623047" xlink:href="#DejaVuSans-54"/>
       <use x="127.246094" xlink:href="#DejaVuSans-58"/>
       <use x="160.9375" xlink:href="#DejaVuSans-48"/>
       <use x="224.560547" xlink:href="#DejaVuSans-48"/>
      </g>
     </g>
    </g>
    <g id="xtick_6">
     <g id="line2d_11">
      <path clip-path="url(#pbbf8738e54)" d="M 236.228041 225.0792 
L 236.228041 7.2 
" style="fill:none;stroke:#b0b0b0;stroke-linecap:square;stroke-opacity:0.3;stroke-width:0.8;"/>
     </g>
     <g id="line2d_12">
      <g>
       <use style="stroke:#000000;stroke-width:0.8;" x="236.228041" xlink:href="#md1ab255476" y="225.0792"/>
      </g>
     </g>
     <g id="text_6">
      <!-- 20:00 -->
      <g transform="translate(221.818666 239.677638)scale(0.1 -0.1)">
       <use xlink:href="#DejaVuSans-50"/>
       <use x="63.623047" xlink:href="#DejaVuSans-48"/>
       <use x="127.246094" xlink:href="#DejaVuSans-58"/>
       <use x="160.9375" xlink:href="#DejaVuSans-48"/>
       <use x="224.560547" xlink:href="#DejaVuSans-48"/>
      </g>
     </g>
    </g>
    <g id="xtick_7">
     <g id="line2d_13">
      <path clip-path="url(#pbbf8738e54)" d="M 272.141625 225.0792 
L 272.141625 7.2 
" style="fill:none;stroke:#b0b0b0;stroke-linecap:square;stroke-opacity:0.3;stroke-width:0.8;"/>
     </g>
     <g id="line2d_14">
      <g>
       <use style="stroke:#000000;stroke-width:0.8;" x="272.141625" xlink:href="#md1ab255476" y="225.0792"/>
      </g>
     </g>
     <g id="text_7">
      <!-- 20. Nov -->
      <g transform="translate(252.841625 239.677638)scale(0.1 -0.1)">
       <use xlink:href="#DejaVuSans-50"/>
       <use x="63.623047" xlink:href="#DejaVuSans-48"/>
       <use x="127.246094" xlink:href="#DejaVuSans-46"/>
       <use x="159.033203" xlink:href="#DejaVuSans-32"/>
       <use x="190.820312" xlink:href="#DejaVuSans-78"/>
       <use x="265.625" xlink:href="#DejaVuSans-111"/>
       <use x="326.806641" xlink:href="#DejaVuSans-118"/>
      </g>
     </g>
    </g>
    <g id="xtick_8">
     <g id="line2d_15">
      <path clip-path="url(#pbbf8738e54)" d="M 308.05521 225.0792 
L 308.05521 7.2 
" style="fill:none;stroke:#b0b0b0;stroke-linecap:square;stroke-opacity:0.3;stroke-width:0.8;"/>
     </g>
     <g id="line2d_16">
      <g>
       <use style="stroke:#000000;stroke-width:0.8;" x="308.05521" xlink:href="#md1ab255476" y="225.0792"/>
      </g>
     </g>
     <g id="text_8">
      <!-- 04:00 -->
      <g transform="translate(293.645835 239.677638)scale(0.1 -0.1)">
       <use xlink:href="#DejaVuSans-48"/>
       <use x="63.623047" xlink:href="#DejaVuSans-52"/>
       <use x="127.246094" xlink:href="#DejaVuSans-58"/>
       <use x="160.9375" xlink:href="#DejaVuSans-48"/>
       <use x="224.560547" xlink:href="#DejaVuSans-48"/>
      </g>
     </g>
    </g>
    <g id="xtick_9">
     <g id="line2d_17">
      <path clip-path="url(#pbbf8738e54)" d="M 343.968795 225.0792 
L 343.968795 7.2 
" style="fill:none;stroke:#b0b0b0;stroke-linecap:square;stroke-opacity:0.3;stroke-width:0.8;"/>
     </g>
     <g id="line2d_18">
      <g>
       <use style="stroke:#000000;stroke-width:0.8;" x="343.968795" xlink:href="#md1ab255476" y="225.0792"/>
      </g>
     </g>
     <g id="text_9">
      <!-- 08:00 -->
      <g transform="translate(329.55942 239.677638)scale(0.1 -0.1)">
       <use xlink:href="#DejaVuSans-48"/>
       <use x="63.623047" xlink:href="#DejaVuSans-56"/>
       <use x="127.246094" xlink:href="#DejaVuSans-58"/>
       <use x="160.9375" xlink:href="#DejaVuSans-48"/>
       <use x="224.560547" xlink:href="#DejaVuSans-48"/>
      </g>
     </g>
    </g>
    <g id="xtick_10">
     <g id="line2d_19">
      <path clip-path="url(#pbbf8738e54)" d="M 379.88238 225.0792 
L 379.88238 7.2 
" style="fill:none;stroke:#b0b0b0;stroke-linecap:square;stroke-opacity:0.3;stroke-width:0.8;"/>
     </g>
     <g id="line2d_20">
      <g>
       <use style="stroke:#000000;stroke-width:0.8;" x="379.88238" xlink:href="#md1ab255476" y="225.0792"/>
      </g>
     </g>
     <g id="text_10">
      <!-- 12:00 -->
      <g transform="translate(365.473005 239.677638)scale(0.1 -0.1)">
       <use xlink:href="#DejaVuSans-49"/>
       <use x="63.623047" xlink:href="#DejaVuSans-50"/>
       <use x="127.246094" xlink:href="#DejaVuSans-58"/>
       <use x="160.9375" xlink:href="#DejaVuSans-48"/>
       <use x="224.560547" xlink:href="#DejaVuSans-48"/>
      </g>
     </g>
    </g>
   </g>
   <g id="matplotlib.axis_2">
    <g id="ytick_1">
     <g id="line2d_21">
      <path clip-path="url(#pbbf8738e54)" d="M 40.603125 210.098166 
L 395.491125 210.098166 
" style="fill:none;stroke:#b0b0b0;stroke-linecap:square;stroke-opacity:0.3;stroke-width:0.8;"/>
     </g>
     <g id="line2d_22">
      <defs>
       <path d="M 0 0 
L -3.5 0 
" id="m8886e54a07" style="stroke:#000000;stroke-width:0.8;"/>
      </defs>
      <g>
       <use style="stroke:#000000;stroke-width:0.8;" x="40.603125" xlink:href="#m8886e54a07" y="210.098166"/>
      </g>
     </g>
     <g id="text_11">
      <!-- 25 -->
      <defs>
       <path d="M 10.796875 72.90625 
L 49.515625 72.90625 
L 49.515625 64.59375 
L 19.828125 64.59375 
L 19.828125 46.734375 
Q 21.96875 47.46875 24.109375 47.828125 
Q 26.265625 48.1875 28.421875 48.1875 
Q 40.625 48.1875 47.75 41.5 
Q 54.890625 34.8125 54.890625 23.390625 
Q 54.890625 11.625 47.5625 5.09375 
Q 40.234375 -1.421875 26.90625 -1.421875 
Q 22.3125 -1.421875 17.546875 -0.640625 
Q 12.796875 0.140625 7.71875 1.703125 
L 7.71875 11.625 
Q 12.109375 9.234375 16.796875 8.0625 
Q 21.484375 6.890625 26.703125 6.890625 
Q 35.15625 6.890625 40.078125 11.328125 
Q 45.015625 15.765625 45.015625 23.390625 
Q 45.015625 31 40.078125 35.4375 
Q 35.15625 39.890625 26.703125 39.890625 
Q 22.75 39.890625 18.8125 39.015625 
Q 14.890625 38.140625 10.796875 36.28125 
z
" id="DejaVuSans-53"/>
      </defs>
      <g transform="translate(20.878125 213.897384)scale(0.1 -0.1)">
       <use xlink:href="#DejaVuSans-50"/>
       <use x="63.623047" xlink:href="#DejaVuSans-53"/>
      </g>
     </g>
    </g>
    <g id="ytick_2">
     <g id="line2d_23">
      <path clip-path="url(#pbbf8738e54)" d="M 40.603125 178.852415 
L 395.491125 178.852415 
" style="fill:none;stroke:#b0b0b0;stroke-linecap:square;stroke-opacity:0.3;stroke-width:0.8;"/>
     </g>
     <g id="line2d_24">
      <g>
       <use style="stroke:#000000;stroke-width:0.8;" x="40.603125" xlink:href="#m8886e54a07" y="178.852415"/>
      </g>
     </g>
     <g id="text_12">
      <!-- 30 -->
      <defs>
       <path d="M 40.578125 39.3125 
Q 47.65625 37.796875 51.625 33 
Q 55.609375 28.21875 55.609375 21.1875 
Q 55.609375 10.40625 48.1875 4.484375 
Q 40.765625 -1.421875 27.09375 -1.421875 
Q 22.515625 -1.421875 17.65625 -0.515625 
Q 12.796875 0.390625 7.625 2.203125 
L 7.625 11.71875 
Q 11.71875 9.328125 16.59375 8.109375 
Q 21.484375 6.890625 26.8125 6.890625 
Q 36.078125 6.890625 40.9375 10.546875 
Q 45.796875 14.203125 45.796875 21.1875 
Q 45.796875 27.640625 41.28125 31.265625 
Q 36.765625 34.90625 28.71875 34.90625 
L 20.21875 34.90625 
L 20.21875 43.015625 
L 29.109375 43.015625 
Q 36.375 43.015625 40.234375 45.921875 
Q 44.09375 48.828125 44.09375 54.296875 
Q 44.09375 59.90625 40.109375 62.90625 
Q 36.140625 65.921875 28.71875 65.921875 
Q 24.65625 65.921875 20.015625 65.03125 
Q 15.375 64.15625 9.8125 62.3125 
L 9.8125 71.09375 
Q 15.4375 72.65625 20.34375 73.4375 
Q 25.25 74.21875 29.59375 74.21875 
Q 40.828125 74.21875 47.359375 69.109375 
Q 53.90625 64.015625 53.90625 55.328125 
Q 53.90625 49.265625 50.4375 45.09375 
Q 46.96875 40.921875 40.578125 39.3125 
z
" id="DejaVuSans-51"/>
      </defs>
      <g transform="translate(20.878125 182.651634)scale(0.1 -0.1)">
       <use xlink:href="#DejaVuSans-51"/>
       <use x="63.623047" xlink:href="#DejaVuSans-48"/>
      </g>
     </g>
    </g>
    <g id="ytick_3">
     <g id="line2d_25">
      <path clip-path="url(#pbbf8738e54)" d="M 40.603125 147.606664 
L 395.491125 147.606664 
" style="fill:none;stroke:#b0b0b0;stroke-linecap:square;stroke-opacity:0.3;stroke-width:0.8;"/>
     </g>
     <g id="line2d_26">
      <g>
       <use style="stroke:#000000;stroke-width:0.8;" x="40.603125" xlink:href="#m8886e54a07" y="147.606664"/>
      </g>
     </g>
     <g id="text_13">
      <!-- 35 -->
      <g transform="translate(20.878125 151.405883)scale(0.1 -0.1)">
       <use xlink:href="#DejaVuSans-51"/>
       <use x="63.623047" xlink:href="#DejaVuSans-53"/>
      </g>
     </g>
    </g>
    <g id="ytick_4">
     <g id="line2d_27">
      <path clip-path="url(#pbbf8738e54)" d="M 40.603125 116.360914 
L 395.491125 116.360914 
" style="fill:none;stroke:#b0b0b0;stroke-linecap:square;stroke-opacity:0.3;stroke-width:0.8;"/>
     </g>
     <g id="line2d_28">
      <g>
       <use style="stroke:#000000;stroke-width:0.8;" x="40.603125" xlink:href="#m8886e54a07" y="116.360914"/>
      </g>
     </g>
     <g id="text_14">
      <!-- 40 -->
      <g transform="translate(20.878125 120.160132)scale(0.1 -0.1)">
       <use xlink:href="#DejaVuSans-52"/>
       <use x="63.623047" xlink:href="#DejaVuSans-48"/>
      </g>
     </g>
    </g>
    <g id="ytick_5">
     <g id="line2d_29">
      <path clip-path="url(#pbbf8738e54)" d="M 40.603125 85.115163 
L 395.491125 85.115163 
" style="fill:none;stroke:#b0b0b0;stroke-linecap:square;stroke-opacity:0.3;stroke-width:0.8;"/>
     </g>
     <g id="line2d_30">
      <g>
       <use style="stroke:#000000;stroke-width:0.8;" x="40.603125" xlink:href="#m8886e54a07" y="85.115163"/>
      </g>
     </g>
     <g id="text_15">
      <!-- 45 -->
      <g transform="translate(20.878125 88.914382)scale(0.1 -0.1)">
       <use xlink:href="#DejaVuSans-52"/>
       <use x="63.623047" xlink:href="#DejaVuSans-53"/>
      </g>
     </g>
    </g>
    <g id="ytick_6">
     <g id="line2d_31">
      <path clip-path="url(#pbbf8738e54)" d="M 40.603125 53.869412 
L 395.491125 53.869412 
" style="fill:none;stroke:#b0b0b0;stroke-linecap:square;stroke-opacity:0.3;stroke-width:0.8;"/>
     </g>
     <g id="line2d_32">
      <g>
       <use style="stroke:#000000;stroke-width:0.8;" x="40.603125" xlink:href="#m8886e54a07" y="53.869412"/>
      </g>
     </g>
     <g id="text_16">
      <!-- 50 -->
      <g transform="translate(20.878125 57.668631)scale(0.1 -0.1)">
       <use xlink:href="#DejaVuSans-53"/>
       <use x="63.623047" xlink:href="#DejaVuSans-48"/>
      </g>
     </g>
    </g>
    <g id="ytick_7">
     <g id="line2d_33">
      <path clip-path="url(#pbbf8738e54)" d="M 40.603125 22.623662 
L 395.491125 22.623662 
" style="fill:none;stroke:#b0b0b0;stroke-linecap:square;stroke-opacity:0.3;stroke-width:0.8;"/>
     </g>
     <g id="line2d_34">
      <g>
       <use style="stroke:#000000;stroke-width:0.8;" x="40.603125" xlink:href="#m8886e54a07" y="22.623662"/>
      </g>
     </g>
     <g id="text_17">
      <!-- 55 -->
      <g transform="translate(20.878125 26.422881)scale(0.1 -0.1)">
       <use xlink:href="#DejaVuSans-53"/>
       <use x="63.623047" xlink:href="#DejaVuSans-53"/>
      </g>
     </g>
    </g>
    <g id="text_18">
     <!-- Temperature -->
     <defs>
      <path d="M -0.296875 72.90625 
L 61.375 72.90625 
L 61.375 64.59375 
L 35.5 64.59375 
L 35.5 0 
L 25.59375 0 
L 25.59375 64.59375 
L -0.296875 64.59375 
z
" id="DejaVuSans-84"/>
      <path d="M 56.203125 29.59375 
L 56.203125 25.203125 
L 14.890625 25.203125 
Q 15.484375 15.921875 20.484375 11.0625 
Q 25.484375 6.203125 34.421875 6.203125 
Q 39.59375 6.203125 44.453125 7.46875 
Q 49.3125 8.734375 54.109375 11.28125 
L 54.109375 2.78125 
Q 49.265625 0.734375 44.1875 -0.34375 
Q 39.109375 -1.421875 33.890625 -1.421875 
Q 20.796875 -1.421875 13.15625 6.1875 
Q 5.515625 13.8125 5.515625 26.8125 
Q 5.515625 40.234375 12.765625 48.109375 
Q 20.015625 56 32.328125 56 
Q 43.359375 56 49.78125 48.890625 
Q 56.203125 41.796875 56.203125 29.59375 
z
M 47.21875 32.234375 
Q 47.125 39.59375 43.09375 43.984375 
Q 39.0625 48.390625 32.421875 48.390625 
Q 24.90625 48.390625 20.390625 44.140625 
Q 15.875 39.890625 15.1875 32.171875 
z
" id="DejaVuSans-101"/>
      <path d="M 52 44.1875 
Q 55.375 50.25 60.0625 53.125 
Q 64.75 56 71.09375 56 
Q 79.640625 56 84.28125 50.015625 
Q 88.921875 44.046875 88.921875 33.015625 
L 88.921875 0 
L 79.890625 0 
L 79.890625 32.71875 
Q 79.890625 40.578125 77.09375 44.375 
Q 74.3125 48.1875 68.609375 48.1875 
Q 61.625 48.1875 57.5625 43.546875 
Q 53.515625 38.921875 53.515625 30.90625 
L 53.515625 0 
L 44.484375 0 
L 44.484375 32.71875 
Q 44.484375 40.625 41.703125 44.40625 
Q 38.921875 48.1875 33.109375 48.1875 
Q 26.21875 48.1875 22.15625 43.53125 
Q 18.109375 38.875 18.109375 30.90625 
L 18.109375 0 
L 9.078125 0 
L 9.078125 54.6875 
L 18.109375 54.6875 
L 18.109375 46.1875 
Q 21.1875 51.21875 25.484375 53.609375 
Q 29.78125 56 35.6875 56 
Q 41.65625 56 45.828125 52.96875 
Q 50 49.953125 52 44.1875 
z
" id="DejaVuSans-109"/>
      <path d="M 18.109375 8.203125 
L 18.109375 -20.796875 
L 9.078125 -20.796875 
L 9.078125 54.6875 
L 18.109375 54.6875 
L 18.109375 46.390625 
Q 20.953125 51.265625 25.265625 53.625 
Q 29.59375 56 35.59375 56 
Q 45.5625 56 51.78125 48.09375 
Q 58.015625 40.1875 58.015625 27.296875 
Q 58.015625 14.40625 51.78125 6.484375 
Q 45.5625 -1.421875 35.59375 -1.421875 
Q 29.59375 -1.421875 25.265625 0.953125 
Q 20.953125 3.328125 18.109375 8.203125 
z
M 48.6875 27.296875 
Q 48.6875 37.203125 44.609375 42.84375 
Q 40.53125 48.484375 33.40625 48.484375 
Q 26.265625 48.484375 22.1875 42.84375 
Q 18.109375 37.203125 18.109375 27.296875 
Q 18.109375 17.390625 22.1875 11.75 
Q 26.265625 6.109375 33.40625 6.109375 
Q 40.53125 6.109375 44.609375 11.75 
Q 48.6875 17.390625 48.6875 27.296875 
z
" id="DejaVuSans-112"/>
      <path d="M 41.109375 46.296875 
Q 39.59375 47.171875 37.8125 47.578125 
Q 36.03125 48 33.890625 48 
Q 26.265625 48 22.1875 43.046875 
Q 18.109375 38.09375 18.109375 28.8125 
L 18.109375 0 
L 9.078125 0 
L 9.078125 54.6875 
L 18.109375 54.6875 
L 18.109375 46.1875 
Q 20.953125 51.171875 25.484375 53.578125 
Q 30.03125 56 36.53125 56 
Q 37.453125 56 38.578125 55.875 
Q 39.703125 55.765625 41.0625 55.515625 
z
" id="DejaVuSans-114"/>
      <path d="M 34.28125 27.484375 
Q 23.390625 27.484375 19.1875 25 
Q 14.984375 22.515625 14.984375 16.5 
Q 14.984375 11.71875 18.140625 8.90625 
Q 21.296875 6.109375 26.703125 6.109375 
Q 34.1875 6.109375 38.703125 11.40625 
Q 43.21875 16.703125 43.21875 25.484375 
L 43.21875 27.484375 
z
M 52.203125 31.203125 
L 52.203125 0 
L 43.21875 0 
L 43.21875 8.296875 
Q 40.140625 3.328125 35.546875 0.953125 
Q 30.953125 -1.421875 24.3125 -1.421875 
Q 15.921875 -1.421875 10.953125 3.296875 
Q 6 8.015625 6 15.921875 
Q 6 25.140625 12.171875 29.828125 
Q 18.359375 34.515625 30.609375 34.515625 
L 43.21875 34.515625 
L 43.21875 35.40625 
Q 43.21875 41.609375 39.140625 45 
Q 35.0625 48.390625 27.6875 48.390625 
Q 23 48.390625 18.546875 47.265625 
Q 14.109375 46.140625 10.015625 43.890625 
L 10.015625 52.203125 
Q 14.9375 54.109375 19.578125 55.046875 
Q 24.21875 56 28.609375 56 
Q 40.484375 56 46.34375 49.84375 
Q 52.203125 43.703125 52.203125 31.203125 
z
" id="DejaVuSans-97"/>
      <path d="M 18.3125 70.21875 
L 18.3125 54.6875 
L 36.8125 54.6875 
L 36.8125 47.703125 
L 18.3125 47.703125 
L 18.3125 18.015625 
Q 18.3125 11.328125 20.140625 9.421875 
Q 21.96875 7.515625 27.59375 7.515625 
L 36.8125 7.515625 
L 36.8125 0 
L 27.59375 0 
Q 17.1875 0 13.234375 3.875 
Q 9.28125 7.765625 9.28125 18.015625 
L 9.28125 47.703125 
L 2.6875 47.703125 
L 2.6875 54.6875 
L 9.28125 54.6875 
L 9.28125 70.21875 
z
" id="DejaVuSans-116"/>
      <path d="M 8.5 21.578125 
L 8.5 54.6875 
L 17.484375 54.6875 
L 17.484375 21.921875 
Q 17.484375 14.15625 20.5 10.265625 
Q 23.53125 6.390625 29.59375 6.390625 
Q 36.859375 6.390625 41.078125 11.03125 
Q 45.3125 15.671875 45.3125 23.6875 
L 45.3125 54.6875 
L 54.296875 54.6875 
L 54.296875 0 
L 45.3125 0 
L 45.3125 8.40625 
Q 42.046875 3.421875 37.71875 1 
Q 33.40625 -1.421875 27.6875 -1.421875 
Q 18.265625 -1.421875 13.375 4.4375 
Q 8.5 10.296875 8.5 21.578125 
z
M 31.109375 56 
z
" id="DejaVuSans-117"/>
     </defs>
     <g transform="translate(14.798438 148.756788)rotate(-90)scale(0.1 -0.1)">
      <use xlink:href="#DejaVuSans-84"/>
      <use x="60.818359" xlink:href="#DejaVuSans-101"/>
      <use x="122.341797" xlink:href="#DejaVuSans-109"/>
      <use x="219.753906" xlink:href="#DejaVuSans-112"/>
      <use x="283.230469" xlink:href="#DejaVuSans-101"/>
      <use x="344.753906" xlink:href="#DejaVuSans-114"/>
      <use x="385.867188" xlink:href="#DejaVuSans-97"/>
      <use x="447.146484" xlink:href="#DejaVuSans-116"/>
      <use x="486.355469" xlink:href="#DejaVuSans-117"/>
      <use x="549.734375" xlink:href="#DejaVuSans-114"/>
      <use x="590.816406" xlink:href="#DejaVuSans-101"/>
     </g>
    </g>
   </g>
   <g id="line2d_35">
    <path clip-path="url(#pbbf8738e54)" d="M 56.734398 121.321177 
L 57.634001 121.321177 
L 57.634001 120.735319 
L 58.520789 120.735319 
L 58.520789 119.368317 
L 59.427889 119.368317 
L 59.427889 120.793892 
L 60.774836 120.793892 
L 60.774836 118.860574 
L 62.719973 118.860574 
L 62.719973 117.102988 
L 63.973656 117.102988 
L 63.973656 119.251146 
L 64.425449 119.251146 
L 64.425449 117.727915 
L 66.909871 117.727915 
L 66.909871 116.263271 
L 67.454373 116.263271 
L 67.454373 118.489512 
L 71.577679 118.489512 
L 71.577679 115.970342 
L 71.878254 115.970342 
L 71.878254 117.142057 
L 72.47831 117.142057 
L 72.47831 115.032982 
L 72.828689 115.032982 
L 72.828689 116.282818 
L 75.291403 116.282818 
L 75.291403 115.892227 
L 75.884394 115.892227 
L 75.884394 114.115125 
L 80.078245 114.115125 
L 80.078245 112.787168 
L 80.676828 112.787168 
L 80.676828 111.439695 
L 81.032601 111.439695 
L 81.032601 109.975051 
L 81.33343 109.975051 
L 81.33343 112.318482 
L 82.622254 112.318482 
L 82.622254 107.338703 
L 83.220691 107.338703 
L 83.220691 108.451833 
L 84.268144 108.451833 
L 84.268144 108.861952 
L 84.707891 108.861952 
L 84.707891 107.533977 
L 85.933773 107.533977 
L 85.933773 106.245114 
L 86.683412 106.245114 
L 86.683412 108.393247 
L 87.58494 108.393247 
L 87.58494 107.963618 
L 88.161655 107.963618 
L 88.161655 111.400669 
L 88.757409 111.400669 
L 88.757409 113.353529 
L 89.047336 113.353529 
L 89.047336 114.642397 
L 89.804911 114.642397 
L 89.804911 116.575722 
L 90.357741 116.575722 
L 90.357741 119.915118 
L 91.107255 119.915118 
L 91.107255 121.731277 
L 92.049345 121.731277 
L 92.049345 118.723867 
L 93.546216 118.723867 
L 93.546216 113.841744 
L 94.144305 113.841744 
L 94.144305 112.103693 
L 94.743116 112.103693 
L 94.743116 113.900311 
L 95.332211 113.900311 
L 95.332211 115.540713 
L 97.286838 115.540713 
L 97.286838 114.134654 
L 97.629491 114.134654 
L 97.629491 108.237 
L 98.03507 108.237 
L 98.03507 106.206045 
L 98.633695 106.206045 
L 98.633695 104.370357 
L 99.22285 104.370357 
L 99.22285 102.983827 
L 99.522149 102.983827 
L 99.522149 104.409414 
L 100.284059 104.409414 
L 100.284059 102.82761 
L 101.033715 102.82761 
L 101.033715 101.265323 
L 101.184532 101.265323 
L 101.184532 102.866636 
L 101.636477 102.866636 
L 101.636477 101.538729 
L 101.787344 101.538729 
L 101.787344 100.191238 
L 102.038535 100.191238 
L 102.038535 49.29974 
L 102.339246 49.29974 
L 102.339246 66.641094 
L 102.58885 66.641094 
L 102.58885 51.115862 
L 102.739802 51.115862 
L 102.739802 57.423629 
L 103.122723 57.423629 
L 103.122723 54.318558 
L 103.871132 54.318558 
L 103.871132 57.970417 
L 104.31991 57.970417 
L 104.31991 47.737434 
L 105.217795 47.737434 
L 105.217795 42.757636 
L 106.170071 42.757636 
L 106.170071 42.48423 
L 106.470887 42.48423 
L 106.470887 43.929377 
L 107.163089 43.929377 
L 107.163089 39.301062 
L 107.612001 39.301062 
L 107.612001 36.039793 
L 107.901953 36.039793 
L 107.901953 39.496367 
L 108.511627 39.496367 
L 108.511627 39.828347 
L 109.108371 39.828347 
L 109.108371 43.323972 
L 109.39836 43.323972 
L 109.39836 44.749571 
L 109.697725 44.749571 
L 109.697725 40.238466 
L 110.161559 40.238466 
L 110.161559 39.144871 
L 111.053872 39.144871 
L 111.053872 40.218919 
L 112.400327 40.218919 
L 112.400327 41.820282 
L 113.298436 41.820282 
L 113.298436 43.265398 
L 113.502834 43.265398 
L 113.502834 33.169103 
L 114.196241 33.169103 
L 114.196241 41.273469 
L 115.8422 41.273469 
L 115.8422 39.906468 
L 116.581097 39.906468 
L 116.581097 41.195349 
L 117.494452 41.195349 
L 117.494452 39.769767 
L 118.086807 39.769767 
L 118.086807 45.198717 
L 118.685344 45.198717 
L 118.685344 71.777121 
L 119.583139 71.777121 
L 119.583139 38.851917 
L 120.181791 38.851917 
L 120.181791 44.300401 
L 120.848541 44.300401 
L 120.848541 34.750937 
L 121.678185 34.750937 
L 121.678185 43.890307 
L 122.567136 43.890307 
L 122.567136 42.523305 
L 124.371746 42.523305 
L 124.371746 41.253922 
L 125.868016 41.253922 
L 125.868016 42.542828 
L 127.99324 42.542828 
L 127.99324 43.792639 
L 129.160209 43.792639 
L 129.160209 22.369778 
L 129.673604 22.369778 
L 129.673604 40.843853 
L 129.976914 40.843853 
L 129.976914 43.109163 
L 130.726593 43.109163 
L 130.726593 45.179188 
L 131.326497 45.179188 
L 131.326497 43.792639 
L 132.126076 43.792639 
L 132.126076 42.699057 
L 133.269888 42.699057 
L 133.269888 46.54619 
L 134.397804 46.54619 
L 134.397804 44.749571 
L 134.848143 44.749571 
L 134.848143 40.961018 
L 136.045248 40.961018 
L 136.045248 17.23377 
L 136.342782 17.23377 
L 136.342782 27.701096 
L 137.839226 27.701096 
L 137.839226 43.38257 
L 138.129226 43.38257 
L 138.129226 47.053927 
L 139.0365 47.053927 
L 139.0365 43.148208 
L 140.233557 43.148208 
L 140.233557 48.049904 
L 140.523467 48.049904 
L 140.523467 56.525301 
L 141.131355 56.525301 
L 141.131355 65.137424 
L 141.421377 65.137424 
L 141.421377 60.196677 
L 141.947683 60.196677 
L 141.947683 48.381884 
L 142.328457 48.381884 
L 142.328457 48.987264 
L 142.618431 48.987264 
L 142.618431 45.726001 
L 143.525484 45.726001 
L 143.525484 47.093003 
L 144.032247 47.093003 
L 144.032247 48.459979 
L 145.311943 48.459979 
L 145.311943 50.530004 
L 146.875885 50.530004 
L 146.875885 51.857955 
L 148.577772 51.857955 
L 148.577772 49.670765 
L 149.976918 49.670765 
L 149.976918 52.775811 
L 152.408702 52.814887 
L 152.408702 54.103756 
L 152.859033 54.103756 
L 152.859033 55.685559 
L 154.598974 55.685559 
L 154.598974 54.435723 
L 155.496756 54.435723 
L 155.496756 51.68221 
L 155.843599 51.68221 
L 155.843599 50.354265 
L 157.891085 50.354265 
L 157.891085 53.400726 
L 158.489525 53.400726 
L 158.489525 56.115201 
L 158.779537 56.115201 
L 158.779537 57.736062 
L 159.985924 57.736062 
L 159.985924 59.064037 
L 160.584599 59.064037 
L 160.584599 60.391944 
L 161.689218 60.391944 
L 161.689218 61.876136 
L 162.071616 61.876136 
L 162.071616 63.20408 
L 163.27812 63.20408 
L 163.27812 64.45391 
L 163.568025 64.45391 
L 163.568025 62.969756 
L 163.8673 62.969756 
L 163.8673 60.118563 
L 165.513342 60.118563 
L 165.513342 62.872088 
L 165.662974 62.872088 
L 165.662974 64.18051 
L 165.962254 64.18051 
L 165.962254 68.418215 
L 166.869451 68.418215 
L 166.869451 76.229653 
L 167.218731 76.229653 
L 167.218731 79.569061 
L 167.458696 79.569061 
L 167.458696 81.189922 
L 167.757943 81.189922 
L 167.757943 86.091593 
L 168.232653 86.091593 
L 168.232653 89.313811 
L 168.66714 89.313811 
L 168.66714 92.164979 
L 168.955045 92.164979 
L 168.955045 93.610101 
L 169.56298 93.610101 
L 169.56298 95.055199 
L 170.161739 95.055199 
L 170.161739 98.004035 
L 170.672712 98.004035 
L 170.672712 99.33198 
L 171.199662 99.33198 
L 171.199662 100.640395 
L 171.861691 100.640395 
L 171.861691 101.948811 
L 173.752901 101.948811 
L 173.752901 103.198641 
L 176.736367 103.198641 
L 176.736367 101.948811 
L 180.037758 101.948811 
L 180.037758 103.354851 
L 180.638288 103.354851 
L 180.638288 104.643757 
L 180.926245 104.643757 
L 180.926245 105.932663 
L 181.225533 105.932663 
L 181.225533 107.397308 
L 181.688062 107.397308 
L 181.688062 110.033649 
L 182.123362 110.033649 
L 182.123362 112.94341 
L 183.329809 112.94341 
L 183.329809 131.007359 
L 183.619774 131.007359 
L 183.619774 141.845729 
L 184.087189 141.845729 
L 184.087189 150.145382 
L 185.415438 150.086783 
L 185.415438 148.622151 
L 185.728355 148.622151 
L 185.728355 147.001284 
L 186.623641 147.001284 
L 186.623641 154.851766 
L 187.227735 154.851766 
L 187.227735 162.70228 
L 187.818945 162.70228 
L 187.818945 168.892832 
L 188.108955 168.892832 
L 188.108955 170.611348 
L 188.557912 170.611348 
L 188.557912 171.880707 
L 190.213201 171.880707 
L 190.213201 176.548041 
L 191.709646 176.548041 
L 191.709646 175.25916 
L 192.365273 175.25916 
L 192.365273 173.911681 
L 192.868111 173.911681 
L 192.868111 172.642322 
L 193.579958 172.642322 
L 193.579958 171.353441 
L 194.543534 171.353441 
L 194.543534 170.045013 
L 195.749867 170.045013 
L 195.749867 168.795189 
L 197.695266 168.795189 
L 197.695266 167.545353 
L 198.583765 167.545353 
L 198.583765 168.87331 
L 198.883038 168.87331 
L 198.883038 170.181719 
L 199.49093 170.181719 
L 199.49093 172.876665 
L 200.09043 172.876665 
L 200.09043 175.591152 
L 201.586046 175.591152 
L 201.586046 176.880021 
L 208.469271 176.880021 
L 208.469271 178.129857 
L 212.36288 178.129857 
L 212.36288 179.399216 
L 213.706876 179.399216 
L 213.706876 180.649033 
L 215.053443 180.649033 
L 215.053443 181.918404 
L 218.046546 181.918404 
L 218.046546 183.168228 
L 220.889456 183.168228 
L 220.889456 184.418064 
L 224.321909 184.418064 
L 224.321909 185.667888 
L 227.015366 185.667888 
L 227.015366 186.917724 
L 229.419002 186.917724 
L 229.419002 188.167542 
L 231.813194 188.167542 
L 231.813194 189.4369 
L 236.592481 189.4369 
L 236.592481 190.706272 
L 240.941257 190.706272 
L 240.941257 191.956095 
L 244.805696 191.956095 
L 244.805696 193.205932 
L 247.367662 193.205932 
L 247.367662 194.455755 
L 252.914043 194.455755 
L 252.914043 195.705592 
L 256.344771 195.705592 
L 256.344771 196.955409 
L 261.29255 196.955409 
L 261.29255 198.205258 
L 267.128184 198.205258 
L 267.128184 199.455082 
L 272.208352 199.455082 
L 272.208352 200.704918 
L 277.902242 200.704918 
L 277.902242 201.954754 
L 284.93578 201.954754 
L 284.93578 203.204572 
L 292.328225 203.204572 
L 292.328225 204.454396 
L 302.443174 204.454396 
L 302.443174 205.704232 
L 309.625831 205.704232 
L 309.625831 206.954068 
L 313.326741 206.954068 
L 313.326741 208.203892 
L 318.005767 208.203892 
L 318.005767 209.453709 
L 365.591367 209.453709 
L 365.591367 210.723081 
L 367.386936 210.723081 
L 367.386936 209.336544 
L 367.676889 209.336544 
L 367.676889 208.028135 
L 370.080413 208.028135 
L 370.080413 212.09007 
L 370.67904 212.09007 
L 370.67904 213.457084 
L 371.876199 213.457084 
L 371.876199 214.765506 
L 373.073229 214.765506 
L 373.073229 212.714991 
L 373.582673 212.714991 
L 373.582673 209.980994 
L 373.971049 209.980994 
L 373.971049 207.090762 
L 375.075416 207.090762 
L 375.075416 205.782352 
L 375.767319 205.782352 
L 375.767319 207.168876 
L 376.275284 207.168876 
L 376.275284 208.496821 
L 376.963877 208.496821 
L 376.963877 209.746651 
L 377.920583 209.746651 
L 377.920583 211.074595 
L 378.600627 211.074595 
L 378.600627 212.578284 
L 378.751591 212.578284 
L 378.751591 213.886713 
L 379.359852 213.886713 
L 379.359852 215.1756 
L 379.359852 215.1756 
" style="fill:none;stroke:#1f77b4;stroke-linecap:square;stroke-width:1.5;"/>
   </g>
   <g id="line2d_36">
    <path clip-path="url(#pbbf8738e54)" d="M 57.078669 120.422861 
L 61.116441 120.422861 
L 61.116441 117.506595 
L 72.477898 117.506595 
L 72.477898 114.590323 
L 76.785872 114.590323 
L 76.785872 111.674051 
L 83.862961 111.674051 
L 83.862961 108.757779 
L 101.78689 108.757779 
L 101.78689 46.266278 
L 106.169672 46.266278 
L 106.169672 43.350006 
L 140.284038 43.350006 
L 140.284038 46.266278 
L 145.072641 46.266278 
L 145.072641 49.18255 
L 152.396992 49.18255 
L 152.396992 52.098822 
L 157.447894 52.098822 
L 157.447894 55.015094 
L 161.527779 55.015094 
L 161.527779 57.93136 
L 162.533701 57.93136 
L 162.533701 55.015094 
L 164.030278 55.015094 
L 164.030278 57.93136 
L 165.514112 57.93136 
L 165.514112 60.847651 
L 170.361586 60.847651 
L 170.361586 57.93136 
L 171.200497 57.93136 
L 171.200497 60.847651 
L 174.791953 60.847651 
L 174.791953 63.763917 
L 178.59191 63.763917 
L 178.59191 66.68017 
L 180.686801 66.68017 
L 180.686801 63.763917 
L 183.380288 63.763917 
L 183.380288 60.847651 
L 196.397316 60.847651 
L 196.397316 57.93136 
L 198.63364 57.93136 
L 198.63364 55.015094 
L 208.520066 55.015094 
L 208.520066 52.098822 
L 210.911228 52.098822 
L 210.911228 49.18255 
L 218.096893 49.18255 
L 218.096893 111.674051 
L 221.779983 111.674051 
L 221.779983 108.757779 
L 223.927166 108.757779 
L 223.927166 105.841507 
L 225.429165 105.841507 
L 225.429165 102.925241 
L 237.54989 102.925241 
L 237.54989 100.00895 
L 244.997687 100.00895 
L 244.997687 94.176431 
L 251.466516 94.176431 
L 251.466516 91.260165 
L 256.105322 91.260165 
L 256.105322 88.343886 
L 258.798943 88.343886 
L 258.798943 85.427621 
L 274.93783 85.427621 
L 274.93783 82.511342 
L 286.329644 82.511342 
L 286.329644 79.595101 
L 291.716514 79.595101 
L 291.716514 82.511342 
L 294.261715 82.511342 
L 294.261715 79.595101 
L 302.790356 79.595101 
L 302.790356 76.67881 
L 305.329701 76.67881 
L 305.329701 82.511342 
L 313.165591 82.511342 
L 313.165591 79.595101 
L 318.651783 79.595101 
L 318.651783 17.1036 
L 321.451439 17.1036 
L 321.451439 20.019841 
L 328.970851 20.019841 
L 328.970851 17.1036 
L 334.508142 17.1036 
L 334.508142 20.019841 
L 338.674923 20.019841 
L 338.674923 22.936119 
L 343.944002 22.936119 
L 343.944002 25.852385 
L 346.235306 25.852385 
L 346.235306 28.768664 
L 346.84803 28.768664 
L 346.84803 31.684929 
L 349.354858 31.684929 
L 349.354858 34.601183 
L 353.216084 34.601183 
L 353.216084 37.517449 
L 356.962547 37.517449 
L 356.962547 40.43374 
L 360.551873 40.43374 
L 360.551873 43.350006 
L 365.88913 43.350006 
L 365.88913 46.266278 
L 370.729591 46.266278 
L 370.729591 49.18255 
L 375.063812 49.18255 
L 375.063812 52.098822 
L 377.909061 52.098822 
L 377.909061 55.015094 
L 377.909061 55.015094 
" style="fill:none;stroke:#ff7f0e;stroke-linecap:square;stroke-width:1.5;"/>
   </g>
   <g id="patch_3">
    <path d="M 40.603125 225.0792 
L 40.603125 7.2 
" style="fill:none;stroke:#000000;stroke-linecap:square;stroke-linejoin:miter;stroke-width:0.8;"/>
   </g>
   <g id="patch_4">
    <path d="M 395.491125 225.0792 
L 395.491125 7.2 
" style="fill:none;stroke:#000000;stroke-linecap:square;stroke-linejoin:miter;stroke-width:0.8;"/>
   </g>
   <g id="patch_5">
    <path d="M 40.603125 225.0792 
L 395.491125 225.0792 
" style="fill:none;stroke:#000000;stroke-linecap:square;stroke-linejoin:miter;stroke-width:0.8;"/>
   </g>
   <g id="patch_6">
    <path d="M 40.603125 7.2 
L 395.491125 7.2 
" style="fill:none;stroke:#000000;stroke-linecap:square;stroke-linejoin:miter;stroke-width:0.8;"/>
   </g>
   <g id="legend_1">
    <g id="patch_7">
     <path d="M 47.603125 220.0792 
L 152.021875 220.0792 
Q 154.021875 220.0792 154.021875 218.0792 
L 154.021875 189.72295 
Q 154.021875 187.72295 152.021875 187.72295 
L 47.603125 187.72295 
Q 45.603125 187.72295 45.603125 189.72295 
L 45.603125 218.0792 
Q 45.603125 220.0792 47.603125 220.0792 
z
" style="fill:#ffffff;opacity:0.8;stroke:#cccccc;stroke-linejoin:miter;"/>
    </g>
    <g id="line2d_37">
     <path d="M 49.603125 195.821388 
L 69.603125 195.821388 
" style="fill:none;stroke:#1f77b4;stroke-linecap:square;stroke-width:1.5;"/>
    </g>
    <g id="line2d_38"/>
    <g id="text_19">
     <!-- Actual value -->
     <defs>
      <path d="M 34.1875 63.1875 
L 20.796875 26.90625 
L 47.609375 26.90625 
z
M 28.609375 72.90625 
L 39.796875 72.90625 
L 67.578125 0 
L 57.328125 0 
L 50.6875 18.703125 
L 17.828125 18.703125 
L 11.1875 0 
L 0.78125 0 
z
" id="DejaVuSans-65"/>
      <path d="M 48.78125 52.59375 
L 48.78125 44.1875 
Q 44.96875 46.296875 41.140625 47.34375 
Q 37.3125 48.390625 33.40625 48.390625 
Q 24.65625 48.390625 19.8125 42.84375 
Q 14.984375 37.3125 14.984375 27.296875 
Q 14.984375 17.28125 19.8125 11.734375 
Q 24.65625 6.203125 33.40625 6.203125 
Q 37.3125 6.203125 41.140625 7.25 
Q 44.96875 8.296875 48.78125 10.40625 
L 48.78125 2.09375 
Q 45.015625 0.34375 40.984375 -0.53125 
Q 36.96875 -1.421875 32.421875 -1.421875 
Q 20.0625 -1.421875 12.78125 6.34375 
Q 5.515625 14.109375 5.515625 27.296875 
Q 5.515625 40.671875 12.859375 48.328125 
Q 20.21875 56 33.015625 56 
Q 37.15625 56 41.109375 55.140625 
Q 45.0625 54.296875 48.78125 52.59375 
z
" id="DejaVuSans-99"/>
      <path d="M 9.421875 75.984375 
L 18.40625 75.984375 
L 18.40625 0 
L 9.421875 0 
z
" id="DejaVuSans-108"/>
     </defs>
     <g transform="translate(77.603125 199.321388)scale(0.1 -0.1)">
      <use xlink:href="#DejaVuSans-65"/>
      <use x="68.392578" xlink:href="#DejaVuSans-99"/>
      <use x="123.373047" xlink:href="#DejaVuSans-116"/>
      <use x="162.582031" xlink:href="#DejaVuSans-117"/>
      <use x="225.960938" xlink:href="#DejaVuSans-97"/>
      <use x="287.240234" xlink:href="#DejaVuSans-108"/>
      <use x="315.023438" xlink:href="#DejaVuSans-32"/>
      <use x="346.810547" xlink:href="#DejaVuSans-118"/>
      <use x="405.990234" xlink:href="#DejaVuSans-97"/>
      <use x="467.269531" xlink:href="#DejaVuSans-108"/>
      <use x="495.052734" xlink:href="#DejaVuSans-117"/>
      <use x="558.431641" xlink:href="#DejaVuSans-101"/>
     </g>
    </g>
    <g id="line2d_39">
     <path d="M 49.603125 210.499513 
L 69.603125 210.499513 
" style="fill:none;stroke:#ff7f0e;stroke-linecap:square;stroke-width:1.5;"/>
    </g>
    <g id="line2d_40"/>
    <g id="text_20">
     <!-- Setpoint value -->
     <defs>
      <path d="M 53.515625 70.515625 
L 53.515625 60.890625 
Q 47.90625 63.578125 42.921875 64.890625 
Q 37.9375 66.21875 33.296875 66.21875 
Q 25.25 66.21875 20.875 63.09375 
Q 16.5 59.96875 16.5 54.203125 
Q 16.5 49.359375 19.40625 46.890625 
Q 22.3125 44.4375 30.421875 42.921875 
L 36.375 41.703125 
Q 47.40625 39.59375 52.65625 34.296875 
Q 57.90625 29 57.90625 20.125 
Q 57.90625 9.515625 50.796875 4.046875 
Q 43.703125 -1.421875 29.984375 -1.421875 
Q 24.8125 -1.421875 18.96875 -0.25 
Q 13.140625 0.921875 6.890625 3.21875 
L 6.890625 13.375 
Q 12.890625 10.015625 18.65625 8.296875 
Q 24.421875 6.59375 29.984375 6.59375 
Q 38.421875 6.59375 43.015625 9.90625 
Q 47.609375 13.234375 47.609375 19.390625 
Q 47.609375 24.75 44.3125 27.78125 
Q 41.015625 30.8125 33.5 32.328125 
L 27.484375 33.5 
Q 16.453125 35.6875 11.515625 40.375 
Q 6.59375 45.0625 6.59375 53.421875 
Q 6.59375 63.09375 13.40625 68.65625 
Q 20.21875 74.21875 32.171875 74.21875 
Q 37.3125 74.21875 42.625 73.28125 
Q 47.953125 72.359375 53.515625 70.515625 
z
" id="DejaVuSans-83"/>
      <path d="M 9.421875 54.6875 
L 18.40625 54.6875 
L 18.40625 0 
L 9.421875 0 
z
M 9.421875 75.984375 
L 18.40625 75.984375 
L 18.40625 64.59375 
L 9.421875 64.59375 
z
" id="DejaVuSans-105"/>
      <path d="M 54.890625 33.015625 
L 54.890625 0 
L 45.90625 0 
L 45.90625 32.71875 
Q 45.90625 40.484375 42.875 44.328125 
Q 39.84375 48.1875 33.796875 48.1875 
Q 26.515625 48.1875 22.3125 43.546875 
Q 18.109375 38.921875 18.109375 30.90625 
L 18.109375 0 
L 9.078125 0 
L 9.078125 54.6875 
L 18.109375 54.6875 
L 18.109375 46.1875 
Q 21.34375 51.125 25.703125 53.5625 
Q 30.078125 56 35.796875 56 
Q 45.21875 56 50.046875 50.171875 
Q 54.890625 44.34375 54.890625 33.015625 
z
" id="DejaVuSans-110"/>
     </defs>
     <g transform="translate(77.603125 213.999513)scale(0.1 -0.1)">
      <use xlink:href="#DejaVuSans-83"/>
      <use x="63.476562" xlink:href="#DejaVuSans-101"/>
      <use x="125" xlink:href="#DejaVuSans-116"/>
      <use x="164.208984" xlink:href="#DejaVuSans-112"/>
      <use x="227.685547" xlink:href="#DejaVuSans-111"/>
      <use x="288.867188" xlink:href="#DejaVuSans-105"/>
      <use x="316.650391" xlink:href="#DejaVuSans-110"/>
      <use x="380.029297" xlink:href="#DejaVuSans-116"/>
      <use x="419.238281" xlink:href="#DejaVuSans-32"/>
      <use x="451.025391" xlink:href="#DejaVuSans-118"/>
      <use x="510.205078" xlink:href="#DejaVuSans-97"/>
      <use x="571.484375" xlink:href="#DejaVuSans-108"/>
      <use x="599.267578" xlink:href="#DejaVuSans-117"/>
      <use x="662.646484" xlink:href="#DejaVuSans-101"/>
     </g>
    </g>
   </g>
  </g>
 </g>
 <defs>
  <clipPath id="pbbf8738e54">
   <rect height="217.8792" width="354.888" x="40.603125" y="7.2"/>
  </clipPath>
 </defs>
</svg>
