<?xml version="1.0" encoding="utf-8" standalone="no"?>
<!DOCTYPE svg PUBLIC "-//W3C//DTD SVG 1.1//EN"
  "http://www.w3.org/Graphics/SVG/1.1/DTD/svg11.dtd">
<!-- Created with matplotlib (https://matplotlib.org/) -->
<svg height="533.364525pt" version="1.1" viewBox="0 0 887.035125 533.364525" width="887.035125pt" xmlns="http://www.w3.org/2000/svg" xmlns:xlink="http://www.w3.org/1999/xlink">
 <defs>
  <style type="text/css">
*{stroke-linecap:butt;stroke-linejoin:round;}
  </style>
 </defs>
 <g id="figure_1">
  <g id="patch_1">
   <path d="M 0 533.364525 
L 887.035125 533.364525 
L 887.035125 0 
L 0 0 
z
" style="fill:#ffffff;"/>
  </g>
  <g id="axes_1">
   <g id="patch_2">
    <path d="M 40.603125 509.4864 
L 879.835125 509.4864 
L 879.835125 7.2 
L 40.603125 7.2 
z
" style="fill:#ffffff;"/>
   </g>
   <g id="matplotlib.axis_1">
    <g id="xtick_1">
     <g id="line2d_1">
      <path clip-path="url(#pd2d6d5bd4c)" d="M 78.574375 509.4864 
L 78.574375 7.2 
" style="fill:none;stroke:#b0b0b0;stroke-linecap:square;stroke-opacity:0.3;stroke-width:0.8;"/>
     </g>
     <g id="line2d_2">
      <defs>
       <path d="M 0 0 
L 0 3.5 
" id="m642f3d7bd8" style="stroke:#000000;stroke-width:0.8;"/>
      </defs>
      <g>
       <use style="stroke:#000000;stroke-width:0.8;" x="78.574375" xlink:href="#m642f3d7bd8" y="509.4864"/>
      </g>
     </g>
     <g id="text_1">
      <!-- 19. Nov -->
      <defs>
       <path d="M 12.40625 8.296875 
L 28.515625 8.296875 
L 28.515625 63.921875 
L 10.984375 60.40625 
L 10.984375 69.390625 
L 28.421875 72.90625 
L 38.28125 72.90625 
L 38.28125 8.296875 
L 54.390625 8.296875 
L 54.390625 0 
L 12.40625 0 
z
" id="DejaVuSans-49"/>
       <path d="M 10.984375 1.515625 
L 10.984375 10.5 
Q 14.703125 8.734375 18.5 7.8125 
Q 22.3125 6.890625 25.984375 6.890625 
Q 35.75 6.890625 40.890625 13.453125 
Q 46.046875 20.015625 46.78125 33.40625 
Q 43.953125 29.203125 39.59375 26.953125 
Q 35.25 24.703125 29.984375 24.703125 
Q 19.046875 24.703125 12.671875 31.3125 
Q 6.296875 37.9375 6.296875 49.421875 
Q 6.296875 60.640625 12.9375 67.421875 
Q 19.578125 74.21875 30.609375 74.21875 
Q 43.265625 74.21875 49.921875 64.515625 
Q 56.59375 54.828125 56.59375 36.375 
Q 56.59375 19.140625 48.40625 8.859375 
Q 40.234375 -1.421875 26.421875 -1.421875 
Q 22.703125 -1.421875 18.890625 -0.6875 
Q 15.09375 0.046875 10.984375 1.515625 
z
M 30.609375 32.421875 
Q 37.25 32.421875 41.125 36.953125 
Q 45.015625 41.5 45.015625 49.421875 
Q 45.015625 57.28125 41.125 61.84375 
Q 37.25 66.40625 30.609375 66.40625 
Q 23.96875 66.40625 20.09375 61.84375 
Q 16.21875 57.28125 16.21875 49.421875 
Q 16.21875 41.5 20.09375 36.953125 
Q 23.96875 32.421875 30.609375 32.421875 
z
" id="DejaVuSans-57"/>
       <path d="M 10.6875 12.40625 
L 21 12.40625 
L 21 0 
L 10.6875 0 
z
" id="DejaVuSans-46"/>
       <path id="DejaVuSans-32"/>
       <path d="M 9.8125 72.90625 
L 23.09375 72.90625 
L 55.421875 11.921875 
L 55.421875 72.90625 
L 64.984375 72.90625 
L 64.984375 0 
L 51.703125 0 
L 19.390625 60.984375 
L 19.390625 0 
L 9.8125 0 
z
" id="DejaVuSans-78"/>
       <path d="M 30.609375 48.390625 
Q 23.390625 48.390625 19.1875 42.75 
Q 14.984375 37.109375 14.984375 27.296875 
Q 14.984375 17.484375 19.15625 11.84375 
Q 23.34375 6.203125 30.609375 6.203125 
Q 37.796875 6.203125 41.984375 11.859375 
Q 46.1875 17.53125 46.1875 27.296875 
Q 46.1875 37.015625 41.984375 42.703125 
Q 37.796875 48.390625 30.609375 48.390625 
z
M 30.609375 56 
Q 42.328125 56 49.015625 48.375 
Q 55.71875 40.765625 55.71875 27.296875 
Q 55.71875 13.875 49.015625 6.21875 
Q 42.328125 -1.421875 30.609375 -1.421875 
Q 18.84375 -1.421875 12.171875 6.21875 
Q 5.515625 13.875 5.515625 27.296875 
Q 5.515625 40.765625 12.171875 48.375 
Q 18.84375 56 30.609375 56 
z
" id="DejaVuSans-111"/>
       <path d="M 2.984375 54.6875 
L 12.5 54.6875 
L 29.59375 8.796875 
L 46.6875 54.6875 
L 56.203125 54.6875 
L 35.6875 0 
L 23.484375 0 
z
" id="DejaVuSans-118"/>
      </defs>
      <g transform="translate(59.274375 524.084837)scale(0.1 -0.1)">
       <use xlink:href="#DejaVuSans-49"/>
       <use x="63.623047" xlink:href="#DejaVuSans-57"/>
       <use x="127.246094" xlink:href="#DejaVuSans-46"/>
       <use x="159.033203" xlink:href="#DejaVuSans-32"/>
       <use x="190.820312" xlink:href="#DejaVuSans-78"/>
       <use x="265.625" xlink:href="#DejaVuSans-111"/>
       <use x="326.806641" xlink:href="#DejaVuSans-118"/>
      </g>
     </g>
    </g>
    <g id="xtick_2">
     <g id="line2d_3">
      <path clip-path="url(#pd2d6d5bd4c)" d="M 163.502098 509.4864 
L 163.502098 7.2 
" style="fill:none;stroke:#b0b0b0;stroke-linecap:square;stroke-opacity:0.3;stroke-width:0.8;"/>
     </g>
     <g id="line2d_4">
      <g>
       <use style="stroke:#000000;stroke-width:0.8;" x="163.502098" xlink:href="#m642f3d7bd8" y="509.4864"/>
      </g>
     </g>
     <g id="text_2">
      <!-- 04:00 -->
      <defs>
       <path d="M 31.78125 66.40625 
Q 24.171875 66.40625 20.328125 58.90625 
Q 16.5 51.421875 16.5 36.375 
Q 16.5 21.390625 20.328125 13.890625 
Q 24.171875 6.390625 31.78125 6.390625 
Q 39.453125 6.390625 43.28125 13.890625 
Q 47.125 21.390625 47.125 36.375 
Q 47.125 51.421875 43.28125 58.90625 
Q 39.453125 66.40625 31.78125 66.40625 
z
M 31.78125 74.21875 
Q 44.046875 74.21875 50.515625 64.515625 
Q 56.984375 54.828125 56.984375 36.375 
Q 56.984375 17.96875 50.515625 8.265625 
Q 44.046875 -1.421875 31.78125 -1.421875 
Q 19.53125 -1.421875 13.0625 8.265625 
Q 6.59375 17.96875 6.59375 36.375 
Q 6.59375 54.828125 13.0625 64.515625 
Q 19.53125 74.21875 31.78125 74.21875 
z
" id="DejaVuSans-48"/>
       <path d="M 37.796875 64.3125 
L 12.890625 25.390625 
L 37.796875 25.390625 
z
M 35.203125 72.90625 
L 47.609375 72.90625 
L 47.609375 25.390625 
L 58.015625 25.390625 
L 58.015625 17.1875 
L 47.609375 17.1875 
L 47.609375 0 
L 37.796875 0 
L 37.796875 17.1875 
L 4.890625 17.1875 
L 4.890625 26.703125 
z
" id="DejaVuSans-52"/>
       <path d="M 11.71875 12.40625 
L 22.015625 12.40625 
L 22.015625 0 
L 11.71875 0 
z
M 11.71875 51.703125 
L 22.015625 51.703125 
L 22.015625 39.3125 
L 11.71875 39.3125 
z
" id="DejaVuSans-58"/>
      </defs>
      <g transform="translate(149.092723 524.084837)scale(0.1 -0.1)">
       <use xlink:href="#DejaVuSans-48"/>
       <use x="63.623047" xlink:href="#DejaVuSans-52"/>
       <use x="127.246094" xlink:href="#DejaVuSans-58"/>
       <use x="160.9375" xlink:href="#DejaVuSans-48"/>
       <use x="224.560547" xlink:href="#DejaVuSans-48"/>
      </g>
     </g>
    </g>
    <g id="xtick_3">
     <g id="line2d_5">
      <path clip-path="url(#pd2d6d5bd4c)" d="M 248.429821 509.4864 
L 248.429821 7.2 
" style="fill:none;stroke:#b0b0b0;stroke-linecap:square;stroke-opacity:0.3;stroke-width:0.8;"/>
     </g>
     <g id="line2d_6">
      <g>
       <use style="stroke:#000000;stroke-width:0.8;" x="248.429821" xlink:href="#m642f3d7bd8" y="509.4864"/>
      </g>
     </g>
     <g id="text_3">
      <!-- 08:00 -->
      <defs>
       <path d="M 31.78125 34.625 
Q 24.75 34.625 20.71875 30.859375 
Q 16.703125 27.09375 16.703125 20.515625 
Q 16.703125 13.921875 20.71875 10.15625 
Q 24.75 6.390625 31.78125 6.390625 
Q 38.8125 6.390625 42.859375 10.171875 
Q 46.921875 13.96875 46.921875 20.515625 
Q 46.921875 27.09375 42.890625 30.859375 
Q 38.875 34.625 31.78125 34.625 
z
M 21.921875 38.8125 
Q 15.578125 40.375 12.03125 44.71875 
Q 8.5 49.078125 8.5 55.328125 
Q 8.5 64.0625 14.71875 69.140625 
Q 20.953125 74.21875 31.78125 74.21875 
Q 42.671875 74.21875 48.875 69.140625 
Q 55.078125 64.0625 55.078125 55.328125 
Q 55.078125 49.078125 51.53125 44.71875 
Q 48 40.375 41.703125 38.8125 
Q 48.828125 37.15625 52.796875 32.3125 
Q 56.78125 27.484375 56.78125 20.515625 
Q 56.78125 9.90625 50.3125 4.234375 
Q 43.84375 -1.421875 31.78125 -1.421875 
Q 19.734375 -1.421875 13.25 4.234375 
Q 6.78125 9.90625 6.78125 20.515625 
Q 6.78125 27.484375 10.78125 32.3125 
Q 14.796875 37.15625 21.921875 38.8125 
z
M 18.3125 54.390625 
Q 18.3125 48.734375 21.84375 45.5625 
Q 25.390625 42.390625 31.78125 42.390625 
Q 38.140625 42.390625 41.71875 45.5625 
Q 45.3125 48.734375 45.3125 54.390625 
Q 45.3125 60.0625 41.71875 63.234375 
Q 38.140625 66.40625 31.78125 66.40625 
Q 25.390625 66.40625 21.84375 63.234375 
Q 18.3125 60.0625 18.3125 54.390625 
z
" id="DejaVuSans-56"/>
      </defs>
      <g transform="translate(234.020446 524.084837)scale(0.1 -0.1)">
       <use xlink:href="#DejaVuSans-48"/>
       <use x="63.623047" xlink:href="#DejaVuSans-56"/>
       <use x="127.246094" xlink:href="#DejaVuSans-58"/>
       <use x="160.9375" xlink:href="#DejaVuSans-48"/>
       <use x="224.560547" xlink:href="#DejaVuSans-48"/>
      </g>
     </g>
    </g>
    <g id="xtick_4">
     <g id="line2d_7">
      <path clip-path="url(#pd2d6d5bd4c)" d="M 333.357543 509.4864 
L 333.357543 7.2 
" style="fill:none;stroke:#b0b0b0;stroke-linecap:square;stroke-opacity:0.3;stroke-width:0.8;"/>
     </g>
     <g id="line2d_8">
      <g>
       <use style="stroke:#000000;stroke-width:0.8;" x="333.357543" xlink:href="#m642f3d7bd8" y="509.4864"/>
      </g>
     </g>
     <g id="text_4">
      <!-- 12:00 -->
      <defs>
       <path d="M 19.1875 8.296875 
L 53.609375 8.296875 
L 53.609375 0 
L 7.328125 0 
L 7.328125 8.296875 
Q 12.9375 14.109375 22.625 23.890625 
Q 32.328125 33.6875 34.8125 36.53125 
Q 39.546875 41.84375 41.421875 45.53125 
Q 43.3125 49.21875 43.3125 52.78125 
Q 43.3125 58.59375 39.234375 62.25 
Q 35.15625 65.921875 28.609375 65.921875 
Q 23.96875 65.921875 18.8125 64.3125 
Q 13.671875 62.703125 7.8125 59.421875 
L 7.8125 69.390625 
Q 13.765625 71.78125 18.9375 73 
Q 24.125 74.21875 28.421875 74.21875 
Q 39.75 74.21875 46.484375 68.546875 
Q 53.21875 62.890625 53.21875 53.421875 
Q 53.21875 48.921875 51.53125 44.890625 
Q 49.859375 40.875 45.40625 35.40625 
Q 44.1875 33.984375 37.640625 27.21875 
Q 31.109375 20.453125 19.1875 8.296875 
z
" id="DejaVuSans-50"/>
      </defs>
      <g transform="translate(318.948168 524.084837)scale(0.1 -0.1)">
       <use xlink:href="#DejaVuSans-49"/>
       <use x="63.623047" xlink:href="#DejaVuSans-50"/>
       <use x="127.246094" xlink:href="#DejaVuSans-58"/>
       <use x="160.9375" xlink:href="#DejaVuSans-48"/>
       <use x="224.560547" xlink:href="#DejaVuSans-48"/>
      </g>
     </g>
    </g>
    <g id="xtick_5">
     <g id="line2d_9">
      <path clip-path="url(#pd2d6d5bd4c)" d="M 418.285266 509.4864 
L 418.285266 7.2 
" style="fill:none;stroke:#b0b0b0;stroke-linecap:square;stroke-opacity:0.3;stroke-width:0.8;"/>
     </g>
     <g id="line2d_10">
      <g>
       <use style="stroke:#000000;stroke-width:0.8;" x="418.285266" xlink:href="#m642f3d7bd8" y="509.4864"/>
      </g>
     </g>
     <g id="text_5">
      <!-- 16:00 -->
      <defs>
       <path d="M 33.015625 40.375 
Q 26.375 40.375 22.484375 35.828125 
Q 18.609375 31.296875 18.609375 23.390625 
Q 18.609375 15.53125 22.484375 10.953125 
Q 26.375 6.390625 33.015625 6.390625 
Q 39.65625 6.390625 43.53125 10.953125 
Q 47.40625 15.53125 47.40625 23.390625 
Q 47.40625 31.296875 43.53125 35.828125 
Q 39.65625 40.375 33.015625 40.375 
z
M 52.59375 71.296875 
L 52.59375 62.3125 
Q 48.875 64.0625 45.09375 64.984375 
Q 41.3125 65.921875 37.59375 65.921875 
Q 27.828125 65.921875 22.671875 59.328125 
Q 17.53125 52.734375 16.796875 39.40625 
Q 19.671875 43.65625 24.015625 45.921875 
Q 28.375 48.1875 33.59375 48.1875 
Q 44.578125 48.1875 50.953125 41.515625 
Q 57.328125 34.859375 57.328125 23.390625 
Q 57.328125 12.15625 50.6875 5.359375 
Q 44.046875 -1.421875 33.015625 -1.421875 
Q 20.359375 -1.421875 13.671875 8.265625 
Q 6.984375 17.96875 6.984375 36.375 
Q 6.984375 53.65625 15.1875 63.9375 
Q 23.390625 74.21875 37.203125 74.21875 
Q 40.921875 74.21875 44.703125 73.484375 
Q 48.484375 72.75 52.59375 71.296875 
z
" id="DejaVuSans-54"/>
      </defs>
      <g transform="translate(403.875891 524.084837)scale(0.1 -0.1)">
       <use xlink:href="#DejaVuSans-49"/>
       <use x="63.623047" xlink:href="#DejaVuSans-54"/>
       <use x="127.246094" xlink:href="#DejaVuSans-58"/>
       <use x="160.9375" xlink:href="#DejaVuSans-48"/>
       <use x="224.560547" xlink:href="#DejaVuSans-48"/>
      </g>
     </g>
    </g>
    <g id="xtick_6">
     <g id="line2d_11">
      <path clip-path="url(#pd2d6d5bd4c)" d="M 503.212988 509.4864 
L 503.212988 7.2 
" style="fill:none;stroke:#b0b0b0;stroke-linecap:square;stroke-opacity:0.3;stroke-width:0.8;"/>
     </g>
     <g id="line2d_12">
      <g>
       <use style="stroke:#000000;stroke-width:0.8;" x="503.212988" xlink:href="#m642f3d7bd8" y="509.4864"/>
      </g>
     </g>
     <g id="text_6">
      <!-- 20:00 -->
      <g transform="translate(488.803613 524.084837)scale(0.1 -0.1)">
       <use xlink:href="#DejaVuSans-50"/>
       <use x="63.623047" xlink:href="#DejaVuSans-48"/>
       <use x="127.246094" xlink:href="#DejaVuSans-58"/>
       <use x="160.9375" xlink:href="#DejaVuSans-48"/>
       <use x="224.560547" xlink:href="#DejaVuSans-48"/>
      </g>
     </g>
    </g>
    <g id="xtick_7">
     <g id="line2d_13">
      <path clip-path="url(#pd2d6d5bd4c)" d="M 588.140711 509.4864 
L 588.140711 7.2 
" style="fill:none;stroke:#b0b0b0;stroke-linecap:square;stroke-opacity:0.3;stroke-width:0.8;"/>
     </g>
     <g id="line2d_14">
      <g>
       <use style="stroke:#000000;stroke-width:0.8;" x="588.140711" xlink:href="#m642f3d7bd8" y="509.4864"/>
      </g>
     </g>
     <g id="text_7">
      <!-- 20. Nov -->
      <g transform="translate(568.840711 524.084837)scale(0.1 -0.1)">
       <use xlink:href="#DejaVuSans-50"/>
       <use x="63.623047" xlink:href="#DejaVuSans-48"/>
       <use x="127.246094" xlink:href="#DejaVuSans-46"/>
       <use x="159.033203" xlink:href="#DejaVuSans-32"/>
       <use x="190.820312" xlink:href="#DejaVuSans-78"/>
       <use x="265.625" xlink:href="#DejaVuSans-111"/>
       <use x="326.806641" xlink:href="#DejaVuSans-118"/>
      </g>
     </g>
    </g>
    <g id="xtick_8">
     <g id="line2d_15">
      <path clip-path="url(#pd2d6d5bd4c)" d="M 673.068434 509.4864 
L 673.068434 7.2 
" style="fill:none;stroke:#b0b0b0;stroke-linecap:square;stroke-opacity:0.3;stroke-width:0.8;"/>
     </g>
     <g id="line2d_16">
      <g>
       <use style="stroke:#000000;stroke-width:0.8;" x="673.068434" xlink:href="#m642f3d7bd8" y="509.4864"/>
      </g>
     </g>
     <g id="text_8">
      <!-- 04:00 -->
      <g transform="translate(658.659059 524.084837)scale(0.1 -0.1)">
       <use xlink:href="#DejaVuSans-48"/>
       <use x="63.623047" xlink:href="#DejaVuSans-52"/>
       <use x="127.246094" xlink:href="#DejaVuSans-58"/>
       <use x="160.9375" xlink:href="#DejaVuSans-48"/>
       <use x="224.560547" xlink:href="#DejaVuSans-48"/>
      </g>
     </g>
    </g>
    <g id="xtick_9">
     <g id="line2d_17">
      <path clip-path="url(#pd2d6d5bd4c)" d="M 757.996156 509.4864 
L 757.996156 7.2 
" style="fill:none;stroke:#b0b0b0;stroke-linecap:square;stroke-opacity:0.3;stroke-width:0.8;"/>
     </g>
     <g id="line2d_18">
      <g>
       <use style="stroke:#000000;stroke-width:0.8;" x="757.996156" xlink:href="#m642f3d7bd8" y="509.4864"/>
      </g>
     </g>
     <g id="text_9">
      <!-- 08:00 -->
      <g transform="translate(743.586781 524.084837)scale(0.1 -0.1)">
       <use xlink:href="#DejaVuSans-48"/>
       <use x="63.623047" xlink:href="#DejaVuSans-56"/>
       <use x="127.246094" xlink:href="#DejaVuSans-58"/>
       <use x="160.9375" xlink:href="#DejaVuSans-48"/>
       <use x="224.560547" xlink:href="#DejaVuSans-48"/>
      </g>
     </g>
    </g>
    <g id="xtick_10">
     <g id="line2d_19">
      <path clip-path="url(#pd2d6d5bd4c)" d="M 842.923879 509.4864 
L 842.923879 7.2 
" style="fill:none;stroke:#b0b0b0;stroke-linecap:square;stroke-opacity:0.3;stroke-width:0.8;"/>
     </g>
     <g id="line2d_20">
      <g>
       <use style="stroke:#000000;stroke-width:0.8;" x="842.923879" xlink:href="#m642f3d7bd8" y="509.4864"/>
      </g>
     </g>
     <g id="text_10">
      <!-- 12:00 -->
      <g transform="translate(828.514504 524.084837)scale(0.1 -0.1)">
       <use xlink:href="#DejaVuSans-49"/>
       <use x="63.623047" xlink:href="#DejaVuSans-50"/>
       <use x="127.246094" xlink:href="#DejaVuSans-58"/>
       <use x="160.9375" xlink:href="#DejaVuSans-48"/>
       <use x="224.560547" xlink:href="#DejaVuSans-48"/>
      </g>
     </g>
    </g>
   </g>
   <g id="matplotlib.axis_2">
    <g id="ytick_1">
     <g id="line2d_21">
      <path clip-path="url(#pd2d6d5bd4c)" d="M 40.603125 474.949969 
L 879.835125 474.949969 
" style="fill:none;stroke:#b0b0b0;stroke-linecap:square;stroke-opacity:0.3;stroke-width:0.8;"/>
     </g>
     <g id="line2d_22">
      <defs>
       <path d="M 0 0 
L -3.5 0 
" id="m6c9bad28e7" style="stroke:#000000;stroke-width:0.8;"/>
      </defs>
      <g>
       <use style="stroke:#000000;stroke-width:0.8;" x="40.603125" xlink:href="#m6c9bad28e7" y="474.949969"/>
      </g>
     </g>
     <g id="text_11">
      <!-- 25 -->
      <defs>
       <path d="M 10.796875 72.90625 
L 49.515625 72.90625 
L 49.515625 64.59375 
L 19.828125 64.59375 
L 19.828125 46.734375 
Q 21.96875 47.46875 24.109375 47.828125 
Q 26.265625 48.1875 28.421875 48.1875 
Q 40.625 48.1875 47.75 41.5 
Q 54.890625 34.8125 54.890625 23.390625 
Q 54.890625 11.625 47.5625 5.09375 
Q 40.234375 -1.421875 26.90625 -1.421875 
Q 22.3125 -1.421875 17.546875 -0.640625 
Q 12.796875 0.140625 7.71875 1.703125 
L 7.71875 11.625 
Q 12.109375 9.234375 16.796875 8.0625 
Q 21.484375 6.890625 26.703125 6.890625 
Q 35.15625 6.890625 40.078125 11.328125 
Q 45.015625 15.765625 45.015625 23.390625 
Q 45.015625 31 40.078125 35.4375 
Q 35.15625 39.890625 26.703125 39.890625 
Q 22.75 39.890625 18.8125 39.015625 
Q 14.890625 38.140625 10.796875 36.28125 
z
" id="DejaVuSans-53"/>
      </defs>
      <g transform="translate(20.878125 478.749188)scale(0.1 -0.1)">
       <use xlink:href="#DejaVuSans-50"/>
       <use x="63.623047" xlink:href="#DejaVuSans-53"/>
      </g>
     </g>
    </g>
    <g id="ytick_2">
     <g id="line2d_23">
      <path clip-path="url(#pd2d6d5bd4c)" d="M 40.603125 402.917781 
L 879.835125 402.917781 
" style="fill:none;stroke:#b0b0b0;stroke-linecap:square;stroke-opacity:0.3;stroke-width:0.8;"/>
     </g>
     <g id="line2d_24">
      <g>
       <use style="stroke:#000000;stroke-width:0.8;" x="40.603125" xlink:href="#m6c9bad28e7" y="402.917781"/>
      </g>
     </g>
     <g id="text_12">
      <!-- 30 -->
      <defs>
       <path d="M 40.578125 39.3125 
Q 47.65625 37.796875 51.625 33 
Q 55.609375 28.21875 55.609375 21.1875 
Q 55.609375 10.40625 48.1875 4.484375 
Q 40.765625 -1.421875 27.09375 -1.421875 
Q 22.515625 -1.421875 17.65625 -0.515625 
Q 12.796875 0.390625 7.625 2.203125 
L 7.625 11.71875 
Q 11.71875 9.328125 16.59375 8.109375 
Q 21.484375 6.890625 26.8125 6.890625 
Q 36.078125 6.890625 40.9375 10.546875 
Q 45.796875 14.203125 45.796875 21.1875 
Q 45.796875 27.640625 41.28125 31.265625 
Q 36.765625 34.90625 28.71875 34.90625 
L 20.21875 34.90625 
L 20.21875 43.015625 
L 29.109375 43.015625 
Q 36.375 43.015625 40.234375 45.921875 
Q 44.09375 48.828125 44.09375 54.296875 
Q 44.09375 59.90625 40.109375 62.90625 
Q 36.140625 65.921875 28.71875 65.921875 
Q 24.65625 65.921875 20.015625 65.03125 
Q 15.375 64.15625 9.8125 62.3125 
L 9.8125 71.09375 
Q 15.4375 72.65625 20.34375 73.4375 
Q 25.25 74.21875 29.59375 74.21875 
Q 40.828125 74.21875 47.359375 69.109375 
Q 53.90625 64.015625 53.90625 55.328125 
Q 53.90625 49.265625 50.4375 45.09375 
Q 46.96875 40.921875 40.578125 39.3125 
z
" id="DejaVuSans-51"/>
      </defs>
      <g transform="translate(20.878125 406.717)scale(0.1 -0.1)">
       <use xlink:href="#DejaVuSans-51"/>
       <use x="63.623047" xlink:href="#DejaVuSans-48"/>
      </g>
     </g>
    </g>
    <g id="ytick_3">
     <g id="line2d_25">
      <path clip-path="url(#pd2d6d5bd4c)" d="M 40.603125 330.885592 
L 879.835125 330.885592 
" style="fill:none;stroke:#b0b0b0;stroke-linecap:square;stroke-opacity:0.3;stroke-width:0.8;"/>
     </g>
     <g id="line2d_26">
      <g>
       <use style="stroke:#000000;stroke-width:0.8;" x="40.603125" xlink:href="#m6c9bad28e7" y="330.885592"/>
      </g>
     </g>
     <g id="text_13">
      <!-- 35 -->
      <g transform="translate(20.878125 334.684811)scale(0.1 -0.1)">
       <use xlink:href="#DejaVuSans-51"/>
       <use x="63.623047" xlink:href="#DejaVuSans-53"/>
      </g>
     </g>
    </g>
    <g id="ytick_4">
     <g id="line2d_27">
      <path clip-path="url(#pd2d6d5bd4c)" d="M 40.603125 258.853404 
L 879.835125 258.853404 
" style="fill:none;stroke:#b0b0b0;stroke-linecap:square;stroke-opacity:0.3;stroke-width:0.8;"/>
     </g>
     <g id="line2d_28">
      <g>
       <use style="stroke:#000000;stroke-width:0.8;" x="40.603125" xlink:href="#m6c9bad28e7" y="258.853404"/>
      </g>
     </g>
     <g id="text_14">
      <!-- 40 -->
      <g transform="translate(20.878125 262.652623)scale(0.1 -0.1)">
       <use xlink:href="#DejaVuSans-52"/>
       <use x="63.623047" xlink:href="#DejaVuSans-48"/>
      </g>
     </g>
    </g>
    <g id="ytick_5">
     <g id="line2d_29">
      <path clip-path="url(#pd2d6d5bd4c)" d="M 40.603125 186.821216 
L 879.835125 186.821216 
" style="fill:none;stroke:#b0b0b0;stroke-linecap:square;stroke-opacity:0.3;stroke-width:0.8;"/>
     </g>
     <g id="line2d_30">
      <g>
       <use style="stroke:#000000;stroke-width:0.8;" x="40.603125" xlink:href="#m6c9bad28e7" y="186.821216"/>
      </g>
     </g>
     <g id="text_15">
      <!-- 45 -->
      <g transform="translate(20.878125 190.620434)scale(0.1 -0.1)">
       <use xlink:href="#DejaVuSans-52"/>
       <use x="63.623047" xlink:href="#DejaVuSans-53"/>
      </g>
     </g>
    </g>
    <g id="ytick_6">
     <g id="line2d_31">
      <path clip-path="url(#pd2d6d5bd4c)" d="M 40.603125 114.789027 
L 879.835125 114.789027 
" style="fill:none;stroke:#b0b0b0;stroke-linecap:square;stroke-opacity:0.3;stroke-width:0.8;"/>
     </g>
     <g id="line2d_32">
      <g>
       <use style="stroke:#000000;stroke-width:0.8;" x="40.603125" xlink:href="#m6c9bad28e7" y="114.789027"/>
      </g>
     </g>
     <g id="text_16">
      <!-- 50 -->
      <g transform="translate(20.878125 118.588246)scale(0.1 -0.1)">
       <use xlink:href="#DejaVuSans-53"/>
       <use x="63.623047" xlink:href="#DejaVuSans-48"/>
      </g>
     </g>
    </g>
    <g id="ytick_7">
     <g id="line2d_33">
      <path clip-path="url(#pd2d6d5bd4c)" d="M 40.603125 42.756839 
L 879.835125 42.756839 
" style="fill:none;stroke:#b0b0b0;stroke-linecap:square;stroke-opacity:0.3;stroke-width:0.8;"/>
     </g>
     <g id="line2d_34">
      <g>
       <use style="stroke:#000000;stroke-width:0.8;" x="40.603125" xlink:href="#m6c9bad28e7" y="42.756839"/>
      </g>
     </g>
     <g id="text_17">
      <!-- 55 -->
      <g transform="translate(20.878125 46.556057)scale(0.1 -0.1)">
       <use xlink:href="#DejaVuSans-53"/>
       <use x="63.623047" xlink:href="#DejaVuSans-53"/>
      </g>
     </g>
    </g>
    <g id="text_18">
     <!-- Temperature -->
     <defs>
      <path d="M -0.296875 72.90625 
L 61.375 72.90625 
L 61.375 64.59375 
L 35.5 64.59375 
L 35.5 0 
L 25.59375 0 
L 25.59375 64.59375 
L -0.296875 64.59375 
z
" id="DejaVuSans-84"/>
      <path d="M 56.203125 29.59375 
L 56.203125 25.203125 
L 14.890625 25.203125 
Q 15.484375 15.921875 20.484375 11.0625 
Q 25.484375 6.203125 34.421875 6.203125 
Q 39.59375 6.203125 44.453125 7.46875 
Q 49.3125 8.734375 54.109375 11.28125 
L 54.109375 2.78125 
Q 49.265625 0.734375 44.1875 -0.34375 
Q 39.109375 -1.421875 33.890625 -1.421875 
Q 20.796875 -1.421875 13.15625 6.1875 
Q 5.515625 13.8125 5.515625 26.8125 
Q 5.515625 40.234375 12.765625 48.109375 
Q 20.015625 56 32.328125 56 
Q 43.359375 56 49.78125 48.890625 
Q 56.203125 41.796875 56.203125 29.59375 
z
M 47.21875 32.234375 
Q 47.125 39.59375 43.09375 43.984375 
Q 39.0625 48.390625 32.421875 48.390625 
Q 24.90625 48.390625 20.390625 44.140625 
Q 15.875 39.890625 15.1875 32.171875 
z
" id="DejaVuSans-101"/>
      <path d="M 52 44.1875 
Q 55.375 50.25 60.0625 53.125 
Q 64.75 56 71.09375 56 
Q 79.640625 56 84.28125 50.015625 
Q 88.921875 44.046875 88.921875 33.015625 
L 88.921875 0 
L 79.890625 0 
L 79.890625 32.71875 
Q 79.890625 40.578125 77.09375 44.375 
Q 74.3125 48.1875 68.609375 48.1875 
Q 61.625 48.1875 57.5625 43.546875 
Q 53.515625 38.921875 53.515625 30.90625 
L 53.515625 0 
L 44.484375 0 
L 44.484375 32.71875 
Q 44.484375 40.625 41.703125 44.40625 
Q 38.921875 48.1875 33.109375 48.1875 
Q 26.21875 48.1875 22.15625 43.53125 
Q 18.109375 38.875 18.109375 30.90625 
L 18.109375 0 
L 9.078125 0 
L 9.078125 54.6875 
L 18.109375 54.6875 
L 18.109375 46.1875 
Q 21.1875 51.21875 25.484375 53.609375 
Q 29.78125 56 35.6875 56 
Q 41.65625 56 45.828125 52.96875 
Q 50 49.953125 52 44.1875 
z
" id="DejaVuSans-109"/>
      <path d="M 18.109375 8.203125 
L 18.109375 -20.796875 
L 9.078125 -20.796875 
L 9.078125 54.6875 
L 18.109375 54.6875 
L 18.109375 46.390625 
Q 20.953125 51.265625 25.265625 53.625 
Q 29.59375 56 35.59375 56 
Q 45.5625 56 51.78125 48.09375 
Q 58.015625 40.1875 58.015625 27.296875 
Q 58.015625 14.40625 51.78125 6.484375 
Q 45.5625 -1.421875 35.59375 -1.421875 
Q 29.59375 -1.421875 25.265625 0.953125 
Q 20.953125 3.328125 18.109375 8.203125 
z
M 48.6875 27.296875 
Q 48.6875 37.203125 44.609375 42.84375 
Q 40.53125 48.484375 33.40625 48.484375 
Q 26.265625 48.484375 22.1875 42.84375 
Q 18.109375 37.203125 18.109375 27.296875 
Q 18.109375 17.390625 22.1875 11.75 
Q 26.265625 6.109375 33.40625 6.109375 
Q 40.53125 6.109375 44.609375 11.75 
Q 48.6875 17.390625 48.6875 27.296875 
z
" id="DejaVuSans-112"/>
      <path d="M 41.109375 46.296875 
Q 39.59375 47.171875 37.8125 47.578125 
Q 36.03125 48 33.890625 48 
Q 26.265625 48 22.1875 43.046875 
Q 18.109375 38.09375 18.109375 28.8125 
L 18.109375 0 
L 9.078125 0 
L 9.078125 54.6875 
L 18.109375 54.6875 
L 18.109375 46.1875 
Q 20.953125 51.171875 25.484375 53.578125 
Q 30.03125 56 36.53125 56 
Q 37.453125 56 38.578125 55.875 
Q 39.703125 55.765625 41.0625 55.515625 
z
" id="DejaVuSans-114"/>
      <path d="M 34.28125 27.484375 
Q 23.390625 27.484375 19.1875 25 
Q 14.984375 22.515625 14.984375 16.5 
Q 14.984375 11.71875 18.140625 8.90625 
Q 21.296875 6.109375 26.703125 6.109375 
Q 34.1875 6.109375 38.703125 11.40625 
Q 43.21875 16.703125 43.21875 25.484375 
L 43.21875 27.484375 
z
M 52.203125 31.203125 
L 52.203125 0 
L 43.21875 0 
L 43.21875 8.296875 
Q 40.140625 3.328125 35.546875 0.953125 
Q 30.953125 -1.421875 24.3125 -1.421875 
Q 15.921875 -1.421875 10.953125 3.296875 
Q 6 8.015625 6 15.921875 
Q 6 25.140625 12.171875 29.828125 
Q 18.359375 34.515625 30.609375 34.515625 
L 43.21875 34.515625 
L 43.21875 35.40625 
Q 43.21875 41.609375 39.140625 45 
Q 35.0625 48.390625 27.6875 48.390625 
Q 23 48.390625 18.546875 47.265625 
Q 14.109375 46.140625 10.015625 43.890625 
L 10.015625 52.203125 
Q 14.9375 54.109375 19.578125 55.046875 
Q 24.21875 56 28.609375 56 
Q 40.484375 56 46.34375 49.84375 
Q 52.203125 43.703125 52.203125 31.203125 
z
" id="DejaVuSans-97"/>
      <path d="M 18.3125 70.21875 
L 18.3125 54.6875 
L 36.8125 54.6875 
L 36.8125 47.703125 
L 18.3125 47.703125 
L 18.3125 18.015625 
Q 18.3125 11.328125 20.140625 9.421875 
Q 21.96875 7.515625 27.59375 7.515625 
L 36.8125 7.515625 
L 36.8125 0 
L 27.59375 0 
Q 17.1875 0 13.234375 3.875 
Q 9.28125 7.765625 9.28125 18.015625 
L 9.28125 47.703125 
L 2.6875 47.703125 
L 2.6875 54.6875 
L 9.28125 54.6875 
L 9.28125 70.21875 
z
" id="DejaVuSans-116"/>
      <path d="M 8.5 21.578125 
L 8.5 54.6875 
L 17.484375 54.6875 
L 17.484375 21.921875 
Q 17.484375 14.15625 20.5 10.265625 
Q 23.53125 6.390625 29.59375 6.390625 
Q 36.859375 6.390625 41.078125 11.03125 
Q 45.3125 15.671875 45.3125 23.6875 
L 45.3125 54.6875 
L 54.296875 54.6875 
L 54.296875 0 
L 45.3125 0 
L 45.3125 8.40625 
Q 42.046875 3.421875 37.71875 1 
Q 33.40625 -1.421875 27.6875 -1.421875 
Q 18.265625 -1.421875 13.375 4.4375 
Q 8.5 10.296875 8.5 21.578125 
z
M 31.109375 56 
z
" id="DejaVuSans-117"/>
     </defs>
     <g transform="translate(14.798438 290.960387)rotate(-90)scale(0.1 -0.1)">
      <use xlink:href="#DejaVuSans-84"/>
      <use x="60.818359" xlink:href="#DejaVuSans-101"/>
      <use x="122.341797" xlink:href="#DejaVuSans-109"/>
      <use x="219.753906" xlink:href="#DejaVuSans-112"/>
      <use x="283.230469" xlink:href="#DejaVuSans-101"/>
      <use x="344.753906" xlink:href="#DejaVuSans-114"/>
      <use x="385.867188" xlink:href="#DejaVuSans-97"/>
      <use x="447.146484" xlink:href="#DejaVuSans-116"/>
      <use x="486.355469" xlink:href="#DejaVuSans-117"/>
      <use x="549.734375" xlink:href="#DejaVuSans-114"/>
      <use x="590.816406" xlink:href="#DejaVuSans-101"/>
     </g>
    </g>
   </g>
   <g id="line2d_35">
    <path clip-path="url(#pd2d6d5bd4c)" d="M 78.750034 270.288514 
L 80.877397 270.288514 
L 80.877397 268.93791 
L 82.974457 268.93791 
L 82.974457 265.786502 
L 85.119548 265.786502 
L 85.119548 269.072942 
L 88.30478 269.072942 
L 88.30478 264.615979 
L 92.904602 264.615979 
L 92.904602 260.56414 
L 95.869287 260.56414 
L 95.869287 265.516381 
L 96.937678 265.516381 
L 96.937678 262.004812 
L 102.812789 262.004812 
L 102.812789 258.628303 
L 104.100417 258.628303 
L 104.100417 263.760554 
L 113.851128 263.760554 
L 113.851128 257.953002 
L 114.56192 257.953002 
L 114.56192 260.654209 
L 115.98092 260.654209 
L 115.98092 255.792065 
L 116.809491 255.792065 
L 116.809491 258.673367 
L 122.633268 258.673367 
L 122.633268 257.772921 
L 124.03556 257.772921 
L 124.03556 253.67609 
L 133.953095 253.67609 
L 133.953095 250.614694 
L 135.36861 250.614694 
L 135.36861 247.508305 
L 136.209937 247.508305 
L 136.209937 244.131797 
L 136.921331 244.131797 
L 136.921331 249.534211 
L 139.969115 249.534211 
L 139.969115 238.05411 
L 141.384288 238.05411 
L 141.384288 240.620256 
L 143.861282 240.620256 
L 143.861282 241.565722 
L 144.901187 241.565722 
L 144.901187 238.504282 
L 147.80013 238.504282 
L 147.80013 235.533012 
L 149.57286 235.533012 
L 149.57286 240.485196 
L 151.704776 240.485196 
L 151.704776 239.494753 
L 153.06858 239.494753 
L 153.06858 247.418337 
L 154.477407 247.418337 
L 154.477407 251.920349 
L 155.163021 251.920349 
L 155.163021 254.891634 
L 156.954518 254.891634 
L 156.954518 259.348611 
L 158.261839 259.348611 
L 158.261839 267.047065 
L 160.034275 267.047065 
L 160.034275 271.233936 
L 162.262112 271.233936 
L 162.262112 264.300824 
L 165.801882 264.300824 
L 165.801882 253.045852 
L 167.216229 253.045852 
L 167.216229 249.039047 
L 168.632287 249.039047 
L 168.632287 253.180869 
L 170.025367 253.180869 
L 170.025367 256.962559 
L 174.647629 256.962559 
L 174.647629 253.721111 
L 175.457928 253.721111 
L 175.457928 240.124992 
L 176.417033 240.124992 
L 176.417033 235.442943 
L 177.832648 235.442943 
L 177.832648 231.211052 
L 179.22587 231.211052 
L 179.22587 228.014623 
L 179.933648 228.014623 
L 179.933648 231.301092 
L 181.735396 231.301092 
L 181.735396 227.654491 
L 183.508168 227.654491 
L 183.508168 224.052882 
L 183.864817 224.052882 
L 183.864817 227.744459 
L 184.933567 227.744459 
L 184.933567 224.683178 
L 185.290335 224.683178 
L 185.290335 221.576746 
L 185.884345 221.576746 
L 185.884345 104.254363 
L 186.595461 104.254363 
L 186.595461 144.232141 
L 187.185721 144.232141 
L 187.185721 108.441147 
L 187.542689 108.441147 
L 187.542689 122.982717 
L 188.448213 122.982717 
L 188.448213 115.824461 
L 190.218036 115.824461 
L 190.218036 124.243252 
L 191.279296 124.243252 
L 191.279296 100.65271 
L 193.402595 100.65271 
L 193.402595 89.172566 
L 195.654519 89.172566 
L 195.654519 88.54227 
L 196.365883 88.54227 
L 196.365883 91.87383 
L 198.002788 91.87383 
L 198.002788 81.203976 
L 199.064367 81.203976 
L 199.064367 73.685631 
L 199.75004 73.685631 
L 199.75004 81.65422 
L 201.191783 81.65422 
L 201.191783 82.419548 
L 202.602951 82.419548 
L 202.602951 90.478163 
L 203.288713 90.478163 
L 203.288713 93.764661 
L 203.996645 93.764661 
L 203.996645 83.365014 
L 205.09351 83.365014 
L 205.09351 80.843901 
L 207.203633 80.843901 
L 207.203633 83.31995 
L 210.387703 83.31995 
L 210.387703 87.011643 
L 212.511533 87.011643 
L 212.511533 90.343132 
L 212.99489 90.343132 
L 212.99489 67.067702 
L 214.634644 67.067702 
L 214.634644 85.751051 
L 218.526976 85.751051 
L 218.526976 82.599643 
L 220.274305 82.599643 
L 220.274305 85.570956 
L 222.434188 85.570956 
L 222.434188 82.284502 
L 223.834976 82.284502 
L 223.834976 94.800095 
L 225.250385 94.800095 
L 225.250385 156.072446 
L 227.373472 156.072446 
L 227.373472 80.168542 
L 228.789152 80.168542 
L 228.789152 92.729169 
L 230.365871 92.729169 
L 230.365871 70.714375 
L 232.327796 70.714375 
L 232.327796 91.783761 
L 234.429969 91.783761 
L 234.429969 88.632353 
L 238.697475 88.632353 
L 238.697475 85.705988 
L 242.235823 85.705988 
L 242.235823 88.677359 
L 247.26151 88.677359 
L 247.26151 91.558603 
L 250.021136 91.558603 
L 250.021136 42.171548 
L 251.235201 42.171548 
L 251.235201 84.760637 
L 251.952463 84.760637 
L 251.952463 89.982957 
L 253.725288 89.982957 
L 253.725288 94.755075 
L 255.143929 94.755075 
L 255.143929 91.558603 
L 257.034756 91.558603 
L 257.034756 89.03752 
L 259.739622 89.03752 
L 259.739622 97.906483 
L 262.406895 97.906483 
L 262.406895 93.764661 
L 263.471847 93.764661 
L 263.471847 85.030744 
L 266.302736 85.030744 
L 266.302736 30.331286 
L 267.006338 30.331286 
L 267.006338 54.462069 
L 270.5451 54.462069 
L 270.5451 90.613253 
L 271.230885 90.613253 
L 271.230885 99.076992 
L 273.37639 99.076992 
L 273.37639 90.072968 
L 276.207166 90.072968 
L 276.207166 101.373061 
L 276.892739 101.373061 
L 276.892739 120.911763 
L 278.330259 120.911763 
L 278.330259 140.765664 
L 279.016097 140.765664 
L 279.016097 129.375545 
L 280.260696 129.375545 
L 280.260696 102.138388 
L 281.161142 102.138388 
L 281.161142 103.533998 
L 281.846868 103.533998 
L 281.846868 96.015667 
L 283.991848 96.015667 
L 283.991848 99.167075 
L 285.190231 99.167075 
L 285.190231 102.318426 
L 288.21643 102.318426 
L 288.21643 107.090544 
L 291.914808 107.090544 
L 291.914808 110.151926 
L 295.939397 110.151926 
L 295.939397 105.109702 
L 299.248069 105.109702 
L 299.248069 112.2679 
L 304.998702 112.357984 
L 304.998702 115.329268 
L 306.063637 115.329268 
L 306.063637 118.975869 
L 310.178214 118.975869 
L 310.178214 116.094567 
L 312.301271 116.094567 
L 312.301271 109.746774 
L 313.121478 109.746774 
L 313.121478 106.685406 
L 317.963332 106.685406 
L 317.963332 113.708544 
L 319.378511 113.708544 
L 319.378511 119.966341 
L 320.064326 119.966341 
L 320.064326 123.702982 
L 322.917166 123.702982 
L 322.917166 126.764422 
L 324.332899 126.764422 
L 324.332899 129.825703 
L 326.945081 129.825703 
L 326.945081 133.247275 
L 327.849367 133.247275 
L 327.849367 136.308643 
L 330.702484 136.308643 
L 330.702484 139.189931 
L 331.388046 139.189931 
L 331.388046 135.768445 
L 332.095765 135.768445 
L 332.095765 129.195465 
L 335.988291 129.195465 
L 335.988291 135.543287 
L 336.342139 135.543287 
L 336.342139 138.559649 
L 337.04987 138.559649 
L 337.04987 148.329015 
L 339.195192 148.329015 
L 339.195192 166.337062 
L 340.021161 166.337062 
L 340.021161 174.035545 
L 340.588626 174.035545 
L 340.588626 177.772186 
L 341.29628 177.772186 
L 341.29628 189.072221 
L 342.418865 189.072221 
L 342.418865 196.500541 
L 343.446331 196.500541 
L 343.446331 203.073464 
L 344.127163 203.073464 
L 344.127163 206.404967 
L 345.564794 206.404967 
L 345.564794 209.736412 
L 346.980728 209.736412 
L 346.980728 216.534493 
L 348.189067 216.534493 
L 348.189067 219.595861 
L 349.435187 219.595861 
L 349.435187 222.612209 
L 351.000741 222.612209 
L 351.000741 225.628557 
L 355.473035 225.628557 
L 355.473035 228.509845 
L 362.528275 228.509845 
L 362.528275 225.628557 
L 370.335339 225.628557 
L 370.335339 228.869962 
L 371.75546 228.869962 
L 371.75546 231.841333 
L 372.436415 231.841333 
L 372.436415 234.812704 
L 373.144164 234.812704 
L 373.144164 238.189213 
L 374.237945 238.189213 
L 374.237945 244.266886 
L 375.267334 244.266886 
L 375.267334 250.974883 
L 378.120315 250.974883 
L 378.120315 292.618492 
L 378.806018 292.618492 
L 378.806018 317.604658 
L 379.911353 317.604658 
L 379.911353 336.738208 
L 382.366719 336.738208 
L 382.366719 336.603119 
L 383.052369 336.603119 
L 383.052369 333.226639 
L 383.792349 333.226639 
L 383.792349 329.489983 
L 385.909503 329.489983 
L 385.909503 347.588042 
L 387.338052 347.588042 
L 387.338052 365.686172 
L 388.736133 365.686172 
L 388.736133 379.957521 
L 389.421942 379.957521 
L 389.421942 383.919291 
L 390.483627 383.919291 
L 390.483627 386.845599 
L 394.398023 386.845599 
L 394.398023 397.605407 
L 397.936784 397.605407 
L 397.936784 394.634094 
L 399.487198 394.634094 
L 399.487198 391.527691 
L 400.676299 391.527691 
L 400.676299 388.601383 
L 402.359661 388.601383 
L 402.359661 385.63007 
L 404.638307 385.63007 
L 404.638307 382.613693 
L 407.491017 382.613693 
L 407.491017 379.73242 
L 412.091457 379.73242 
L 412.091457 376.851118 
L 414.192563 376.851118 
L 414.192563 379.912515 
L 414.900277 379.912515 
L 414.900277 382.928849 
L 416.337808 382.928849 
L 416.337808 389.141625 
L 417.755494 389.141625 
L 417.755494 395.39945 
L 421.292297 395.39945 
L 421.292297 398.370735 
L 437.569609 398.370735 
L 437.569609 401.252037 
L 446.777137 401.252037 
L 446.777137 404.178344 
L 449.955391 404.178344 
L 449.955391 407.059603 
L 453.139727 407.059603 
L 453.139727 409.985939 
L 460.217757 409.985939 
L 460.217757 412.867213 
L 466.940612 412.867213 
L 466.940612 415.748514 
L 475.057608 415.748514 
L 475.057608 418.629788 
L 481.42704 418.629788 
L 481.42704 421.51109 
L 487.111111 421.51109 
L 487.111111 424.392348 
L 492.772847 424.392348 
L 492.772847 427.318656 
L 504.07481 427.318656 
L 504.07481 430.244992 
L 514.358708 430.244992 
L 514.358708 433.126266 
L 523.497255 433.126266 
L 523.497255 436.007567 
L 529.55574 436.007567 
L 529.55574 438.888841 
L 542.671712 438.888841 
L 542.671712 441.770143 
L 550.784627 441.770143 
L 550.784627 444.651401 
L 562.485037 444.651401 
L 562.485037 447.532732 
L 576.285025 447.532732 
L 576.285025 450.414005 
L 588.298506 450.414005 
L 588.298506 453.295307 
L 601.763301 453.295307 
L 601.763301 456.176609 
L 618.396071 456.176609 
L 618.396071 459.057868 
L 635.877575 459.057868 
L 635.877575 461.939141 
L 659.797203 461.939141 
L 659.797203 464.820443 
L 676.782606 464.820443 
L 676.782606 467.701745 
L 685.534443 467.701745 
L 685.534443 470.583018 
L 696.599311 470.583018 
L 696.599311 473.464277 
L 809.128779 473.464277 
L 809.128779 476.390613 
L 813.374906 476.390613 
L 813.374906 473.19417 
L 814.060579 473.19417 
L 814.060579 470.177837 
L 819.744385 470.177837 
L 819.744385 479.541993 
L 821.160006 479.541993 
L 821.160006 482.69343 
L 823.991024 482.69343 
L 823.991024 485.709792 
L 826.821736 485.709792 
L 826.821736 480.982651 
L 828.026459 480.982651 
L 828.026459 474.679849 
L 828.944882 474.679849 
L 828.944882 468.016871 
L 831.556468 468.016871 
L 831.556468 465.000538 
L 833.192666 465.000538 
L 833.192666 468.196952 
L 834.393892 468.196952 
L 834.393892 471.25832 
L 836.022263 471.25832 
L 836.022263 474.139607 
L 838.284661 474.139607 
L 838.284661 477.200975 
L 839.892814 477.200975 
L 839.892814 480.667496 
L 840.249812 480.667496 
L 840.249812 483.683872 
L 841.688216 483.683872 
L 841.688216 486.6552 
L 841.688216 486.6552 
" style="fill:none;stroke:#1f77b4;stroke-linecap:square;stroke-width:1.5;"/>
   </g>
   <g id="line2d_36">
    <path clip-path="url(#pd2d6d5bd4c)" d="M 79.564161 268.217588 
L 89.112602 268.217588 
L 89.112602 261.494594 
L 115.979947 261.494594 
L 115.979947 254.771585 
L 126.167358 254.771585 
L 126.167358 248.048576 
L 142.903115 248.048576 
L 142.903115 241.325567 
L 185.289261 241.325567 
L 185.289261 97.26119 
L 195.653575 97.26119 
L 195.653575 90.538181 
L 276.326543 90.538181 
L 276.326543 97.26119 
L 287.650534 97.26119 
L 287.650534 103.984199 
L 304.971012 103.984199 
L 304.971012 110.707208 
L 316.915282 110.707208 
L 316.915282 117.430217 
L 326.563314 117.430217 
L 326.563314 124.153212 
L 328.942098 124.153212 
L 328.942098 117.430217 
L 332.481172 117.430217 
L 332.481172 124.153212 
L 335.990114 124.153212 
L 335.990114 130.876264 
L 347.453322 130.876264 
L 347.453322 124.153212 
L 349.437162 124.153212 
L 349.437162 130.876264 
L 357.930165 130.876264 
L 357.930165 137.599258 
L 366.916226 137.599258 
L 366.916226 144.322224 
L 371.870183 144.322224 
L 371.870183 137.599258 
L 378.239686 137.599258 
L 378.239686 130.876264 
L 409.022093 130.876264 
L 409.022093 124.153212 
L 414.310507 124.153212 
L 414.310507 117.430217 
L 437.689729 117.430217 
L 437.689729 110.707208 
L 443.344299 110.707208 
L 443.344299 103.984199 
L 460.336815 103.984199 
L 460.336815 248.048576 
L 469.046513 248.048576 
L 469.046513 241.325567 
L 474.124129 241.325567 
L 474.124129 234.602558 
L 477.676024 234.602558 
L 477.676024 227.879563 
L 506.338871 227.879563 
L 506.338871 221.156511 
L 523.951271 221.156511 
L 523.951271 207.71055 
L 539.248629 207.71055 
L 539.248629 200.987556 
L 550.218383 200.987556 
L 550.218383 194.264532 
L 556.588204 194.264532 
L 556.588204 187.541537 
L 594.753119 187.541537 
L 594.753119 180.818514 
L 621.692251 180.818514 
L 621.692251 174.095577 
L 634.431014 174.095577 
L 634.431014 180.818514 
L 640.449854 180.818514 
L 640.449854 174.095577 
L 660.618212 174.095577 
L 660.618212 167.372525 
L 666.623204 167.372525 
L 666.623204 180.818514 
L 685.15336 180.818514 
L 685.15336 174.095577 
L 698.126995 174.095577 
L 698.126995 30.0312 
L 704.747565 30.0312 
L 704.747565 36.754137 
L 722.529319 36.754137 
L 722.529319 30.0312 
L 735.623794 30.0312 
L 735.623794 36.754137 
L 745.477315 36.754137 
L 745.477315 43.47716 
L 757.937527 43.47716 
L 757.937527 50.200155 
L 763.355957 50.200155 
L 763.355957 56.923179 
L 764.804912 56.923179 
L 764.804912 63.646173 
L 770.733009 63.646173 
L 770.733009 70.369139 
L 779.86396 70.369139 
L 779.86396 77.092134 
L 788.723519 77.092134 
L 788.723519 83.815186 
L 797.211485 83.815186 
L 797.211485 90.538181 
L 809.832924 90.538181 
L 809.832924 97.26119 
L 821.279547 97.26119 
L 821.279547 103.984199 
L 831.529026 103.984199 
L 831.529026 110.707208 
L 838.257413 110.707208 
L 838.257413 117.430217 
L 838.257413 117.430217 
" style="fill:none;stroke:#ff7f0e;stroke-linecap:square;stroke-width:1.5;"/>
   </g>
   <g id="patch_3">
    <path d="M 40.603125 509.4864 
L 40.603125 7.2 
" style="fill:none;stroke:#000000;stroke-linecap:square;stroke-linejoin:miter;stroke-width:0.8;"/>
   </g>
   <g id="patch_4">
    <path d="M 879.835125 509.4864 
L 879.835125 7.2 
" style="fill:none;stroke:#000000;stroke-linecap:square;stroke-linejoin:miter;stroke-width:0.8;"/>
   </g>
   <g id="patch_5">
    <path d="M 40.603125 509.4864 
L 879.835125 509.4864 
" style="fill:none;stroke:#000000;stroke-linecap:square;stroke-linejoin:miter;stroke-width:0.8;"/>
   </g>
   <g id="patch_6">
    <path d="M 40.603125 7.2 
L 879.835125 7.2 
" style="fill:none;stroke:#000000;stroke-linecap:square;stroke-linejoin:miter;stroke-width:0.8;"/>
   </g>
   <g id="legend_1">
    <g id="patch_7">
     <path d="M 768.416375 44.55625 
L 872.835125 44.55625 
Q 874.835125 44.55625 874.835125 42.55625 
L 874.835125 14.2 
Q 874.835125 12.2 872.835125 12.2 
L 768.416375 12.2 
Q 766.416375 12.2 766.416375 14.2 
L 766.416375 42.55625 
Q 766.416375 44.55625 768.416375 44.55625 
z
" style="fill:#ffffff;opacity:0.8;stroke:#cccccc;stroke-linejoin:miter;"/>
    </g>
    <g id="line2d_37">
     <path d="M 770.416375 20.298437 
L 790.416375 20.298437 
" style="fill:none;stroke:#1f77b4;stroke-linecap:square;stroke-width:1.5;"/>
    </g>
    <g id="line2d_38"/>
    <g id="text_19">
     <!-- Actual value -->
     <defs>
      <path d="M 34.1875 63.1875 
L 20.796875 26.90625 
L 47.609375 26.90625 
z
M 28.609375 72.90625 
L 39.796875 72.90625 
L 67.578125 0 
L 57.328125 0 
L 50.6875 18.703125 
L 17.828125 18.703125 
L 11.1875 0 
L 0.78125 0 
z
" id="DejaVuSans-65"/>
      <path d="M 48.78125 52.59375 
L 48.78125 44.1875 
Q 44.96875 46.296875 41.140625 47.34375 
Q 37.3125 48.390625 33.40625 48.390625 
Q 24.65625 48.390625 19.8125 42.84375 
Q 14.984375 37.3125 14.984375 27.296875 
Q 14.984375 17.28125 19.8125 11.734375 
Q 24.65625 6.203125 33.40625 6.203125 
Q 37.3125 6.203125 41.140625 7.25 
Q 44.96875 8.296875 48.78125 10.40625 
L 48.78125 2.09375 
Q 45.015625 0.34375 40.984375 -0.53125 
Q 36.96875 -1.421875 32.421875 -1.421875 
Q 20.0625 -1.421875 12.78125 6.34375 
Q 5.515625 14.109375 5.515625 27.296875 
Q 5.515625 40.671875 12.859375 48.328125 
Q 20.21875 56 33.015625 56 
Q 37.15625 56 41.109375 55.140625 
Q 45.0625 54.296875 48.78125 52.59375 
z
" id="DejaVuSans-99"/>
      <path d="M 9.421875 75.984375 
L 18.40625 75.984375 
L 18.40625 0 
L 9.421875 0 
z
" id="DejaVuSans-108"/>
     </defs>
     <g transform="translate(798.416375 23.798437)scale(0.1 -0.1)">
      <use xlink:href="#DejaVuSans-65"/>
      <use x="68.392578" xlink:href="#DejaVuSans-99"/>
      <use x="123.373047" xlink:href="#DejaVuSans-116"/>
      <use x="162.582031" xlink:href="#DejaVuSans-117"/>
      <use x="225.960938" xlink:href="#DejaVuSans-97"/>
      <use x="287.240234" xlink:href="#DejaVuSans-108"/>
      <use x="315.023438" xlink:href="#DejaVuSans-32"/>
      <use x="346.810547" xlink:href="#DejaVuSans-118"/>
      <use x="405.990234" xlink:href="#DejaVuSans-97"/>
      <use x="467.269531" xlink:href="#DejaVuSans-108"/>
      <use x="495.052734" xlink:href="#DejaVuSans-117"/>
      <use x="558.431641" xlink:href="#DejaVuSans-101"/>
     </g>
    </g>
    <g id="line2d_39">
     <path d="M 770.416375 34.976562 
L 790.416375 34.976562 
" style="fill:none;stroke:#ff7f0e;stroke-linecap:square;stroke-width:1.5;"/>
    </g>
    <g id="line2d_40"/>
    <g id="text_20">
     <!-- Setpoint value -->
     <defs>
      <path d="M 53.515625 70.515625 
L 53.515625 60.890625 
Q 47.90625 63.578125 42.921875 64.890625 
Q 37.9375 66.21875 33.296875 66.21875 
Q 25.25 66.21875 20.875 63.09375 
Q 16.5 59.96875 16.5 54.203125 
Q 16.5 49.359375 19.40625 46.890625 
Q 22.3125 44.4375 30.421875 42.921875 
L 36.375 41.703125 
Q 47.40625 39.59375 52.65625 34.296875 
Q 57.90625 29 57.90625 20.125 
Q 57.90625 9.515625 50.796875 4.046875 
Q 43.703125 -1.421875 29.984375 -1.421875 
Q 24.8125 -1.421875 18.96875 -0.25 
Q 13.140625 0.921875 6.890625 3.21875 
L 6.890625 13.375 
Q 12.890625 10.015625 18.65625 8.296875 
Q 24.421875 6.59375 29.984375 6.59375 
Q 38.421875 6.59375 43.015625 9.90625 
Q 47.609375 13.234375 47.609375 19.390625 
Q 47.609375 24.75 44.3125 27.78125 
Q 41.015625 30.8125 33.5 32.328125 
L 27.484375 33.5 
Q 16.453125 35.6875 11.515625 40.375 
Q 6.59375 45.0625 6.59375 53.421875 
Q 6.59375 63.09375 13.40625 68.65625 
Q 20.21875 74.21875 32.171875 74.21875 
Q 37.3125 74.21875 42.625 73.28125 
Q 47.953125 72.359375 53.515625 70.515625 
z
" id="DejaVuSans-83"/>
      <path d="M 9.421875 54.6875 
L 18.40625 54.6875 
L 18.40625 0 
L 9.421875 0 
z
M 9.421875 75.984375 
L 18.40625 75.984375 
L 18.40625 64.59375 
L 9.421875 64.59375 
z
" id="DejaVuSans-105"/>
      <path d="M 54.890625 33.015625 
L 54.890625 0 
L 45.90625 0 
L 45.90625 32.71875 
Q 45.90625 40.484375 42.875 44.328125 
Q 39.84375 48.1875 33.796875 48.1875 
Q 26.515625 48.1875 22.3125 43.546875 
Q 18.109375 38.921875 18.109375 30.90625 
L 18.109375 0 
L 9.078125 0 
L 9.078125 54.6875 
L 18.109375 54.6875 
L 18.109375 46.1875 
Q 21.34375 51.125 25.703125 53.5625 
Q 30.078125 56 35.796875 56 
Q 45.21875 56 50.046875 50.171875 
Q 54.890625 44.34375 54.890625 33.015625 
z
" id="DejaVuSans-110"/>
     </defs>
     <g transform="translate(798.416375 38.476562)scale(0.1 -0.1)">
      <use xlink:href="#DejaVuSans-83"/>
      <use x="63.476562" xlink:href="#DejaVuSans-101"/>
      <use x="125" xlink:href="#DejaVuSans-116"/>
      <use x="164.208984" xlink:href="#DejaVuSans-112"/>
      <use x="227.685547" xlink:href="#DejaVuSans-111"/>
      <use x="288.867188" xlink:href="#DejaVuSans-105"/>
      <use x="316.650391" xlink:href="#DejaVuSans-110"/>
      <use x="380.029297" xlink:href="#DejaVuSans-116"/>
      <use x="419.238281" xlink:href="#DejaVuSans-32"/>
      <use x="451.025391" xlink:href="#DejaVuSans-118"/>
      <use x="510.205078" xlink:href="#DejaVuSans-97"/>
      <use x="571.484375" xlink:href="#DejaVuSans-108"/>
      <use x="599.267578" xlink:href="#DejaVuSans-117"/>
      <use x="662.646484" xlink:href="#DejaVuSans-101"/>
     </g>
    </g>
   </g>
  </g>
 </g>
 <defs>
  <clipPath id="pd2d6d5bd4c">
   <rect height="502.2864" width="839.232" x="40.603125" y="7.2"/>
  </clipPath>
 </defs>
</svg>
